<svg width="401" height="234" viewBox="0 0 401 234" fill="none" xmlns="http://www.w3.org/2000/svg">
<path d="M243.231 130.145H8.71178C6.53464 130.143 4.44736 129.277 2.90788 127.737C1.3684 126.198 0.502451 124.11 0.5 121.933V8.41747C0.502451 6.24032 1.3684 4.15305 2.90788 2.61357C4.44736 1.07409 6.53464 0.208139 8.71178 0.205688H243.231C245.408 0.208139 247.495 1.07409 249.035 2.61357C250.574 4.15305 251.44 6.24032 251.442 8.41747V121.933C251.44 124.11 250.574 126.198 249.035 127.737C247.495 129.277 245.408 130.143 243.231 130.145ZM8.71178 1.17178C6.79077 1.17395 4.94906 1.93803 3.5907 3.29639C2.23234 4.65475 1.46827 6.49646 1.46609 8.41747V121.933C1.46827 123.854 2.23234 125.696 3.5907 127.054C4.94906 128.413 6.79077 129.177 8.71178 129.179H243.231C245.152 129.177 246.993 128.413 248.352 127.054C249.71 125.696 250.474 123.854 250.476 121.933V8.41747C250.474 6.49646 249.71 4.65475 248.352 3.29639C246.993 1.93803 245.152 1.17395 243.231 1.17178H8.71178Z" fill="#3F3D56"/>
<path d="M45.5442 28.4639C47.9452 28.4639 49.8916 26.5175 49.8916 24.1165C49.8916 21.7154 47.9452 19.769 45.5442 19.769C43.1432 19.769 41.1968 21.7154 41.1968 24.1165C41.1968 26.5175 43.1432 28.4639 45.5442 28.4639Z" fill="#CCCCCC"/>
<path d="M45.5442 44.8875C47.9452 44.8875 49.8916 42.9411 49.8916 40.54C49.8916 38.139 47.9452 36.1926 45.5442 36.1926C43.1432 36.1926 41.1968 38.139 41.1968 40.54C41.1968 42.9411 43.1432 44.8875 45.5442 44.8875Z" fill="#CCCCCC"/>
<path d="M45.5442 61.311C47.9452 61.311 49.8916 59.3646 49.8916 56.9636C49.8916 54.5626 47.9452 52.6162 45.5442 52.6162C43.1432 52.6162 41.1968 54.5626 41.1968 56.9636C41.1968 59.3646 43.1432 61.311 45.5442 61.311Z" fill="#CCCCCC"/>
<path d="M45.5442 77.7346C47.9452 77.7346 49.8916 75.7882 49.8916 73.3872C49.8916 70.9862 47.9452 69.0398 45.5442 69.0398C43.1432 69.0398 41.1968 70.9862 41.1968 73.3872C41.1968 75.7882 43.1432 77.7346 45.5442 77.7346Z" fill="#CCCCCC"/>
<path d="M118.725 110.582C121.126 110.582 123.073 108.635 123.073 106.234C123.073 103.833 121.126 101.887 118.725 101.887C116.324 101.887 114.378 103.833 114.378 106.234C114.378 108.635 116.324 110.582 118.725 110.582Z" fill="#CCCCCC"/>
<path d="M87.3274 110.582C89.7284 110.582 91.6748 108.635 91.6748 106.234C91.6748 103.833 89.7284 101.887 87.3274 101.887C84.9264 101.887 82.98 103.833 82.98 106.234C82.98 108.635 84.9264 110.582 87.3274 110.582Z" fill="#CCCCCC"/>
<path d="M183.454 110.582C185.855 110.582 187.801 108.635 187.801 106.234C187.801 103.833 185.855 101.887 183.454 101.887C181.053 101.887 179.106 103.833 179.106 106.234C179.106 108.635 181.053 110.582 183.454 110.582Z" fill="#CCCCCC"/>
<path d="M150.607 110.582C153.008 110.582 154.954 108.635 154.954 106.234C154.954 103.833 153.008 101.887 150.607 101.887C148.206 101.887 146.259 103.833 146.259 106.234C146.259 108.635 148.206 110.582 150.607 110.582Z" fill="#CCCCCC"/>
<path d="M210.263 24.5995H67.2809C67.1528 24.5995 67.0299 24.5486 66.9393 24.458C66.8487 24.3674 66.7979 24.2446 66.7979 24.1165C66.7979 23.9884 66.8487 23.8655 66.9393 23.7749C67.0299 23.6843 67.1528 23.6334 67.2809 23.6334H210.263C210.391 23.6334 210.514 23.6843 210.604 23.7749C210.695 23.8655 210.746 23.9884 210.746 24.1165C210.746 24.2446 210.695 24.3674 210.604 24.458C210.514 24.5486 210.391 24.5995 210.263 24.5995Z" fill="#CCCCCC"/>
<path d="M210.263 41.0231H67.2809C67.1528 41.0231 67.0299 40.9722 66.9393 40.8816C66.8487 40.791 66.7979 40.6682 66.7979 40.5401C66.7979 40.4119 66.8487 40.2891 66.9393 40.1985C67.0299 40.1079 67.1528 40.057 67.2809 40.057H210.263C210.391 40.057 210.514 40.1079 210.604 40.1985C210.695 40.2891 210.746 40.4119 210.746 40.5401C210.746 40.6682 210.695 40.791 210.604 40.8816C210.514 40.9722 210.391 41.0231 210.263 41.0231Z" fill="#CCCCCC"/>
<path d="M210.263 57.4467H67.2809C67.1528 57.4467 67.0299 57.3958 66.9393 57.3052C66.8487 57.2146 66.7979 57.0918 66.7979 56.9636C66.7979 56.8355 66.8487 56.7127 66.9393 56.6221C67.0299 56.5315 67.1528 56.4806 67.2809 56.4806H210.263C210.391 56.4806 210.514 56.5315 210.604 56.6221C210.695 56.7127 210.746 56.8355 210.746 56.9636C210.746 57.0918 210.695 57.2146 210.604 57.3052C210.514 57.3958 210.391 57.4467 210.263 57.4467Z" fill="#CCCCCC"/>
<path d="M210.263 73.8703H67.2809C67.1528 73.8703 67.0299 73.8194 66.9393 73.7288C66.8487 73.6382 66.7979 73.5153 66.7979 73.3872C66.7979 73.2591 66.8487 73.1363 66.9393 73.0457C67.0299 72.9551 67.1528 72.9042 67.2809 72.9042H210.263C210.391 72.9042 210.514 72.9551 210.604 73.0457C210.695 73.1363 210.746 73.2591 210.746 73.3872C210.746 73.5153 210.695 73.6382 210.604 73.7288C210.514 73.8194 210.391 73.8703 210.263 73.8703Z" fill="#CCCCCC"/>
<path d="M94.3318 90.2939H80.3234C79.6831 90.2931 79.0692 90.0384 78.6164 89.5856C78.1636 89.1328 77.9089 88.519 77.9082 87.8786V74.8364C77.9089 74.196 78.1636 73.5821 78.6164 73.1294C79.0692 72.6766 79.6831 72.4219 80.3234 72.4211H94.3318C94.9721 72.4219 95.586 72.6766 96.0388 73.1294C96.4915 73.5821 96.7463 74.196 96.747 74.8364V87.8786C96.7463 88.519 96.4915 89.1328 96.0388 89.5856C95.586 90.0384 94.9721 90.2931 94.3318 90.2939Z" fill="#0582CA"/>
<path d="M125.73 90.2938H111.721C111.081 90.2931 110.467 90.0384 110.014 89.5856C109.562 89.1328 109.307 88.5189 109.306 87.8786V58.4128C109.307 57.7725 109.562 57.1586 110.014 56.7058C110.467 56.253 111.081 55.9983 111.721 55.9976H125.73C126.37 55.9983 126.984 56.253 127.437 56.7058C127.89 57.1586 128.144 57.7725 128.145 58.4128V87.8786C128.144 88.5189 127.89 89.1328 127.437 89.5856C126.984 90.0384 126.37 90.2931 125.73 90.2938Z" fill="#0582CA"/>
<path d="M157.611 90.2938H143.602C142.962 90.2931 142.348 90.0384 141.895 89.5856C141.442 89.1328 141.188 88.5189 141.187 87.8786V41.9892C141.188 41.3489 141.442 40.735 141.895 40.2822C142.348 39.8294 142.962 39.5747 143.602 39.574H157.611C158.251 39.5747 158.865 39.8294 159.318 40.2822C159.77 40.735 160.025 41.3489 160.026 41.9892V87.8786C160.025 88.5189 159.77 89.1328 159.318 89.5856C158.865 90.0384 158.251 90.2931 157.611 90.2938Z" fill="#0582CA"/>
<path d="M190.458 90.2938H176.449C175.809 90.2931 175.195 90.0384 174.742 89.5856C174.29 89.1328 174.035 88.5189 174.034 87.8786V26.0487C174.035 25.4083 174.29 24.7944 174.742 24.3416C175.195 23.8889 175.809 23.6342 176.449 23.6334H190.458C191.098 23.6342 191.712 23.8889 192.165 24.3416C192.618 24.7944 192.872 25.4083 192.873 26.0487V87.8786C192.872 88.5189 192.618 89.1328 192.165 89.5856C191.712 90.0384 191.098 90.2931 190.458 90.2938Z" fill="#0582CA"/>
<path d="M320.978 231.268C316.634 227.598 313.996 221.799 314.688 216.155C315.38 210.51 319.665 205.321 325.225 204.122C330.784 202.923 337.121 206.241 338.809 211.672C339.739 201.202 340.81 190.294 346.376 181.378C351.416 173.304 360.146 167.528 369.607 166.494C379.068 165.461 389.03 169.364 394.93 176.832C400.831 184.299 402.275 195.155 398.143 203.729C395.098 210.045 389.49 214.745 383.613 218.569C364.624 230.821 341.849 235.803 319.478 232.599L320.978 231.268Z" fill="#F2F2F2"/>
<path d="M385.575 169.58C377.768 175.939 370.606 183.051 364.193 190.812C354.156 202.918 346.034 216.49 340.11 231.057C339.677 232.12 341.402 232.582 341.831 231.531C351.524 207.858 366.997 186.992 386.836 170.842C387.727 170.117 386.458 168.861 385.575 169.58Z" fill="white"/>
<path d="M275.165 98.2919C274.615 98.2905 274.068 98.2356 273.529 98.128C273.431 98.1084 273.332 98.0873 273.234 98.0645L154.937 70.5215C153.652 70.2222 152.799 69.4139 152.952 68.641C153.016 68.4134 153.142 68.2081 153.316 68.0477C153.49 67.8872 153.705 67.7779 153.937 67.7317C154.508 67.5743 155.109 67.561 155.686 67.6928L274.718 92.5513C277.398 93.1107 279.258 94.7556 278.953 96.2956C278.794 97.1015 278.084 97.7263 276.955 98.0551C276.372 98.2176 275.769 98.2973 275.165 98.2919Z" fill="#3F3D56"/>
<path d="M250.105 94.4813C250.717 94.8412 251.401 95.0624 252.108 95.1294C252.815 95.1965 253.528 95.1077 254.197 94.8694C254.866 94.631 255.474 94.2489 255.98 93.7499C256.485 93.251 256.875 92.6473 257.121 91.9814L274.379 92.3413L269.598 84.7516L253.943 85.5734C252.797 85.2331 251.566 85.325 250.483 85.8317C249.4 86.3384 248.541 87.2248 248.067 88.3228C247.594 89.4208 247.541 90.6542 247.916 91.7892C248.292 92.9243 249.071 93.8822 250.105 94.4813Z" fill="#FFB8B8"/>
<path d="M257.601 91.7245L257.511 86.4347C257.505 85.8888 257.703 85.3602 258.066 84.9529C258.43 84.5456 258.933 84.2892 259.476 84.2342L290.488 81.2414L316.327 72.7697C317.106 72.5139 317.929 72.4158 318.747 72.481C319.566 72.5461 320.363 72.7733 321.092 73.1492C321.822 73.5252 322.469 74.0424 322.997 74.6708C323.525 75.2993 323.923 76.0263 324.167 76.8098C324.411 77.5933 324.498 78.4176 324.421 79.2347C324.344 80.0518 324.105 80.8454 323.718 81.5695C323.332 82.2935 322.805 82.9335 322.169 83.4522C321.533 83.9709 320.8 84.358 320.013 84.5909L291.414 93.0586L259.829 93.8609C259.352 93.8725 258.884 93.7268 258.497 93.4463C258.111 93.1659 257.827 92.7661 257.69 92.3087C257.634 92.1189 257.604 91.9223 257.601 91.7245Z" fill="#3F3D56"/>
<path d="M303.495 228.098L297.572 228.098L294.755 205.255L303.496 205.256L303.495 228.098Z" fill="#FFB8B8"/>
<path d="M305.005 233.839L285.91 233.838V233.596C285.91 232.62 286.102 231.654 286.475 230.752C286.849 229.85 287.396 229.031 288.087 228.341C288.777 227.651 289.596 227.103 290.498 226.73C291.4 226.356 292.366 226.164 293.342 226.164H293.343L305.005 226.165L305.005 233.839Z" fill="#2F2E41"/>
<path d="M320.884 228.098L314.962 228.098L312.145 205.255L320.885 205.256L320.884 228.098Z" fill="#FFB8B8"/>
<path d="M322.394 233.839L303.299 233.838V233.596C303.299 232.62 303.492 231.654 303.865 230.752C304.239 229.85 304.786 229.031 305.476 228.341C306.166 227.651 306.986 227.103 307.887 226.73C308.789 226.356 309.756 226.164 310.732 226.164H310.732L322.395 226.165L322.394 233.839Z" fill="#2F2E41"/>
<path d="M324.859 135.784L323.445 219.686C323.44 219.952 323.381 220.214 323.271 220.456C323.16 220.698 323.001 220.914 322.804 221.092C322.606 221.269 322.374 221.404 322.121 221.488C321.869 221.571 321.602 221.602 321.338 221.578L314.408 220.948C313.953 220.907 313.528 220.706 313.208 220.381C312.887 220.056 312.692 219.628 312.656 219.173L308.599 166.837C308.59 166.714 308.534 166.6 308.442 166.517C308.351 166.434 308.231 166.389 308.108 166.392C307.985 166.394 307.867 166.444 307.779 166.53C307.691 166.616 307.64 166.733 307.635 166.856L305.607 220.39C305.588 220.89 305.377 221.362 305.017 221.709C304.657 222.056 304.176 222.249 303.676 222.249H296.244C295.752 222.249 295.279 222.062 294.921 221.725C294.562 221.387 294.346 220.926 294.316 220.435L289.113 135.301L320.028 127.572L324.859 135.784Z" fill="#2F2E41"/>
<path d="M302.435 57.0011C308.987 57.0011 314.299 51.6893 314.299 45.1369C314.299 38.5846 308.987 33.2728 302.435 33.2728C295.883 33.2728 290.571 38.5846 290.571 45.1369C290.571 51.6893 295.883 57.0011 302.435 57.0011Z" fill="#FFB8B8"/>
<path d="M288.055 138.28C287.849 138.082 287.685 137.844 287.572 137.582C287.459 137.319 287.399 137.037 287.395 136.751L286.595 79.538C286.547 76.6276 287.423 73.7769 289.096 71.3953C290.77 69.0136 293.155 67.2237 295.909 66.2826C297.021 61.2398 302.937 60.6082 306.385 60.6837C307.246 60.7022 308.09 60.928 308.844 61.342C309.599 61.7559 310.243 62.3458 310.722 63.0616L313.194 66.7699L318.643 69.9639C321.165 71.4358 323.154 73.6706 324.323 76.346C325.493 79.0214 325.782 81.9991 325.15 84.8497L324.311 88.6654C321.357 102.171 321.638 116.184 325.131 129.56L326.819 135.996C326.907 136.332 326.913 136.683 326.838 137.021C326.762 137.359 326.607 137.675 326.385 137.941C326.163 138.207 325.881 138.416 325.561 138.551C325.242 138.685 324.895 138.742 324.55 138.715L322.589 138.564C322.08 138.525 321.601 138.309 321.236 137.952C320.871 137.595 320.643 137.121 320.593 136.613L320.268 133.369C320.262 133.309 320.235 133.254 320.19 133.214C320.146 133.174 320.088 133.151 320.028 133.151C319.968 133.151 319.91 133.174 319.866 133.214C319.822 133.254 319.794 133.309 319.788 133.369L319.474 136.51C319.421 137.041 319.174 137.533 318.782 137.894C318.389 138.255 317.877 138.459 317.344 138.467L289.602 138.894C289.591 138.894 289.579 138.895 289.568 138.895C289.002 138.896 288.459 138.675 288.055 138.28Z" fill="#3F3D56"/>
<path d="M303.363 51.9757C303.412 53.6528 304.576 54.6231 306.006 55.5016C307.435 56.38 309.106 56.7609 310.744 57.1284C310.963 57.2451 311.21 57.3033 311.459 57.2972C311.707 57.2911 311.951 57.2209 312.164 57.0935C312.378 56.9661 312.556 56.7857 312.68 56.5697C312.803 56.3537 312.869 56.1095 312.871 55.8606L314.373 50.1494C314.904 48.325 315.291 46.4616 315.529 44.5765C315.891 40.9492 315.031 37.0472 312.499 34.4246C309.967 31.802 305.577 30.8704 302.543 32.8911C298.942 28.2926 282.485 38.4524 286.545 41.65C287.267 42.2189 288.371 41.4991 289.288 41.4293C290.204 41.3596 291.232 41.5208 291.814 42.2322C292.575 43.1617 292.243 44.5463 292.557 45.7058C292.687 46.1137 292.896 46.492 293.172 46.8188C293.449 47.1455 293.787 47.4142 294.168 47.6095C294.549 47.8048 294.965 47.9227 295.392 47.9564C295.819 47.9902 296.248 47.9391 296.655 47.8062C297.413 47.4328 298.126 46.9744 298.78 46.4399C299.483 45.9715 300.372 45.6255 301.163 45.9208C302.207 46.3102 302.577 47.5876 302.672 48.6972C302.831 49.8039 303.062 50.8991 303.363 51.9757Z" fill="#2F2E41"/>
<path d="M391.251 234H207.211C207.082 234 206.96 233.949 206.869 233.859C206.778 233.768 206.728 233.645 206.728 233.517C206.728 233.389 206.778 233.266 206.869 233.175C206.96 233.085 207.082 233.034 207.211 233.034H391.251C391.379 233.034 391.502 233.085 391.593 233.175C391.683 233.266 391.734 233.389 391.734 233.517C391.734 233.645 391.683 233.768 391.593 233.859C391.502 233.949 391.379 234 391.251 234Z" fill="#3F3D56"/>
<path opacity="0.2" d="M300.592 83.7727L298.66 107.442L288.516 132.077L303.491 107.925L300.592 83.7727Z" fill="black"/>
<path d="M286.144 141.251C286.698 140.807 287.147 140.246 287.461 139.609C287.775 138.972 287.945 138.274 287.959 137.564C287.974 136.854 287.833 136.149 287.546 135.5C287.259 134.85 286.833 134.272 286.298 133.805L292.76 117.798L283.968 119.574L279.179 134.502C278.454 135.452 278.103 136.636 278.192 137.828C278.281 139.02 278.805 140.138 279.663 140.97C280.522 141.802 281.656 142.29 282.85 142.342C284.045 142.394 285.217 142.006 286.144 141.251Z" fill="#FFB8B8"/>
<path d="M285.674 134.192L280.697 132.398C280.184 132.211 279.76 131.838 279.508 131.353C279.257 130.869 279.195 130.308 279.337 129.78L287.547 99.7256L288.799 72.5627C288.837 71.7429 289.037 70.9387 289.388 70.1969C289.74 69.4551 290.235 68.7906 290.845 68.242C291.456 67.6934 292.169 67.2715 292.944 67.0011C293.719 66.7306 294.54 66.617 295.359 66.6666C296.178 66.7163 296.98 66.9283 297.716 67.2904C298.453 67.6525 299.11 68.1574 299.65 68.7757C300.189 69.3941 300.601 70.1136 300.86 70.8924C301.119 71.6711 301.221 72.4936 301.159 73.3121L298.923 103.055L288.462 132.868C288.303 133.318 288.001 133.704 287.602 133.966C287.202 134.227 286.728 134.351 286.251 134.316C286.054 134.301 285.86 134.26 285.674 134.192Z" fill="#3F3D56"/>
<path d="M210.263 90.2939H67.2809C67.1528 90.2939 67.0299 90.243 66.9393 90.1524C66.8487 90.0618 66.7979 89.9389 66.7979 89.8108C66.7979 89.6827 66.8487 89.5598 66.9393 89.4692C67.0299 89.3787 67.1528 89.3278 67.2809 89.3278H210.263C210.391 89.3278 210.514 89.3787 210.604 89.4692C210.695 89.5598 210.746 89.6827 210.746 89.8108C210.746 89.9389 210.695 90.0618 210.604 90.1524C210.514 90.243 210.391 90.2939 210.263 90.2939Z" fill="#3F3D56"/>
</svg>
