<svg width="401" height="330" viewBox="0 0 401 330" fill="none" xmlns="http://www.w3.org/2000/svg">
<path d="M298.699 316.58C311.318 326.331 327.174 330.952 343.073 329.514C358.972 328.075 373.735 320.683 384.388 308.825C395.041 296.968 400.794 281.526 400.488 265.609C400.183 249.691 393.842 234.48 382.741 223.038L298.699 316.58Z" fill="#F2F2F2"/>
<path d="M144.301 98.0991L66.2803 183.87C70.5379 193.097 76.9636 201.165 85.0126 207.39L169.055 113.849C162.159 106.733 153.678 101.337 144.301 98.0991Z" fill="#F2F2F2"/>
<path d="M143.988 98.1442V47.9905H102.928V97.9891C116.253 93.4978 130.697 93.5524 143.988 98.1442Z" fill="#0582CA"/>
<path d="M102.928 216.37V267.69H143.988V216.215C130.697 220.807 116.253 220.862 102.928 216.37Z" fill="#0582CA"/>
<path d="M123.679 220.36C88.7447 220.36 60.3235 192.017 60.3235 157.18C60.3235 122.342 88.7447 93.9995 123.679 93.9995C158.613 93.9995 187.034 122.342 187.034 157.18C187.034 192.017 158.613 220.36 123.679 220.36ZM123.679 94.4398C88.9881 94.4398 60.765 122.585 60.765 157.18C60.765 191.774 88.9881 219.92 123.679 219.92C158.37 219.92 186.593 191.774 186.593 157.18C186.593 122.585 158.37 94.4398 123.679 94.4398Z" fill="black"/>
<path d="M79.0872 157.18C79.0872 168.973 83.7852 180.284 92.1477 188.624C100.51 196.963 111.852 201.648 123.679 201.648V112.712C111.852 112.712 100.51 117.397 92.1477 125.736C83.7852 134.075 79.0872 145.386 79.0872 157.18Z" fill="#575A89"/>
<path d="M123.679 112.712V201.648C135.505 201.648 146.847 196.963 155.21 188.624C163.572 180.284 168.27 168.973 168.27 157.18C168.27 145.386 163.572 134.075 155.21 125.736C146.847 117.397 135.505 112.712 123.679 112.712Z" fill="#0582CA"/>
<path d="M123.679 165.545C127.093 165.545 129.86 162.785 129.86 159.381C129.86 155.977 127.093 153.217 123.679 153.217C120.265 153.217 117.498 155.977 117.498 159.381C117.498 162.785 120.265 165.545 123.679 165.545Z" fill="#2F2E41"/>
<path d="M123.668 136.776L125.208 148.959L126.748 161.142H123.668H120.588L122.128 148.959L123.668 136.776Z" fill="#2F2E41"/>
<path d="M160.533 159.727L140.44 160.477L120.346 161.226L120.357 159.475L120.369 157.725L140.451 158.726L160.533 159.727Z" fill="#2F2E41"/>
<path d="M189.242 162.463C188.219 162.463 187.807 161.763 187.284 160.876C187.154 160.655 187.012 160.414 186.848 160.161L187.22 159.922C187.387 160.182 187.532 160.427 187.665 160.653C188.185 161.536 188.472 162.023 189.242 162.023C191.798 162.023 193.877 157.776 193.877 152.557C193.877 147.337 191.798 143.091 189.242 143.091C187.766 143.091 186.74 143.999 185.914 146.035L185.505 145.87C186.407 143.643 187.56 142.65 189.242 142.65C192.041 142.65 194.319 147.094 194.319 152.557C194.319 158.019 192.041 162.463 189.242 162.463Z" fill="black"/>
<path d="M129.86 314.359C163.021 314.359 189.904 313.374 189.904 312.158C189.904 310.942 163.021 309.957 129.86 309.957C96.6984 309.957 69.8157 310.942 69.8157 312.158C69.8157 313.374 96.6984 314.359 129.86 314.359Z" fill="#F2F2F2"/>
<path d="M342.222 79.6906C347.342 79.6906 351.493 75.5511 351.493 70.4447C351.493 65.3384 347.342 61.1989 342.222 61.1989C337.101 61.1989 332.95 65.3384 332.95 70.4447C332.95 75.5511 337.101 79.6906 342.222 79.6906Z" fill="#F2F2F2"/>
<path d="M63.6347 2.61722e-05C53.0536 0.00393191 42.6432 2.65878 33.3592 7.72079C24.0752 12.7828 16.2153 20.0897 10.5013 28.9706C4.78722 37.8514 1.40214 48.0216 0.656871 58.5471C-0.0883933 69.0727 1.83005 79.6163 6.23602 89.2097L84.2568 3.43907C77.6227 1.15597 70.6528 -0.00635993 63.6347 2.61722e-05Z" fill="#F2F2F2"/>
<path d="M273.408 116.98C281.025 116.98 287.199 110.823 287.199 103.227C287.199 95.6314 281.025 89.4739 273.408 89.4739C265.791 89.4739 259.616 95.6314 259.616 103.227C259.616 110.823 265.791 116.98 273.408 116.98Z" fill="#2F2E41"/>
<path d="M250.206 189.445C250.206 189.445 261.217 217.185 262.376 217.185C263.535 217.185 265.274 206.783 265.274 206.783L258.319 187.133L250.206 189.445Z" fill="#FFB9B9"/>
<path d="M266.433 113.737C266.433 113.737 269.33 125.873 268.171 128.185C267.012 130.497 270.489 133.964 270.489 133.964H278.603L284.398 124.717L285.557 120.672C285.557 120.672 282.08 111.425 282.659 110.269C283.239 109.113 266.433 113.737 266.433 113.737Z" fill="#FFB9B9"/>
<path opacity="0.1" d="M266.433 113.737C266.433 113.737 269.33 125.873 268.171 128.185C267.012 130.497 270.489 133.964 270.489 133.964H278.603L284.398 124.717L285.557 120.672C285.557 120.672 282.08 111.425 282.659 110.269C283.239 109.113 266.433 113.737 266.433 113.737Z" fill="black"/>
<path d="M298.886 310.231V316.589L306.42 318.322L307 310.231H298.886Z" fill="#575A89"/>
<path d="M268.171 196.38C268.171 196.38 260.058 210.828 262.955 218.341C265.853 225.854 276.864 262.841 276.864 262.841C276.864 262.841 283.239 283.647 283.239 284.803C283.239 285.958 288.455 311.387 290.193 311.965C291.932 312.543 307.579 314.277 308.159 312.543C308.738 310.809 309.318 301.562 307.579 299.829C305.841 298.095 296.568 244.348 296.568 244.348L295.409 226.432L309.897 270.932C309.897 270.932 313.954 297.517 315.693 299.251C317.431 300.984 312.215 302.718 313.954 304.452C315.693 306.186 322.067 310.809 321.488 312.543C320.908 314.277 335.397 314.277 337.135 313.121C338.874 311.965 338.294 294.049 338.294 294.049L330.181 269.777L320.908 210.828C320.908 210.828 318.011 193.49 315.693 193.49C313.374 193.49 268.171 196.38 268.171 196.38Z" fill="#2F2E41"/>
<path d="M300.625 314.277C300.625 314.277 295.989 310.231 293.67 311.387C291.352 312.543 283.818 323.524 281.5 322.946C279.182 322.368 275.705 329.165 281.5 329.743C287.296 330.321 296.568 329.165 296.568 329.165C298.485 329.483 300.421 329.676 302.363 329.743C304.681 329.743 309.897 330.321 309.897 329.743C309.897 329.165 308.738 316.011 308.159 316.011C307.579 316.011 301.204 316.011 300.625 314.277Z" fill="#2F2E41"/>
<path d="M332.499 310.231C332.499 310.231 326.704 309.075 326.124 310.231C325.545 311.387 323.227 314.855 323.227 315.433C323.227 316.011 324.386 322.946 324.386 323.524C324.386 324.101 325.545 325.835 326.704 326.991C327.031 327.267 327.263 327.639 327.367 328.054C327.471 328.469 327.442 328.906 327.283 329.303C327.283 329.303 342.351 331.037 342.351 328.725C342.351 326.413 340.612 321.212 339.453 320.056C338.294 318.9 335.976 310.809 332.499 310.231Z" fill="#2F2E41"/>
<path d="M273.387 118.938C280.108 118.938 285.557 113.504 285.557 106.802C285.557 100.099 280.108 94.6652 273.387 94.6652C266.666 94.6652 261.217 100.099 261.217 106.802C261.217 113.504 266.666 118.938 273.387 118.938Z" fill="#FFB9B9"/>
<path d="M268.751 128.763C268.751 128.763 275.705 132.808 279.762 126.451C283.818 120.094 296.568 139.165 296.568 139.165L300.045 198.114C300.045 198.114 293.67 198.692 282.659 201.581C271.648 204.471 266.433 197.536 266.433 197.536L265.853 164.016L267.012 148.412L265.273 135.698L266.433 128.185L268.751 128.763Z" fill="#0582CA"/>
<path d="M256.001 136.276C256.001 136.276 251.365 137.432 250.206 145.523C249.047 153.614 246.729 177.886 246.729 177.886L249.626 192.335C249.626 192.335 257.74 185.977 260.637 188.867L258.899 180.198L260.637 174.997L255.421 152.458L256.001 136.276Z" fill="#0582CA"/>
<path d="M267.527 118.938C267.527 118.938 266.433 118.938 266.433 122.983C266.433 127.029 255.421 132.808 255.421 132.808C255.421 132.808 254.262 134.542 254.262 139.165C254.262 143.789 254.262 154.769 255.421 158.237C256.581 161.704 258.319 173.263 258.899 174.419C259.478 175.575 259.478 180.776 258.319 181.932C257.16 183.088 261.217 190.023 262.376 190.601C263.535 191.179 258.319 206.205 261.217 206.783C264.114 207.361 269.33 199.848 271.069 195.802C272.807 191.757 271.648 135.698 271.069 131.652C270.489 127.607 267.527 118.938 267.527 118.938Z" fill="#575A89"/>
<path d="M283.673 115.219C283.673 115.219 283.239 112.581 286.137 114.893C289.034 117.204 289.614 118.938 289.614 118.938C289.614 118.938 304.681 118.938 305.261 120.672C305.841 122.406 304.916 137.16 304.916 137.16L312.531 165.397C312.531 165.397 323.226 198.114 324.385 199.27C325.545 200.426 315.113 194.068 309.318 198.692C303.522 203.315 293.091 205.627 291.932 202.737C290.773 199.848 278.023 132.808 278.023 132.808C278.023 132.808 278.023 121.828 279.762 120.672C281.5 119.516 283.673 115.219 283.673 115.219Z" fill="#575A89"/>
<path d="M314.533 169.795L312.215 196.38L311.636 198.692L320.329 210.25C320.329 210.25 322.067 203.893 321.488 201.581C320.908 199.27 324.385 173.263 324.385 173.263L314.533 169.795Z" fill="#FFB9B9"/>
<path d="M263.858 98.1743C263.858 98.1743 261.042 90.8737 265.125 88.4869L266.251 91.7161C266.251 91.7161 276.529 85.5386 279.204 86.9426L276.67 90.3121C276.67 90.3121 288.636 90.3121 289.481 94.9452L285.258 95.0856C285.258 95.0856 289.763 98.0339 289.904 102.807L280.893 103.369L285.258 105.896C285.258 105.896 268.926 108.142 264.984 101.684L263.858 98.1743Z" fill="#2F2E41"/>
<path d="M261.419 98.463C261.419 98.463 264.664 104.935 268.991 103.317C273.318 101.699 268.991 95.7662 268.991 95.7662L266.107 94.328L261.419 98.463Z" fill="#2F2E41"/>
<path d="M365.621 329.549H239.352V329.99H365.621V329.549Z" fill="black"/>
<path d="M304.102 121.828C304.102 121.828 307.579 122.406 309.897 126.451C312.215 130.497 323.806 157.081 324.386 158.237C324.965 159.393 324.965 174.997 324.965 174.997C324.965 174.997 316.852 170.373 313.375 173.263L312.795 166.328L305.261 139.743L304.102 131.074L304.102 121.828Z" fill="#0582CA"/>
</svg>
