<svg width="401" height="310" viewBox="0 0 401 310" fill="none" xmlns="http://www.w3.org/2000/svg">
<path d="M306.707 282.221C318.47 282.221 328.006 262.764 328.006 238.763C328.006 214.762 318.47 195.305 306.707 195.305C294.944 195.305 285.409 214.762 285.409 238.763C285.409 262.764 294.944 282.221 306.707 282.221Z" fill="#090814"/>
<path d="M304.741 309.897C313.271 258.717 304.828 207.721 304.741 207.212L303.081 207.493C303.169 208 311.563 258.727 303.081 309.621L304.741 309.897Z" fill="#CACACA"/>
<path d="M287.954 229.42L287.16 230.904L306.42 241.206L307.214 239.722L287.954 229.42Z" fill="#CACACA"/>
<path d="M326.747 234.58L307.49 244.888L308.284 246.372L327.542 236.064L326.747 234.58Z" fill="#CACACA"/>
<path d="M357.882 254.983C380.889 254.983 399.54 216.928 399.54 169.985C399.54 123.042 380.889 84.9867 357.882 84.9867C334.875 84.9867 316.224 123.042 316.224 169.985C316.224 216.928 334.875 254.983 357.882 254.983Z" fill="#E6E6E6"/>
<path d="M353.242 308.982C369.904 209.011 353.41 109.404 353.242 108.41L351.582 108.691C351.75 109.683 368.196 209.022 351.582 308.705L353.242 308.982Z" fill="#CACACA"/>
<path d="M320.824 152.418L320.03 153.902L357.701 174.052L358.495 172.568L320.824 152.418Z" fill="#CACACA"/>
<path d="M397.458 162.507L359.793 182.667L360.587 184.151L398.252 163.991L397.458 162.507Z" fill="#CACACA"/>
<path d="M261.132 309.249H39.5512C38.7362 309.248 37.9549 308.924 37.3786 308.347C36.8024 307.771 36.4782 306.99 36.4773 306.175V166.163C36.4782 165.348 36.8024 164.567 37.3786 163.99C37.9549 163.414 38.7362 163.09 39.5512 163.089H261.132C261.947 163.09 262.729 163.414 263.305 163.99C263.881 164.567 264.205 165.348 264.206 166.163V306.175C264.205 306.99 263.881 307.771 263.305 308.347C262.728 308.923 261.947 309.248 261.132 309.249Z" fill="#E4E4E4"/>
<path d="M59.9299 180.055C59.5805 180.055 59.2454 180.194 58.9984 180.441C58.7513 180.688 58.6125 181.023 58.6125 181.373V290.965C58.6125 291.315 58.7513 291.65 58.9984 291.897C59.2454 292.144 59.5805 292.283 59.9299 292.283H240.755C241.104 292.283 241.439 292.144 241.686 291.897C241.933 291.65 242.072 291.315 242.072 290.965V181.373C242.072 181.023 241.933 180.688 241.686 180.441C241.439 180.194 241.104 180.055 240.755 180.055H59.9299Z" fill="white"/>
<path d="M242.511 208.282V201.337H216.939V179.616H209.995V201.337H164.469V179.616H157.524V201.337H87.3061V179.616H80.3613V201.337H56.0801V208.282H80.3609V235.288H56.0801V242.233H80.3609V271.171H56.0801V278.116H117.785V292.721H124.73V278.114H157.524V292.721H164.468V278.114H242.511V271.17H164.469V242.232H242.511V235.289H216.939V208.283L242.511 208.282ZM157.524 208.282V216.77H87.3061V208.282H157.524ZM87.3061 223.713H157.524V235.288H87.3061V223.713ZM87.3061 271.168V242.23H117.786V271.168H87.3061ZM157.524 271.168H124.73V242.23H157.524L157.524 271.168ZM209.995 235.288H164.469V208.282H209.995L209.995 235.288Z" fill="#E6E6E6"/>
<path d="M160.997 248.514C165.897 248.514 169.87 244.541 169.87 239.64C169.87 234.739 165.897 230.766 160.997 230.766C156.096 230.766 152.123 234.739 152.123 239.64C152.123 244.541 156.096 248.514 160.997 248.514Z" fill="#0582CA"/>
<path d="M400.327 310.002H0.5V309.044H400.5L400.327 310.002Z" fill="#CACACA"/>
<path d="M162.06 186.925C192.291 186.925 216.799 162.418 216.799 132.187C216.799 101.955 192.291 77.4479 162.06 77.4479C131.829 77.4479 107.321 101.955 107.321 132.187C107.321 162.418 131.829 186.925 162.06 186.925Z" fill="#0582CA"/>
<path d="M161.353 221.17L144.06 191.629L126.766 162.087L160.997 161.881L195.227 161.675L178.288 191.423L161.353 221.17Z" fill="#0582CA"/>
<path d="M162.499 151.481C173.346 151.481 182.138 142.688 182.138 131.842C182.138 120.995 173.346 112.203 162.499 112.203C151.653 112.203 142.86 120.995 142.86 131.842C142.86 142.688 151.653 151.481 162.499 151.481Z" fill="white"/>
<path d="M160.794 0.702003C160.794 0.702003 149.081 -2.59756 145.617 13.4049C142.153 29.4074 144.353 27.391 144.353 27.391L170.501 24.3391C170.501 24.3391 178.363 5.56836 160.794 0.702003Z" fill="#090814"/>
<path d="M143.76 70.9041C143.76 70.9041 126.089 71.7221 129.149 78.6585C129.365 79.1489 129.567 79.6082 129.753 80.0365C131.94 85.0606 134.458 89.9342 137.29 94.6254L148.151 112.621L152.103 110.425L140.981 81.5146L150.978 80.6987L143.76 70.9041Z" fill="#FFB6B6"/>
<path d="M164.711 20.3602C164.711 20.3602 166.343 28.9288 167.771 30.1527C169.199 31.3765 156.959 33.2129 156.959 33.2129C156.959 33.2129 158.795 27.2966 156.551 24.2364C154.307 21.1761 164.711 20.3602 164.711 20.3602Z" fill="#FFB9B9"/>
<path d="M190.352 78.2506L196.064 90.6953C196.064 90.6953 200.348 94.9794 205.041 112.117C209.733 129.254 210.753 128.642 210.753 128.642L206.115 130.186L187.088 95.592L177.703 83.7594L180.558 77.436L190.352 78.2506Z" fill="#FFB6B6"/>
<path d="M183.416 63.9698L191.625 79.2478C191.625 79.2478 206.67 109.292 204.747 109.17C202.585 109.034 197.564 111.578 195.701 114.025C194.801 115.205 184.161 92.8588 179.541 86.4112L169.542 78.6585C169.542 78.6585 141.159 83.4357 141.124 81.8821C141.107 81.1211 147.849 95.0017 145.918 94.1929C143.717 93.2707 139.529 98.347 137.246 97.4187C136.304 97.0357 131.333 84.6872 128.639 78.0762C128.301 77.2509 128.284 76.3292 128.59 75.4916C128.896 74.6541 129.504 73.9611 130.295 73.5484C132.319 72.4945 160.446 66.0732 160.446 66.0732L159.954 63.561L161.995 59.4816L183.416 63.9698Z" fill="#090814"/>
<path d="M166.584 18.9328C167.288 14.5953 164.342 10.5085 160.005 9.80463C155.667 9.10079 151.581 12.0464 150.877 16.3839C150.173 20.7214 153.119 24.8082 157.456 25.5121C161.794 26.2159 165.88 23.2703 166.584 18.9328Z" fill="#FFB6B6"/>
<path d="M184.159 65.1955C184.598 66.5128 181.753 67.2708 177.787 66.53C174.355 65.8893 170.6 65.1283 167.637 64.5122C164.465 63.8513 162.198 63.3573 162.198 63.3573C162.198 63.3573 161.383 68.4577 158.729 67.8456C156.446 67.3186 149.616 43.4686 147.77 36.8769C147.635 36.3956 147.661 35.8834 147.844 35.4182C148.027 34.953 148.357 34.5604 148.784 34.3001L158.162 28.5735C158.162 28.5735 164.625 26.3538 166.981 26.2901C169.338 26.2264 173.418 25.6147 173.418 25.6147C173.418 25.6147 178.11 26.0227 178.926 29.4909C179.743 32.9591 183.148 53.5223 183.21 58.4602C183.281 63.8781 182.842 61.2434 184.159 65.1955Z" fill="#D6D6E3"/>
<path d="M161.705 7.43903C161.705 7.43903 158.406 16.1824 150.322 19.8117L149.002 12.0564L161.705 7.43903Z" fill="#2F2E41"/>
<path d="M166.483 16.7414C167.103 16.7414 167.605 15.7824 167.605 14.5994C167.605 13.4164 167.103 12.4573 166.483 12.4573C165.863 12.4573 165.361 13.4164 165.361 14.5994C165.361 15.7824 165.863 16.7414 166.483 16.7414Z" fill="#FFB6B6"/>
<path d="M164.697 84.263C165.089 83.8262 165.379 83.3088 165.549 82.7474C165.719 82.186 165.763 81.5943 165.68 81.0138C165.596 80.4333 165.386 79.8783 165.064 79.3877C164.743 78.8972 164.318 78.4831 163.819 78.1746L156.724 42.3308L148.575 45.4486L158.113 79.7001C157.648 80.5727 157.519 81.5858 157.752 82.5468C157.985 83.5079 158.563 84.3499 159.376 84.9129C160.189 85.4759 161.18 85.7207 162.161 85.6007C163.143 85.4807 164.046 85.0044 164.7 84.2622L164.697 84.263Z" fill="#FFB6B6"/>
<path d="M158.52 48.3719L149.573 49.9479C149.318 49.9924 149.057 49.9816 148.807 49.9163C148.557 49.8509 148.324 49.7326 148.124 49.5692C147.924 49.4058 147.761 49.2012 147.647 48.9694C147.533 48.7376 147.47 48.4839 147.463 48.2256L147.216 39.1714C147.104 38.5249 147.121 37.8628 147.265 37.2227C147.409 36.5827 147.677 35.9772 148.055 35.441C148.433 34.9048 148.913 34.4483 149.468 34.0975C150.022 33.7467 150.64 33.5086 151.286 33.3967C151.933 33.2848 152.595 33.3013 153.235 33.4453C153.875 33.5893 154.481 33.858 155.017 34.2359C155.553 34.6139 156.01 35.0938 156.36 35.6482C156.711 36.2026 156.949 36.8207 157.061 37.4671L159.915 46.0322C159.997 46.2775 160.024 46.5375 159.996 46.7944C159.968 47.0514 159.885 47.2992 159.753 47.5212C159.62 47.7432 159.442 47.9341 159.229 48.0808C159.016 48.2276 158.774 48.3269 158.52 48.3719Z" fill="#D6D6E3"/>
<path d="M171.557 83.6334C172.068 83.345 172.509 82.9482 172.85 82.4709C173.191 81.9936 173.423 81.4474 173.53 80.8707C173.637 80.2941 173.616 79.701 173.468 79.1333C173.321 78.5656 173.052 78.037 172.678 77.5849L177.451 41.3573L168.733 41.6972L166.783 77.1998C166.063 77.8772 165.617 78.7953 165.53 79.7798C165.443 80.7642 165.72 81.7465 166.309 82.5401C166.898 83.3338 167.758 83.8835 168.725 84.0851C169.693 84.2866 170.7 84.1258 171.557 83.6334Z" fill="#FFB6B6"/>
<path d="M177.215 47.6551L168.235 46.2789C167.979 46.2395 167.735 46.1456 167.519 46.0035C167.304 45.8615 167.121 45.6746 166.984 45.4556C166.846 45.2367 166.758 44.9907 166.724 44.7346C166.69 44.4784 166.712 44.2179 166.788 43.9709L169.458 35.3158C169.662 34.0067 170.378 32.8326 171.449 32.0516C172.519 31.2706 173.856 30.9468 175.165 31.1514C176.474 31.3559 177.648 32.0721 178.429 33.1424C179.21 34.2127 179.534 35.5494 179.329 36.8584L179.285 45.8863C179.283 46.1447 179.226 46.3998 179.117 46.6341C179.008 46.8684 178.85 47.0766 178.654 47.2444C178.457 47.4122 178.227 47.5357 177.979 47.6066C177.73 47.6774 177.469 47.694 177.214 47.6551H177.215Z" fill="#D6D6E3"/>
<path d="M149.34 111.986C149.34 111.986 145.848 109.935 145.477 113.626L144.735 121.007C144.735 121.007 139.536 126.748 143.999 126.791C148.463 126.834 154.718 118.479 154.718 118.479C154.718 118.479 159.26 111.992 157.609 111.325C155.958 110.658 151.174 107.447 151.281 108.769C151.387 110.09 149.34 111.986 149.34 111.986Z" fill="#090814"/>
<path d="M210.765 127.787C210.765 127.787 206.099 126.587 205.033 128.454C203.966 130.32 204.232 136.453 204.232 136.586C204.232 136.719 205.833 138.054 206.368 138.054C206.903 138.054 210.232 144.053 214.767 141.918C219.302 139.783 210.765 127.787 210.765 127.787Z" fill="#090814"/>
</svg>
