<svg width="24" height="24" viewBox="0 0 24 24" fill="none" xmlns="http://www.w3.org/2000/svg">
<path d="M18.2768 18H6.72318C5.95536 18 5.47399 17.1705 5.85494 16.5039L6.71978 14.9904C6.90301 14.6697 6.99314 14.3057 6.99519 13.9364C7.00041 12.9991 7.06849 11.098 7.5 9.83333C7.70509 9.23226 7.98883 8.49229 8.25438 7.8233C8.73432 6.61424 9.44552 5.48143 10.5318 4.7657C11.1552 4.3549 11.8748 4 12.5 4C13.1252 4 13.8448 4.3549 14.4682 4.7657C15.5545 5.48143 16.2657 6.61424 16.7456 7.8233C17.0112 8.49229 17.2949 9.23226 17.5 9.83333C17.9315 11.098 17.9996 12.9991 18.0048 13.9364C18.0069 14.3057 18.097 14.6697 18.2802 14.9904L19.1451 16.5039C19.526 17.1705 19.0446 18 18.2768 18Z" stroke="#111111"/>
<path d="M10 18C10 18 10.4901 18.9288 11 19.3333C11.5021 19.7318 11.859 20 12.5 20C13.141 20 13.4979 19.7318 14 19.3333C14.5099 18.9288 15 18 15 18" stroke="#111111"/>
</svg>
