<svg width="24" height="24" viewBox="0 0 24 24" fill="none" xmlns="http://www.w3.org/2000/svg">
<path d="M3 10H21" stroke="#111111"/>
<path d="M19 22H5C3.89543 22 3 21.1046 3 20V8C3 6.89543 3.89543 6 5 6H19C20.1046 6 21 6.89543 21 8V20C21 21.1046 20.1046 22 19 22Z" stroke="#111111"/>
<path d="M11.29 16.91H11.61V19.01L7.25 19L7.34 17.57C8.35333 17.2167 9.13 16.8 9.67 16.32C10.21 15.84 10.48 15.35 10.48 14.85C10.48 14.5633 10.3767 14.34 10.17 14.18C9.96333 14.0133 9.69333 13.93 9.36 13.93C9.09333 13.93 8.82 13.9667 8.54 14.04C8.26667 14.1133 8.01333 14.2167 7.78 14.35L7.81 14.77L7.49 14.82L7.22 12.86C7.52 12.6533 7.91 12.4833 8.39 12.35C8.87667 12.2167 9.33667 12.15 9.77 12.15C10.4033 12.15 10.9133 12.3033 11.3 12.61C11.6867 12.91 11.88 13.3367 11.88 13.89C11.88 14.4367 11.6967 14.97 11.33 15.49C10.9633 16.0033 10.4967 16.4533 9.93 16.84C9.37 17.2267 8.79667 17.5133 8.21 17.7L11.26 17.3L11.29 16.91ZM16.4068 17.49L16.3968 18.62L16.9668 18.65V19H14.4868V18.65L15.0568 18.62V17.49L11.6668 17.5L14.9968 12.54L16.4468 12.17L16.4168 15.97H17.8968L17.3968 17.49H16.4068ZM15.0568 15.97V13.69L13.2068 15.97H15.0568Z" fill="#111111"/>
<path d="M8 6V2" stroke="#111111"/>
<path d="M16 6V2" stroke="#111111"/>
</svg>
