<svg width="401" height="259" viewBox="0 0 401 259" fill="none" xmlns="http://www.w3.org/2000/svg">
<path d="M343.895 204.007H43.7368C41.6882 204.004 39.7243 203.189 38.2757 201.741C36.8271 200.292 36.0122 198.328 36.0095 196.28V11.195C36.0112 9.69393 36.6083 8.2548 37.6697 7.19337C38.7311 6.13193 40.1703 5.53489 41.6713 5.5332H345.864C347.391 5.53489 348.855 6.14228 349.935 7.22212C351.015 8.30197 351.622 9.76607 351.624 11.2932V196.279C351.621 198.327 350.806 200.291 349.358 201.74C347.909 203.188 345.945 204.003 343.897 204.006L343.895 204.007Z" fill="#F2F2F2"/>
<path d="M332.946 194.467H53.2063C49.1054 194.467 45.7695 191.343 45.7695 187.503V26.33C45.7695 23.4823 48.2418 21.165 51.2804 21.165H334.78C337.871 21.165 340.383 23.52 340.383 26.415V187.503C340.383 191.343 337.047 194.467 332.946 194.467Z" fill="white"/>
<path d="M351.516 12.1578H35.9V8.22325C35.9029 6.16744 36.7211 4.19673 38.1752 2.74348C39.6293 1.29022 41.6005 0.473119 43.6563 0.471436H343.76C345.815 0.473119 347.787 1.29022 349.241 2.74348C350.695 4.19673 351.513 6.16744 351.516 8.22325L351.516 12.1578Z" fill="#0582CA"/>
<path d="M49.9959 8.3328C51.1039 8.3328 52.0022 7.43452 52.0022 6.32643C52.0022 5.21835 51.1039 4.32007 49.9959 4.32007C48.8878 4.32007 47.9895 5.21835 47.9895 6.32643C47.9895 7.43452 48.8878 8.3328 49.9959 8.3328Z" fill="white"/>
<path d="M57.6118 8.3328C58.7199 8.3328 59.6181 7.43452 59.6181 6.32643C59.6181 5.21835 58.7199 4.32007 57.6118 4.32007C56.5037 4.32007 55.6054 5.21835 55.6054 6.32643C55.6054 7.43452 56.5037 8.3328 57.6118 8.3328Z" fill="white"/>
<path d="M65.2268 8.3328C66.3348 8.3328 67.2331 7.43452 67.2331 6.32643C67.2331 5.21835 66.3348 4.32007 65.2268 4.32007C64.1187 4.32007 63.2204 5.21835 63.2204 6.32643C63.2204 7.43452 64.1187 8.3328 65.2268 8.3328Z" fill="white"/>
<path d="M184.801 173.673H87.4527C85.2795 173.67 83.196 172.806 81.6593 171.269C80.1226 169.733 79.2583 167.649 79.2559 165.476V47.8396C79.2574 46.2142 79.9037 44.6559 81.053 43.5066C82.2022 42.3572 83.7605 41.7108 85.3859 41.7091H186.769C188.42 41.7113 190.003 42.3681 191.17 43.5354C192.338 44.7028 192.995 46.2855 192.997 47.9364V165.475C192.995 167.648 192.13 169.732 190.594 171.269C189.057 172.805 186.974 173.67 184.801 173.673ZM85.3859 42.6446C84.0086 42.6457 82.688 43.1931 81.714 44.1668C80.7399 45.1405 80.192 46.4609 80.1904 47.8382V165.475C80.1926 167.399 80.9582 169.245 82.3192 170.606C83.6802 171.967 85.5256 172.732 87.4504 172.735H184.801C186.726 172.732 188.571 171.967 189.932 170.606C191.293 169.245 192.059 167.399 192.061 165.475V47.9364C192.059 46.5335 191.501 45.1885 190.509 44.1966C189.517 43.2046 188.172 42.6466 186.769 42.645L85.3859 42.6446Z" fill="#CCCCCC"/>
<path d="M94.9468 165.475H177.307C179.294 165.475 181.201 164.686 182.606 163.28C184.011 161.875 184.801 159.969 184.801 157.981V57.4901C184.801 56.5059 184.607 55.5314 184.23 54.6222C183.854 53.713 183.302 52.8868 182.606 52.1909C181.91 51.4951 181.084 50.943 180.175 50.5664C179.265 50.1898 178.291 49.996 177.307 49.996H94.9468C93.9627 49.996 92.9881 50.1898 92.0789 50.5664C91.1697 50.943 90.3436 51.4951 89.6477 52.1909C88.9518 52.8868 88.3998 53.713 88.0231 54.6222C87.6465 55.5314 87.4527 56.5059 87.4527 57.4901V157.981C87.4527 159.969 88.2422 161.875 89.6477 163.28C91.0531 164.686 92.9592 165.475 94.9468 165.475Z" fill="#E6E6E6"/>
<path d="M158.843 70.4991H113.41C112.602 70.4991 111.828 70.1783 111.256 69.6071C110.685 69.036 110.365 68.2614 110.365 67.4536C110.365 66.6459 110.685 65.8713 111.256 65.3002C111.828 64.7291 112.602 64.4082 113.41 64.4082H158.843C159.651 64.4082 160.425 64.7291 160.997 65.3002C161.568 65.8713 161.889 66.6459 161.889 67.4536C161.889 68.2614 161.568 69.036 160.997 69.6071C160.425 70.1783 159.651 70.4991 158.843 70.4991Z" fill="#0582CA"/>
<path d="M158.843 136.541H113.41C113.01 136.541 112.614 136.462 112.245 136.309C111.875 136.156 111.539 135.932 111.256 135.649C110.974 135.366 110.749 135.03 110.596 134.661C110.443 134.291 110.365 133.895 110.365 133.496C110.365 133.096 110.443 132.7 110.596 132.33C110.749 131.961 110.974 131.625 111.256 131.342C111.539 131.059 111.875 130.835 112.245 130.682C112.614 130.529 113.01 130.45 113.41 130.45H158.843C159.651 130.45 160.425 130.771 160.997 131.342C161.568 131.913 161.889 132.688 161.889 133.496C161.889 134.303 161.568 135.078 160.997 135.649C160.425 136.22 159.651 136.541 158.843 136.541Z" fill="white"/>
<path d="M158.843 151.061H113.41C112.602 151.061 111.828 150.74 111.256 150.169C110.685 149.598 110.365 148.823 110.365 148.016C110.365 147.208 110.685 146.433 111.256 145.862C111.828 145.291 112.602 144.97 113.41 144.97H158.843C159.651 144.97 160.425 145.291 160.997 145.862C161.568 146.433 161.889 147.208 161.889 148.016C161.889 148.823 161.568 149.598 160.997 150.169C160.425 150.74 159.651 151.061 158.843 151.061Z" fill="white"/>
<path d="M136.36 115.229C146.449 115.229 154.627 107.051 154.627 96.9624C154.627 86.8739 146.449 78.6956 136.36 78.6956C126.272 78.6956 118.094 86.8739 118.094 96.9624C118.094 107.051 126.272 115.229 136.36 115.229Z" fill="white"/>
<path d="M253.871 80.2237L245.891 81.9055C245.821 81.9204 245.755 81.9513 245.699 81.9957C245.642 82.0401 245.597 82.0969 245.566 82.1617C245.535 82.2265 245.519 82.2976 245.52 82.3694C245.521 82.4412 245.538 82.5119 245.57 82.576L246.314 84.041L210.228 102.359C210.117 102.415 210.033 102.513 209.994 102.631C209.956 102.75 209.966 102.878 210.022 102.989C210.078 103.1 210.176 103.184 210.294 103.222C210.412 103.261 210.541 103.251 210.652 103.195L246.738 84.8764L247.482 86.3414C247.514 86.4055 247.561 86.4612 247.619 86.5043C247.676 86.5474 247.743 86.5766 247.813 86.5898C247.884 86.603 247.957 86.5998 248.026 86.5803C248.095 86.5609 248.159 86.5258 248.212 86.4778L254.28 81.0305C254.357 80.9617 254.409 80.8695 254.428 80.7682C254.447 80.6668 254.432 80.562 254.385 80.4701C254.339 80.3781 254.263 80.3041 254.17 80.2596C254.077 80.215 253.972 80.2024 253.871 80.2237Z" fill="#E6E6E6"/>
<path d="M253.871 125.754L245.891 124.072C245.821 124.057 245.755 124.027 245.699 123.982C245.642 123.938 245.597 123.881 245.566 123.816C245.535 123.751 245.519 123.68 245.52 123.609C245.521 123.537 245.538 123.466 245.57 123.402L246.314 121.937L210.228 103.619C210.117 103.563 210.033 103.465 209.994 103.346C209.956 103.228 209.966 103.1 210.022 102.989C210.078 102.878 210.176 102.794 210.294 102.756C210.412 102.717 210.541 102.727 210.652 102.783L246.738 121.101L247.482 119.636C247.514 119.572 247.561 119.517 247.619 119.474C247.676 119.431 247.743 119.401 247.813 119.388C247.884 119.375 247.957 119.378 248.026 119.398C248.095 119.417 248.159 119.452 248.212 119.5L254.28 124.947C254.356 125.016 254.408 125.108 254.427 125.209C254.446 125.31 254.431 125.415 254.384 125.507C254.338 125.599 254.262 125.673 254.169 125.717C254.077 125.762 253.972 125.775 253.871 125.754V125.754Z" fill="#E6E6E6"/>
<path d="M280.173 90.6465C278.135 90.6465 276.143 90.0421 274.448 88.9098C272.754 87.7775 271.433 86.1682 270.653 84.2853C269.873 82.4024 269.669 80.3305 270.067 78.3316C270.464 76.3327 271.446 74.4966 272.887 73.0555C274.328 71.6144 276.164 70.633 278.163 70.2354C280.162 69.8378 282.234 70.0418 284.117 70.8218C285.999 71.6017 287.609 72.9224 288.741 74.617C289.873 76.3116 290.478 78.3039 290.478 80.3419C290.478 83.0748 289.392 85.6958 287.46 87.6283C285.527 89.5608 282.906 90.6465 280.173 90.6465ZM280.173 70.9742C278.32 70.9742 276.509 71.5236 274.969 72.5529C273.428 73.5823 272.228 75.0453 271.518 76.757C270.809 78.4688 270.624 80.3523 270.985 82.1695C271.347 83.9866 272.239 85.6558 273.549 86.9659C274.859 88.276 276.528 89.1682 278.346 89.5296C280.163 89.8911 282.046 89.7056 283.758 88.9966C285.47 88.2875 286.933 87.0869 287.962 85.5463C288.991 84.0058 289.541 82.1947 289.541 80.3419C289.541 77.8574 288.554 75.4747 286.797 73.7179C285.04 71.9611 282.658 70.9742 280.173 70.9742Z" fill="#E6E6E6"/>
<path d="M280.173 136.08C278.135 136.08 276.143 135.475 274.448 134.343C272.754 133.211 271.433 131.601 270.653 129.718C269.873 127.835 269.669 125.764 270.067 123.765C270.464 121.766 271.446 119.93 272.887 118.489C274.328 117.047 276.164 116.066 278.163 115.668C280.162 115.271 282.234 115.475 284.117 116.255C285.999 117.035 287.609 118.356 288.741 120.05C289.873 121.745 290.478 123.737 290.478 125.775C290.478 128.508 289.392 131.129 287.46 133.061C285.527 134.994 282.906 136.08 280.173 136.08ZM280.173 116.407C278.32 116.407 276.509 116.957 274.969 117.986C273.428 119.015 272.228 120.478 271.518 122.19C270.809 123.902 270.624 125.785 270.985 127.603C271.347 129.42 272.239 131.089 273.549 132.399C274.859 133.709 276.528 134.601 278.346 134.963C280.163 135.324 282.046 135.139 283.758 134.43C285.47 133.721 286.933 132.52 287.962 130.979C288.991 129.439 289.541 127.628 289.541 125.775C289.541 123.291 288.554 120.908 286.797 119.151C285.04 117.394 282.658 116.407 280.173 116.407Z" fill="#E6E6E6"/>
<path d="M279.357 85.4205C279.059 85.4216 278.769 85.3258 278.531 85.1478L278.516 85.1369L275.406 82.7578C275.259 82.6486 275.135 82.5112 275.041 82.3535C274.947 82.1958 274.886 82.021 274.86 81.8394C274.834 81.6577 274.845 81.4727 274.892 81.2953C274.939 81.1178 275.02 80.9514 275.132 80.8058C275.243 80.6602 275.383 80.5383 275.542 80.4472C275.701 80.356 275.877 80.2975 276.059 80.275C276.241 80.2525 276.426 80.2665 276.603 80.3162C276.779 80.3658 276.944 80.4501 277.088 80.5642L279.103 82.1096L283.863 75.8992C283.974 75.7552 284.111 75.6343 284.268 75.5436C284.425 75.4528 284.599 75.3938 284.779 75.3701C284.958 75.3463 285.141 75.3582 285.316 75.4051C285.492 75.4519 285.656 75.5329 285.8 75.6433L285.77 75.6842L285.801 75.6433C286.091 75.8665 286.281 76.1959 286.329 76.5591C286.377 76.9223 286.279 77.2896 286.056 77.5805L280.457 84.8819C280.328 85.0501 280.161 85.1863 279.971 85.2798C279.78 85.3732 279.57 85.4216 279.358 85.421L279.357 85.4205Z" fill="#0582CA"/>
<path d="M275.702 130.246C275.571 130.114 275.497 129.935 275.497 129.749C275.497 129.562 275.571 129.384 275.702 129.252L283.651 121.303C283.784 121.176 283.961 121.105 284.145 121.107C284.329 121.108 284.505 121.182 284.635 121.312C284.766 121.443 284.84 121.619 284.841 121.803C284.843 121.987 284.772 122.164 284.645 122.297L276.696 130.246C276.564 130.377 276.385 130.451 276.199 130.451C276.013 130.451 275.834 130.377 275.702 130.246Z" fill="#E6E6E6"/>
<path d="M284.176 130.246C284.308 130.114 284.382 129.935 284.382 129.749C284.382 129.562 284.308 129.384 284.176 129.252L276.227 121.305C276.095 121.177 275.917 121.106 275.733 121.108C275.549 121.11 275.373 121.184 275.243 121.314C275.112 121.444 275.039 121.62 275.037 121.804C275.035 121.988 275.106 122.166 275.234 122.298L283.182 130.246C283.314 130.377 283.493 130.451 283.679 130.451C283.865 130.451 284.044 130.377 284.176 130.246Z" fill="#E6E6E6"/>
<path d="M297.966 103.366C297.936 103.365 297.906 103.363 297.875 103.359C297.794 103.347 297.717 103.32 297.646 103.278C297.576 103.236 297.515 103.18 297.466 103.115L293.637 97.9783C293.621 97.9566 293.599 97.9396 293.574 97.9289C293.55 97.9183 293.522 97.9144 293.495 97.9175C293.469 97.9207 293.443 97.9309 293.421 97.947C293.4 97.9632 293.383 97.9848 293.372 98.0096L291.409 102.603C291.357 102.722 291.27 102.823 291.159 102.89C291.047 102.957 290.918 102.988 290.788 102.978C290.659 102.968 290.535 102.918 290.436 102.834C290.336 102.751 290.265 102.638 290.233 102.512L286.315 87.3478C286.284 87.228 286.29 87.1018 286.331 86.9851C286.372 86.8684 286.447 86.7666 286.546 86.6927C286.645 86.6187 286.764 86.576 286.888 86.57C287.011 86.5639 287.134 86.5948 287.24 86.6587L300.655 94.7405C300.766 94.8076 300.853 94.9079 300.905 95.0272C300.956 95.1465 300.969 95.2789 300.941 95.4058C300.914 95.5328 300.847 95.648 300.751 95.7352C300.655 95.8225 300.534 95.8774 300.405 95.8923L295.444 96.4673C295.417 96.4706 295.392 96.4808 295.37 96.4969C295.348 96.5131 295.331 96.5347 295.32 96.5596C295.31 96.5844 295.306 96.6117 295.309 96.6386C295.312 96.6655 295.322 96.6911 295.338 96.7128L299.167 101.849C299.265 101.982 299.307 102.148 299.284 102.311C299.26 102.475 299.172 102.622 299.04 102.721L298.339 103.244C298.231 103.324 298.1 103.366 297.966 103.366Z" fill="#0582CA"/>
<path d="M319.75 114.535H302.887C301.645 114.535 300.453 114.042 299.575 113.163C298.696 112.285 298.203 111.093 298.203 109.851C298.203 108.609 298.696 107.418 299.575 106.539C300.453 105.661 301.645 105.167 302.887 105.167H319.75C320.993 105.167 322.184 105.661 323.062 106.539C323.941 107.418 324.434 108.609 324.434 109.851C324.434 111.093 323.941 112.285 323.062 113.163C322.184 114.042 320.993 114.535 319.75 114.535Z" fill="#0582CA"/>
<path d="M115.405 82.1642L114.704 81.6414C114.572 81.5425 114.484 81.3953 114.461 81.232C114.437 81.0686 114.479 80.9025 114.577 80.7701L118.406 75.6337C118.422 75.612 118.432 75.5864 118.435 75.5595C118.438 75.5326 118.434 75.5053 118.424 75.4805C118.413 75.4556 118.396 75.434 118.374 75.4178C118.352 75.4017 118.327 75.3915 118.3 75.3883L113.339 74.8178C113.21 74.8028 113.089 74.7479 112.993 74.6607C112.896 74.5734 112.83 74.4583 112.802 74.3313C112.775 74.2043 112.787 74.0719 112.839 73.9526C112.89 73.8333 112.978 73.7331 113.089 73.666L126.504 65.5842C126.61 65.5204 126.732 65.4896 126.855 65.4958C126.979 65.5019 127.098 65.5446 127.197 65.6185C127.296 65.6924 127.371 65.7941 127.412 65.9107C127.453 66.0273 127.459 66.1535 127.428 66.2732L123.51 81.4373C123.478 81.5633 123.407 81.6759 123.307 81.7595C123.208 81.8432 123.084 81.8935 122.955 81.9035C122.825 81.9135 122.696 81.8828 122.584 81.8155C122.473 81.7482 122.386 81.6477 122.334 81.5283L120.371 76.9351C120.361 76.9102 120.343 76.8887 120.322 76.8725C120.3 76.8563 120.274 76.8461 120.248 76.843C120.221 76.8398 120.193 76.8437 120.169 76.8544C120.144 76.8651 120.122 76.8821 120.106 76.9037L116.277 82.0401C116.228 82.1058 116.167 82.1612 116.097 82.2031C116.026 82.245 115.949 82.2725 115.868 82.2842C115.838 82.2886 115.807 82.2909 115.777 82.291C115.643 82.291 115.513 82.2476 115.406 82.1673L115.405 82.1642Z" fill="#3F3D56"/>
<path d="M89.3054 88.7737C89.3073 87.5326 89.8012 86.3429 90.6788 85.4653C91.5564 84.5877 92.7461 84.0938 93.9872 84.0919H110.851C112.093 84.0919 113.284 84.5854 114.163 85.4638C115.041 86.3422 115.535 87.5335 115.535 88.7758C115.535 90.018 115.041 91.2094 114.163 92.0878C113.284 92.9662 112.093 93.4596 110.851 93.4596H93.9872C92.7454 93.4577 91.5551 92.9633 90.6774 92.0848C89.7997 91.2063 89.3063 90.0155 89.3054 88.7737Z" fill="#3F3D56"/>
<path d="M117.128 252.24H0.968166C0.843936 252.24 0.724797 252.191 0.636953 252.103C0.549109 252.015 0.499756 251.896 0.499756 251.772C0.499756 251.647 0.549109 251.528 0.636953 251.44C0.724797 251.353 0.843936 251.303 0.968166 251.303H117.127C117.251 251.303 117.371 251.353 117.458 251.44C117.546 251.528 117.596 251.647 117.596 251.772C117.596 251.896 117.546 252.015 117.458 252.103C117.371 252.191 117.252 252.24 117.128 252.24Z" fill="#CCCCCC"/>
<path d="M400.032 252.24H317.596C317.472 252.24 317.353 252.191 317.265 252.103C317.177 252.015 317.128 251.896 317.128 251.772C317.128 251.647 317.177 251.528 317.265 251.44C317.353 251.353 317.472 251.303 317.596 251.303H400.031C400.156 251.303 400.275 251.353 400.363 251.44C400.45 251.528 400.5 251.647 400.5 251.772C400.5 251.896 400.45 252.015 400.363 252.103C400.275 252.191 400.156 252.24 400.031 252.24H400.032Z" fill="#CCCCCC"/>
<path d="M382.693 236.299L384.556 243.757L376.354 245.994L375.608 238.164L382.693 236.299Z" fill="#FFB9B9"/>
<path d="M352.863 245.621V252.705L344.66 254.197L343.169 250.47L346.152 244.131L352.863 245.621Z" fill="#FFB9B9"/>
<path d="M369.268 168.439L368.149 178.506L368.895 197.895C368.895 197.895 368.895 199.758 370.014 200.505C370.614 200.914 383.81 237.791 383.81 237.791C383.81 237.791 380.827 241.518 375.234 240.401L374.115 236.674C374.115 236.674 372.624 231.826 371.878 230.708C371.132 229.589 359.946 206.844 359.946 206.844L354.728 197.522L353.236 210.199C353.236 210.199 356.219 226.232 355.474 233.69C354.728 241.147 353.236 248.977 353.236 248.977L342.23 247.263C342.19 246.06 342.424 237.418 342.424 237.418V236.3L340.186 207.589L336.085 169.93L369.268 168.439Z" fill="#090814"/>
<path d="M343.914 100.578C349.474 100.578 353.981 96.0705 353.981 90.5105C353.981 84.9505 349.474 80.4432 343.914 80.4432C338.354 80.4432 333.847 84.9505 333.847 90.5105C333.847 96.0705 338.354 100.578 343.914 100.578Z" fill="#FFB9B9"/>
<path d="M352.676 90.6969L356.778 100.764L347.083 107.849L341.117 97.4083L352.676 90.6969Z" fill="#FFB9B9"/>
<path d="M353.235 98.3396L356.963 96.476L359.2 101.696C359.2 101.696 373.742 106.17 372.623 126.678C371.505 147.185 368.896 155.015 368.896 155.015C368.896 155.015 375.235 168.438 371.506 169.93C367.777 171.421 336.084 177.014 335.338 171.793C334.592 166.572 337.948 135.999 337.948 135.999C337.948 135.999 336.83 113.999 346.151 109.525L344.287 105.424L353.235 98.3396Z" fill="#E6E6E6"/>
<path d="M332.729 170.676C332.729 170.676 324.153 179.624 329.001 181.861C333.85 184.099 336.831 171.794 336.831 171.794L332.729 170.676Z" fill="#FFB9B9"/>
<path d="M349.239 250.658L353.125 249.207C353.125 249.207 357.365 259 353.832 259H344.646C344.646 259 339.346 257.186 336.52 257.186C333.693 257.186 328.393 251.746 332.28 249.207C336.166 246.669 341.113 247.394 341.113 247.394L342.526 244.13L344.293 249.207C344.293 249.207 346.412 252.834 349.239 250.658Z" fill="#090814"/>
<path d="M380.455 242.638C380.455 242.638 382.79 241.165 384.046 241.715C385.302 242.265 386.046 248.231 386.046 248.231C386.046 248.231 389.773 252.706 381.571 253.451C373.37 254.196 371.504 252.705 370.758 250.468C370.012 248.231 371.504 245.994 371.504 245.994L373.741 245.248C373.741 245.248 376.351 243.384 375.605 242.638C374.859 241.891 375.605 240.401 375.605 240.401C375.605 240.401 378.218 245.621 380.455 242.638Z" fill="#090814"/>
<path d="M347.358 90.3491C347.317 90.0233 347.244 89.7023 347.139 89.391C346.598 88.2546 344.487 88.5873 344.11 87.3873C344.037 87.1523 344.052 86.8969 343.98 86.66C343.853 86.3723 343.638 86.1327 343.365 85.9764C343.092 85.8201 342.776 85.7553 342.464 85.7914C341.842 85.8773 341.232 86.0344 340.645 86.2596C339.17 86.6782 337.6 86.5182 336.077 86.355C335.397 86.3322 334.731 86.1588 334.126 85.8473C333.828 85.6846 333.59 85.4296 333.449 85.1205C333.308 84.8114 333.27 84.4648 333.343 84.1328C333.544 83.515 334.22 83.1755 334.525 82.6009C335.007 81.6887 334.417 80.51 334.809 79.5555C335.437 78.0237 337.815 78.3314 339.022 77.1991C339.315 76.9264 339.527 76.5732 339.808 76.286C340.641 75.4337 341.958 75.2687 343.145 75.3864C344.331 75.5041 345.497 75.8523 346.69 75.8314C347.82 75.8114 349.005 75.4678 350.047 75.9069C350.66 76.2203 351.198 76.6622 351.624 77.2023L354.296 80.1323C354.663 80.4782 354.945 80.9036 355.122 81.376C355.283 81.9373 355.135 82.5401 355.203 83.1201C355.36 84.4428 356.598 85.4419 356.765 86.7632C356.799 87.1731 356.779 87.5857 356.706 87.9905L356.332 90.75C356.313 91.019 356.241 91.2815 356.121 91.5228C356.012 91.7087 355.848 91.8555 355.725 92.0328C355.379 92.5328 355.41 93.1946 355.239 93.7782C355.067 94.3619 354.45 94.9391 353.911 94.6578C353.559 94.476 353.326 92.9569 352.899 92.5632C352.304 92.0146 351.993 92.0823 351.258 92.0914C349.785 92.1123 347.829 92.2382 347.358 90.3491Z" fill="#2F2E41"/>
<path d="M349.133 112.136C349.133 112.136 360.319 116.611 356.963 126.678C353.607 136.746 344.659 167.693 344.659 167.693L339.439 170.303L337.947 174.405L330.863 171.795L331.981 166.204L334.591 160.613L341.303 118.852C341.303 118.852 341.304 111.763 349.133 112.136Z" fill="#E6E6E6"/>
<path opacity="0.1" d="M357.523 128.729L345.965 168.252L341.117 173.1L343.914 168.065L357.523 128.729Z" fill="black"/>
<path d="M37.4677 126.778L39.7722 143.166L49.5022 160.577C52.3204 163.137 49.7581 169.283 49.7581 169.283L47.1981 167.492L46.6858 164.419C46.6858 164.419 35.4195 151.616 32.6031 148.544C29.7868 145.472 28.7622 128.572 28.7622 128.572L37.4677 126.778Z" fill="#FBBEBE"/>
<path d="M28.9877 237.908C28.9877 237.908 29.4999 243.797 29.2436 245.334C28.9872 246.87 21.3058 245.078 21.3058 245.078C22.5863 242.517 23.3545 234.836 23.3545 234.836L28.9877 237.908Z" fill="#FBBEBE"/>
<path d="M67.1399 239.445C67.1399 239.445 67.9081 247.639 67.6522 249.175C67.3963 250.711 59.7145 248.919 59.7145 248.919C60.9949 246.359 61.7631 238.677 61.7631 238.677L67.1399 239.445Z" fill="#FBBEBE"/>
<path d="M51.4486 108.091C56.5921 108.091 60.7617 103.921 60.7617 98.7774C60.7617 93.6339 56.5921 89.4642 51.4486 89.4642C46.305 89.4642 42.1354 93.6339 42.1354 98.7774C42.1354 103.921 46.305 108.091 51.4486 108.091Z" fill="#FBBEBE"/>
<path d="M53.0568 107.579C51.5204 109.627 52.2886 113.212 52.2886 113.212C52.2886 113.212 36.6695 131.394 33.8527 131.394C31.0359 131.394 31.5482 118.591 31.5482 118.591C31.5482 118.591 35.645 113.727 37.9495 112.702C40.2541 111.676 44.3509 100.667 44.3509 100.667C44.3509 100.667 54.5932 105.53 53.0568 107.579Z" fill="#FBBEBE"/>
<path d="M63.555 142.401L73.5777 159.238C75.4068 162.247 72.0045 177.481 72.0045 177.481L70.4681 209.999L67.9077 242.766V246.35L59.4582 246.094L56.64 211.023L52.5432 184.65L45.8859 204.877L34.8759 229.714C33.9358 232.778 32.7805 235.771 31.4186 238.672L29.37 242.256L21.6904 241.359L33.3391 202.061L35.6432 176.456C35.8991 162.118 40.5068 154.18 40.5068 154.18V151.107L63.555 142.401Z" fill="#090814"/>
<path d="M28.4759 244.054C28.4759 244.054 29.7563 242.005 29.7563 242.773C29.7563 243.541 33.085 245.591 33.085 245.591C33.085 245.591 36.4136 245.079 36.9259 248.92C37.4381 252.761 32.3168 253.529 31.0368 253.273C29.7568 253.016 26.4277 253.529 26.4277 253.529C24.2205 253.854 21.9776 253.854 19.7704 253.529C15.6736 253.016 19.2581 246.103 19.7704 244.823C20.2827 243.542 22.8431 244.567 22.8431 244.567C27.4518 245.846 28.4759 244.054 28.4759 244.054Z" fill="#090814"/>
<path d="M66.8831 247.893C66.8831 247.893 68.1636 245.845 68.1636 246.613C68.1636 247.38 71.4922 249.431 71.4922 249.431C71.4922 249.431 74.8209 248.919 75.3331 252.76C75.8454 256.6 70.724 257.369 69.444 257.112C68.164 256.856 64.835 257.368 64.835 257.368C62.6278 257.693 60.3849 257.693 58.1777 257.368C54.0809 256.856 57.6654 249.943 58.1777 248.662C58.69 247.382 61.2504 248.406 61.2504 248.406C65.859 249.686 66.8831 247.893 66.8831 247.893Z" fill="#090814"/>
<path d="M49.2154 112.956C55.6168 106.298 62.5299 122.941 62.5299 122.941C62.5299 122.941 64.8345 129.087 63.0422 132.416C61.2499 135.744 64.8345 143.17 64.8345 143.17C56.0659 150.634 47.3277 157.533 39.2295 152.644C40.2536 146.498 36.9249 143.426 34.6204 137.537C32.3159 131.648 27.9631 132.928 27.9631 132.928C27.9631 132.928 28.219 126.271 28.9872 120.893C29.7554 115.516 36.669 113.497 36.669 113.497C37.9222 115.749 42.814 119.613 49.2154 112.956Z" fill="#0582CA"/>
<path d="M60.4827 123.71L62.7872 140.097L72.5172 157.508C75.3354 160.069 72.7731 166.214 72.7731 166.214L70.2131 164.423L69.7009 161.35C69.7009 161.35 58.4345 148.547 55.6181 145.475C52.8018 142.403 51.7772 125.503 51.7772 125.503L60.4827 123.71Z" fill="#FBBEBE"/>
<path d="M62.0186 126.27L51.2645 127.551C51.2645 127.551 50.4963 115.005 52.1204 111.869C53.7445 108.732 59.7145 112.187 59.7145 112.187C61.2499 112.443 62.0186 126.27 62.0186 126.27Z" fill="#0582CA"/>
<path d="M61.8745 93.386C54.9872 96.8283 58.9608 106.227 58.1472 110.171C56.8158 116.63 37.1822 113.347 37.1822 113.347C34.7936 112.918 33.3377 86.3415 46.4195 86.5746C53.0145 86.6942 57.5768 88.7878 61.8745 93.386Z" fill="#090814"/>
<path d="M57.6767 101.556C58.2064 101.556 58.6358 100.869 58.6358 100.022C58.6358 99.1746 58.2064 98.4878 57.6767 98.4878C57.1471 98.4878 56.7177 99.1746 56.7177 100.022C56.7177 100.869 57.1471 101.556 57.6767 101.556Z" fill="#FBBEBE"/>
</svg>
