<svg width="401" height="330" viewBox="0 0 401 330" fill="none" xmlns="http://www.w3.org/2000/svg">
<path d="M89.1365 33.0565H63.6278C61.1753 33.0591 58.824 34.2008 57.0899 36.231C55.3558 38.2613 54.3806 41.0141 54.3784 43.8853V76.2635C54.0522 76.2407 53.7261 76.2065 53.4047 76.1609C47.3615 75.4165 41.616 72.7104 36.8161 68.3477C32.0162 63.9849 28.3528 58.1391 26.2389 51.4692C24.125 44.7993 23.6446 37.5706 24.852 30.5982C26.0593 23.6258 28.9064 17.1869 33.0722 12.0075C37.238 6.8281 42.5568 3.11419 48.429 1.28449C54.3012 -0.545204 60.4933 -0.417929 66.307 1.65198C72.1207 3.72188 77.3249 7.6521 81.3328 12.9995C85.3407 18.3469 87.993 24.8988 88.9906 31.9166C89.0441 32.2927 89.0928 32.6746 89.1365 33.0565Z" fill="#F2F2F2"/>
<path d="M390.277 31.9166H63.6278C60.9174 31.92 58.3189 33.1821 56.4023 35.426C54.4858 37.6698 53.4077 40.712 53.4048 43.8853V245.644C53.4077 248.817 54.4858 251.859 56.4023 254.103C58.3189 256.347 60.9174 257.609 63.6278 257.612H390.277C392.988 257.609 395.586 256.347 397.503 254.103C399.419 251.859 400.497 248.817 400.5 245.644V43.8853C400.497 40.712 399.419 37.6698 397.503 35.426C395.586 33.1821 392.988 31.92 390.277 31.9166ZM399.527 245.644C399.524 248.515 398.549 251.268 396.815 253.298C395.081 255.328 392.73 256.47 390.277 256.472H63.6278C61.1754 256.47 58.8241 255.328 57.0899 253.298C55.3558 251.268 54.3806 248.515 54.3784 245.644V43.8853C54.3806 41.0141 55.3558 38.2612 57.0899 36.231C58.8241 34.2008 61.1754 33.059 63.6278 33.0564H390.277C392.73 33.059 395.081 34.2008 396.815 36.231C398.549 38.2612 399.524 41.0141 399.527 43.8853V245.644Z" fill="#3F3D56"/>
<path d="M374.212 64.6138H79.6924C79.5633 64.6138 79.4395 64.5537 79.3482 64.4468C79.2569 64.3399 79.2056 64.195 79.2056 64.0438C79.2056 63.8927 79.2569 63.7477 79.3482 63.6408C79.4395 63.5339 79.5633 63.4739 79.6924 63.4739H374.212C374.341 63.4739 374.465 63.5339 374.556 63.6408C374.648 63.7477 374.699 63.8927 374.699 64.0438C374.699 64.195 374.648 64.3399 374.556 64.4468C374.465 64.5537 374.341 64.6138 374.212 64.6138Z" fill="#3F3D56"/>
<path d="M162.937 233.105C162.808 233.105 162.684 233.045 162.593 232.938C162.501 232.831 162.45 232.686 162.45 232.535V45.0251C162.45 44.874 162.501 44.729 162.593 44.6221C162.684 44.5152 162.808 44.4552 162.937 44.4552C163.066 44.4552 163.19 44.5152 163.281 44.6221C163.373 44.729 163.424 44.874 163.424 45.0251V232.535C163.424 232.686 163.373 232.831 163.281 232.938C163.19 233.045 163.066 233.105 162.937 233.105Z" fill="#3F3D56"/>
<path d="M236.445 233.105C236.316 233.105 236.192 233.045 236.101 232.938C236.01 232.831 235.958 232.686 235.958 232.535V45.0251C235.958 44.874 236.01 44.729 236.101 44.6221C236.192 44.5152 236.316 44.4552 236.445 44.4552C236.574 44.4552 236.698 44.5152 236.79 44.6221C236.881 44.729 236.932 44.874 236.932 45.0251V232.535C236.932 232.686 236.881 232.831 236.79 232.938C236.698 233.045 236.574 233.105 236.445 233.105Z" fill="#3F3D56"/>
<path d="M309.954 233.105C309.825 233.105 309.701 233.045 309.609 232.938C309.518 232.831 309.467 232.686 309.467 232.535V45.0251C309.467 44.874 309.518 44.729 309.609 44.6221C309.701 44.5152 309.825 44.4552 309.954 44.4552C310.083 44.4552 310.207 44.5152 310.298 44.6221C310.389 44.729 310.44 44.874 310.44 45.0251V232.535C310.44 232.686 310.389 232.831 310.298 232.938C310.207 233.045 310.083 233.105 309.954 233.105Z" fill="#3F3D56"/>
<path d="M115.675 123.442H97.8874C97.3066 123.441 96.7498 123.17 96.3391 122.69C95.9284 122.209 95.6974 121.557 95.6968 120.877V96.3013C95.6974 95.6213 95.9284 94.9694 96.3391 94.4886C96.7498 94.0078 97.3066 93.7373 97.8874 93.7366H115.675C116.256 93.7373 116.813 94.0078 117.224 94.4886C117.634 94.9694 117.865 95.6213 117.866 96.3013V120.877C117.865 121.557 117.634 122.209 117.224 122.69C116.813 123.17 116.256 123.441 115.675 123.442Z" fill="#0582CA"/>
<path d="M140.989 193.544H123.201C122.621 193.543 122.064 193.273 121.653 192.792C121.242 192.311 121.011 191.659 121.011 190.979V166.404C121.011 165.724 121.242 165.072 121.653 164.591C122.064 164.11 122.621 163.84 123.201 163.839H140.989C141.57 163.84 142.127 164.11 142.538 164.591C142.948 165.072 143.179 165.724 143.18 166.404V190.979C143.179 191.659 142.948 192.311 142.538 192.792C142.127 193.273 141.57 193.543 140.989 193.544Z" fill="#0582CA"/>
<path d="M198.433 138.26H180.645C180.064 138.259 179.507 137.989 179.096 137.508C178.686 137.027 178.455 136.375 178.454 135.695V111.12C178.455 110.44 178.686 109.788 179.096 109.307C179.507 108.826 180.064 108.556 180.645 108.555H198.433C199.014 108.556 199.57 108.826 199.981 109.307C200.392 109.788 200.623 110.44 200.623 111.12V135.695C200.623 136.375 200.392 137.027 199.981 137.508C199.57 137.989 199.014 138.259 198.433 138.26Z" fill="#0582CA"/>
<path d="M272.915 111.473H255.127C254.546 111.472 253.989 111.202 253.578 110.721C253.168 110.24 252.937 109.588 252.936 108.908V84.3325C252.937 83.6526 253.168 83.0007 253.578 82.5198C253.989 82.039 254.546 81.7686 255.127 81.7678H272.915C273.495 81.7686 274.052 82.039 274.463 82.5198C274.874 83.0007 275.105 83.6526 275.105 84.3325V108.908C275.105 109.588 274.874 110.24 274.463 110.721C274.052 111.202 273.495 111.472 272.915 111.473Z" fill="#0582CA"/>
<path d="M341.555 111.473H323.767C323.186 111.472 322.629 111.202 322.218 110.721C321.808 110.24 321.577 109.588 321.576 108.908V84.3325C321.577 83.6526 321.808 83.0007 322.218 82.5198C322.629 82.039 323.186 81.7686 323.767 81.7678H341.555C342.136 81.7686 342.692 82.039 343.103 82.5198C343.514 83.0007 343.745 83.6526 343.745 84.3325V108.908C343.745 109.588 343.514 110.24 343.103 110.721C342.692 111.202 342.136 111.472 341.555 111.473Z" fill="#0582CA"/>
<path d="M373.197 118.312H355.409C354.829 118.311 354.272 118.041 353.861 117.56C353.45 117.079 353.219 116.427 353.219 115.747V91.1719C353.219 90.4919 353.45 89.84 353.861 89.3592C354.272 88.8784 354.829 88.6079 355.409 88.6072H373.197C373.778 88.6079 374.335 88.8784 374.746 89.3592C375.156 89.84 375.387 90.4919 375.388 91.1719V115.747C375.387 116.427 375.156 117.079 374.746 117.56C374.335 118.041 373.778 118.311 373.197 118.312Z" fill="#E6E6E6"/>
<path d="M359.08 162.197H341.292C340.711 162.197 340.155 161.926 339.744 161.445C339.333 160.965 339.102 160.313 339.102 159.633V135.057C339.102 134.377 339.333 133.725 339.744 133.244C340.155 132.764 340.711 132.493 341.292 132.492H359.08C359.661 132.493 360.218 132.764 360.629 133.244C361.039 133.725 361.27 134.377 361.271 135.057V159.633C361.27 160.313 361.039 160.965 360.629 161.445C360.218 161.926 359.661 162.197 359.08 162.197Z" fill="#E6E6E6"/>
<path d="M298.716 153.078H280.928C280.347 153.078 279.79 152.807 279.38 152.326C278.969 151.846 278.738 151.194 278.737 150.514V125.938C278.738 125.258 278.969 124.606 279.38 124.125C279.79 123.645 280.347 123.374 280.928 123.373H298.716C299.297 123.374 299.854 123.645 300.264 124.125C300.675 124.606 300.906 125.258 300.907 125.938V150.514C300.906 151.194 300.675 151.846 300.264 152.326C299.854 152.807 299.297 153.078 298.716 153.078Z" fill="#FF6584"/>
<path d="M264.152 162.197H246.364C245.784 162.197 245.227 161.926 244.816 161.445C244.405 160.965 244.174 160.313 244.174 159.633V135.057C244.174 134.377 244.405 133.725 244.816 133.244C245.227 132.764 245.784 132.493 246.364 132.492H264.152C264.733 132.493 265.29 132.764 265.701 133.244C266.111 133.725 266.342 134.377 266.343 135.057V159.633C266.342 160.313 266.111 160.965 265.701 161.445C265.29 161.926 264.733 162.197 264.152 162.197Z" fill="#E6E6E6"/>
<path d="M189.671 200.953H171.883C171.302 200.952 170.745 200.682 170.334 200.201C169.924 199.72 169.693 199.069 169.692 198.389V173.813C169.693 173.133 169.924 172.481 170.334 172C170.745 171.52 171.302 171.249 171.883 171.248H189.671C190.251 171.249 190.808 171.52 191.219 172C191.63 172.481 191.861 173.133 191.861 173.813V198.389C191.861 199.069 191.63 199.72 191.219 200.201C190.808 200.682 190.251 200.952 189.671 200.953Z" fill="#E6E6E6"/>
<path d="M99.6105 168.467H81.8225C81.2417 168.466 80.6849 168.195 80.2742 167.715C79.8635 167.234 79.6325 166.582 79.6318 165.902V141.326C79.6325 140.646 79.8635 139.995 80.2742 139.514C80.6849 139.033 81.2417 138.762 81.8225 138.762H99.6105C100.191 138.762 100.748 139.033 101.159 139.514C101.57 139.995 101.801 140.646 101.801 141.326V165.902C101.801 166.582 101.57 167.234 101.159 167.715C100.748 168.195 100.191 168.466 99.6105 168.467Z" fill="#FF6584"/>
<path d="M149.752 123.442H131.964C131.383 123.441 130.826 123.17 130.416 122.69C130.005 122.209 129.774 121.557 129.773 120.877V96.3013C129.774 95.6213 130.005 94.9694 130.416 94.4886C130.826 94.0078 131.383 93.7373 131.964 93.7366H149.752C150.333 93.7373 150.89 94.0078 151.3 94.4886C151.711 94.9694 151.942 95.6213 151.943 96.3013V120.877C151.942 121.557 151.711 122.209 151.3 122.69C150.89 123.17 150.333 123.441 149.752 123.442Z" fill="#E6E6E6"/>
<path d="M135.189 55.2841H107.44C106.924 55.2841 106.429 55.0439 106.063 54.6164C105.698 54.1889 105.493 53.609 105.493 53.0044C105.493 52.3997 105.698 51.8199 106.063 51.3923C106.429 50.9648 106.924 50.7246 107.44 50.7246H135.189C135.705 50.7246 136.2 50.9648 136.565 51.3923C136.931 51.8199 137.136 52.3997 137.136 53.0044C137.136 53.609 136.931 54.1889 136.565 54.6164C136.2 55.0439 135.705 55.2841 135.189 55.2841Z" fill="#CCCCCC"/>
<path d="M213.565 55.2841H185.817C185.3 55.2841 184.805 55.0439 184.44 54.6164C184.075 54.1889 183.87 53.609 183.87 53.0044C183.87 52.3997 184.075 51.8199 184.44 51.3923C184.805 50.9648 185.3 50.7246 185.817 50.7246H213.565C214.081 50.7246 214.577 50.9648 214.942 51.3923C215.307 51.8199 215.512 52.3997 215.512 53.0044C215.512 53.609 215.307 54.1889 214.942 54.6164C214.577 55.0439 214.081 55.2841 213.565 55.2841Z" fill="#CCCCCC"/>
<path d="M287.073 55.2841H259.325C258.809 55.2841 258.313 55.0439 257.948 54.6164C257.583 54.1889 257.378 53.609 257.378 53.0044C257.378 52.3997 257.583 51.8199 257.948 51.3923C258.313 50.9648 258.809 50.7246 259.325 50.7246H287.073C287.59 50.7246 288.085 50.9648 288.45 51.3923C288.815 51.8199 289.021 52.3997 289.021 53.0044C289.021 53.609 288.815 54.1889 288.45 54.6164C288.085 55.0439 287.59 55.2841 287.073 55.2841Z" fill="#CCCCCC"/>
<path d="M355.713 55.2841H327.965C327.449 55.2841 326.954 55.0439 326.588 54.6164C326.223 54.1889 326.018 53.609 326.018 53.0044C326.018 52.3997 326.223 51.8199 326.588 51.3923C326.954 50.9648 327.449 50.7246 327.965 50.7246H355.713C356.23 50.7246 356.725 50.9648 357.09 51.3923C357.456 51.8199 357.661 52.3997 357.661 53.0044C357.661 53.609 357.456 54.1889 357.09 54.6164C356.725 55.0439 356.23 55.2841 355.713 55.2841Z" fill="#CCCCCC"/>
<path d="M73.0393 222.214C72.3271 222.132 71.6388 221.869 71.0229 221.442C70.4071 221.015 69.8786 220.436 69.4748 219.744C69.071 219.052 68.8017 218.265 68.6858 217.438C68.5699 216.612 68.6103 215.765 68.804 214.959L56.3257 201.359L62.9233 199.4L75.1937 211.051C76.3295 211.522 77.2782 212.465 77.8602 213.7C78.4422 214.935 78.617 216.377 78.3515 217.753C78.0859 219.129 77.3985 220.343 76.4194 221.165C75.4403 221.988 74.2377 222.361 73.0393 222.214Z" fill="#FFB8B8"/>
<path d="M90.2695 322.73H96.2378L99.0769 295.778H90.2686L90.2695 322.73Z" fill="#FFB8B8"/>
<path d="M107.748 329.217L88.9909 329.218L88.9906 320.733L100.501 320.733C102.423 320.733 104.266 321.626 105.625 323.218C106.984 324.809 107.748 326.967 107.748 329.217Z" fill="#2F2E41"/>
<path d="M49.3491 317.684L55.1168 319.482L63.7825 294.293L55.2707 291.641L49.3491 317.684Z" fill="#FFB8B8"/>
<path d="M64.814 329.219L46.688 323.571L48.5521 315.371L59.6749 318.838C61.5322 319.416 63.1171 320.835 64.0809 322.782C65.0447 324.729 65.3084 327.045 64.814 329.219Z" fill="#2F2E41"/>
<path d="M97.8428 317.627H88.736C88.1607 317.629 87.6056 317.379 87.1798 316.926C86.754 316.474 86.4884 315.851 86.4353 315.18L80.9068 247.966C80.8663 247.473 80.6807 247.012 80.3818 246.661C80.0828 246.311 79.6892 246.093 79.2681 246.045C78.8471 245.997 78.4248 246.121 78.0736 246.398C77.7224 246.674 77.4641 247.084 77.3429 247.559L61.2911 310.366C61.1213 311.033 60.738 311.598 60.221 311.943C59.704 312.288 59.0933 312.385 58.5163 312.216L50.0443 309.736C49.7486 309.649 49.4705 309.495 49.2259 309.282C48.9812 309.069 48.775 308.802 48.619 308.495C48.4631 308.189 48.3604 307.849 48.317 307.496C48.2736 307.143 48.2903 306.783 48.3661 306.437C48.5045 305.804 62.1967 243.158 62.3163 242.514C65.4186 215.745 69.1302 208.572 71.1241 204.719C71.2892 204.4 71.4409 204.107 71.5774 203.829C71.7483 203.483 72.8005 200.042 73.468 197.808C73.5547 197.445 73.7048 197.106 73.9088 196.814C74.1128 196.522 74.3664 196.283 74.6534 196.111C83.0317 191.095 92.8345 194.567 95.6393 195.751C96.1043 195.943 96.5037 196.306 96.7776 196.786C105.192 211.645 101.063 297.945 100.149 315.094C100.111 315.78 99.8518 316.424 99.4235 316.894C98.9951 317.364 98.4301 317.626 97.8428 317.627Z" fill="#2F2E41"/>
<path d="M74.3413 147.378C80.9447 147.378 86.2979 141.111 86.2979 133.38C86.2979 125.648 80.9447 119.381 74.3413 119.381C67.7379 119.381 62.3848 125.648 62.3848 133.38C62.3848 141.111 67.7379 147.378 74.3413 147.378Z" fill="#FFB8B8"/>
<path d="M73.0746 200.526L72.9886 200.429C72.8275 200.246 56.8968 181.974 58.9585 165.079C59.8403 157.852 64.8345 153.234 73.4011 151.724C76.5482 151.177 79.7584 151.978 82.4414 153.98C85.1245 155.983 87.1001 159.051 88.0052 162.622L96.4757 196.525L73.0746 200.526Z" fill="#CCCCCC"/>
<path d="M64.921 213.522L53.5694 200.316C52.7932 199.408 52.2296 198.281 51.933 197.045C51.6363 195.808 51.6165 194.502 51.8754 193.254L57.3708 167.083C57.5354 166.299 57.8357 165.562 58.2532 164.919C58.6707 164.277 59.1964 163.741 59.7978 163.345C60.3993 162.95 61.0636 162.703 61.7498 162.621C62.4359 162.538 63.1293 162.621 63.7869 162.865C65.0403 163.338 66.0872 164.364 66.706 165.725C67.3247 167.086 67.4666 168.675 67.1016 170.157L61.3161 193.18L70.6717 204.942L64.921 213.522Z" fill="#CCCCCC"/>
<path d="M125.807 168.452C125.507 169.213 125.068 169.887 124.521 170.428C123.974 170.968 123.333 171.362 122.642 171.581C121.951 171.8 121.228 171.839 120.523 171.695C119.818 171.551 119.148 171.228 118.561 170.749L103.407 179.944L104.077 172.133L117.511 162.399C118.265 161.298 119.337 160.559 120.525 160.322C121.713 160.085 122.933 160.366 123.956 161.112C124.978 161.858 125.732 163.017 126.073 164.37C126.414 165.723 126.319 167.176 125.807 168.452Z" fill="#FFB8B8"/>
<path d="M116.906 174.267L102.134 181.741C101.15 182.235 100.075 182.424 99.0114 182.29C97.9477 182.157 96.9312 181.705 96.0597 180.978L77.2742 165.22C76.7136 164.75 76.2413 164.15 75.8867 163.457C75.5321 162.764 75.3026 161.994 75.2126 161.193C75.1225 160.393 75.1738 159.579 75.3631 158.802C75.5525 158.026 75.8759 157.303 76.3135 156.679C77.1543 155.492 78.3567 154.735 79.666 154.568C80.9752 154.401 82.2886 154.838 83.3277 155.785L99.4355 170.628L112.239 164.828L116.906 174.267Z" fill="#CCCCCC"/>
<path d="M76.3234 137.865C77.7984 135.701 80.5541 135.585 82.5802 134.158C85.2342 132.288 86.3315 128.11 85.4762 124.625C84.621 121.14 82.0987 118.423 79.2069 117.124C76.3151 115.825 73.0977 115.809 70.0471 116.437C65.5051 117.372 61.0333 119.854 58.2631 124.171C55.493 128.487 54.788 134.809 57.2985 139.338C58.4524 141.42 60.2336 143.138 60.6943 145.56C61.299 148.74 59.3938 151.807 57.3527 154.022C55.0273 156.544 52.3595 158.657 50.3222 161.501C48.285 164.345 46.9264 168.23 47.8561 171.778C48.635 174.751 50.9015 176.941 53.3869 178.038C55.8723 179.135 58.5793 179.294 61.2349 179.354C63.8136 179.414 66.5526 179.34 68.7249 177.712C71.0505 175.97 72.2922 172.664 72.3839 169.433C72.4757 166.202 71.5535 163.037 70.3176 160.146C69.581 158.423 68.7244 156.753 68.2349 154.914C67.7454 153.074 67.6606 150.987 68.4445 149.293C69.2686 147.512 70.9356 146.438 72.6331 146.047C72.7213 146.027 72.8146 146.009 72.9122 145.993C73.3952 145.919 73.8605 145.732 74.2799 145.442C74.6993 145.152 75.0641 144.766 75.3523 144.306C75.6405 143.847 75.8461 143.323 75.9566 142.768C76.0671 142.213 76.0803 141.637 75.9953 141.075C75.8019 139.813 75.8186 138.605 76.3234 137.865Z" fill="#2F2E41"/>
<path d="M235.74 323.326H229.772L226.933 296.375L235.741 296.376L235.74 323.326Z" fill="#A0616A"/>
<path d="M225.509 321.33H237.019V329.814H218.262C218.262 328.7 218.45 327.597 218.814 326.567C219.178 325.538 219.712 324.603 220.385 323.815C221.058 323.027 221.857 322.402 222.736 321.975C223.615 321.549 224.558 321.33 225.509 321.33Z" fill="#2F2E41"/>
<path d="M279.045 315.411L273.616 318.314L261.468 295.181L269.481 290.896L279.045 315.411Z" fill="#A0616A"/>
<path d="M269.03 318.572L279.5 312.973L282.511 320.691L265.449 329.815C265.053 328.801 264.832 327.706 264.798 326.593C264.764 325.479 264.918 324.369 265.251 323.325C265.583 322.281 266.088 321.324 266.737 320.508C267.385 319.693 268.164 319.035 269.03 318.572Z" fill="#2F2E41"/>
<path d="M261.665 232.454C262.236 231.95 262.707 231.305 263.043 230.566C263.379 229.826 263.572 229.009 263.61 228.172C263.647 227.335 263.527 226.499 263.258 225.723C262.989 224.946 262.579 224.248 262.055 223.677L269.07 205.04L260.157 206.809L254.862 224.236C254.101 225.33 253.71 226.713 253.762 228.122C253.815 229.531 254.307 230.869 255.145 231.882C255.984 232.895 257.111 233.513 258.312 233.618C259.514 233.723 260.707 233.309 261.665 232.454Z" fill="#A0616A"/>
<path d="M235.36 316.22H229.659C229.106 316.218 228.574 315.972 228.169 315.531C227.764 315.09 227.516 314.487 227.474 313.841L224.365 216.633C224.342 216.261 224.388 215.887 224.501 215.537C224.614 215.188 224.791 214.872 225.02 214.611C225.248 214.351 225.522 214.151 225.823 214.028C226.124 213.904 226.445 213.858 226.762 213.895L259.736 217.994C260.271 218.056 260.767 218.345 261.132 218.806C261.496 219.268 261.704 219.87 261.714 220.499L262.405 263.378C262.409 263.611 262.447 263.841 262.519 264.058L276.045 305.124C276.149 305.441 276.199 305.78 276.191 306.119C276.182 306.459 276.116 306.794 275.997 307.104C275.877 307.413 275.706 307.692 275.493 307.924C275.281 308.155 275.031 308.335 274.758 308.453L268.98 310.945C268.479 311.161 267.927 311.155 267.428 310.928C266.93 310.701 266.52 310.268 266.275 309.712L249.659 271.885C249.569 271.68 249.502 271.461 249.462 271.234L246.624 255.222C246.541 254.758 246.321 254.343 246.001 254.053C245.681 253.762 245.283 253.614 244.878 253.635C244.474 253.657 244.089 253.846 243.793 254.17C243.497 254.493 243.309 254.93 243.263 255.401L237.537 313.947C237.476 314.572 237.22 315.15 236.819 315.569C236.417 315.988 235.898 316.22 235.36 316.22Z" fill="#2F2E41"/>
<path d="M238.199 140.626C244.803 140.626 250.156 134.359 250.156 126.628C250.156 118.897 244.803 112.63 238.199 112.63C231.596 112.63 226.243 118.897 226.243 126.628C226.243 134.359 231.596 140.626 238.199 140.626Z" fill="#A0616A"/>
<path d="M246.399 225.521C238.291 225.417 230.376 222.61 223.581 217.429L223.464 217.335L223.476 217.17L228.05 154.81C228.208 152.694 229.014 150.717 230.321 149.244C231.627 147.77 233.345 146.901 235.157 146.796C241.084 146.477 249.046 146.879 253.308 150.595C259.749 156.212 262.853 164.669 261.825 173.799C259.693 192.731 262.108 218.271 262.391 221.12L262.411 221.326L262.251 221.412C257.285 224.116 251.875 225.519 246.399 225.521Z" fill="#0582CA"/>
<path d="M262.335 221.226C261.998 221.225 261.665 221.143 261.357 220.984C261.048 220.825 260.771 220.592 260.543 220.302L257.928 216.961C257.645 216.598 257.447 216.156 257.353 215.677C257.258 215.199 257.27 214.7 257.388 214.228L263.352 190.596L254.278 168.287C253.854 167.243 253.75 166.059 253.984 164.936C254.19 163.95 254.646 163.06 255.293 162.384C255.939 161.708 256.746 161.277 257.606 161.148C258.466 161.02 259.339 161.199 260.11 161.663C260.881 162.128 261.514 162.855 261.925 163.748L274.239 187.14C274.739 188.089 275.033 189.167 275.094 190.28C275.155 191.393 274.982 192.506 274.59 193.522L264.556 219.548C264.391 219.979 264.137 220.354 263.817 220.64C263.497 220.927 263.121 221.116 262.723 221.19C262.595 221.214 262.465 221.226 262.335 221.226Z" fill="#0582CA"/>
<path d="M178.058 176.084C178.632 176.584 179.293 176.931 179.994 177.099C180.695 177.268 181.419 177.255 182.115 177.06C182.811 176.866 183.463 176.495 184.023 175.974C184.584 175.453 185.04 174.795 185.359 174.045L202.611 176.664L198.646 167.153L182.872 166.124C181.76 165.579 180.517 165.53 179.377 165.986C178.237 166.443 177.279 167.373 176.686 168.601C176.093 169.828 175.905 171.268 176.157 172.648C176.41 174.027 177.086 175.25 178.058 176.084Z" fill="#A0616A"/>
<path d="M216.083 181.279C215.783 181.279 215.483 181.254 215.185 181.206L188.045 176.799C187.602 176.728 187.18 176.528 186.819 176.219C186.458 175.909 186.168 175.499 185.976 175.026C185.914 174.873 185.862 174.715 185.821 174.553C185.716 174.132 185.687 173.691 185.735 173.256C185.783 172.821 185.908 172.403 186.101 172.027L188.347 167.668C188.589 167.202 188.928 166.817 189.334 166.549C189.739 166.281 190.197 166.139 190.662 166.137H190.666L214.323 166.169L231.991 147.636C232.813 146.776 233.863 146.273 234.964 146.212C235.931 146.159 236.889 146.451 237.711 147.049C238.533 147.647 239.182 148.522 239.57 149.56C239.959 150.598 240.07 151.749 239.888 152.863C239.707 153.976 239.241 154.998 238.553 155.795L220.923 178.751C220.313 179.547 219.567 180.183 218.733 180.618C217.899 181.054 216.996 181.279 216.083 181.279Z" fill="#0582CA"/>
<path d="M239.559 139.081C240.651 136.12 241.576 132.178 239.48 130.084C238.264 128.87 236.513 128.868 234.921 128.717C230.434 128.291 225.815 125.874 223.622 121.271C221.428 116.669 222.653 109.824 226.791 107.748C229.58 106.348 232.777 107.302 235.697 108.271L244.462 111.181C247.067 112.046 249.801 112.999 251.676 115.285C254.666 118.931 254.443 125.095 252.068 129.316C249.693 133.537 246.116 137.94 242.021 139.542L239.559 139.081Z" fill="#2F2E41"/>
<path d="M360.489 330H1.07985C1.00359 330 0.928041 329.983 0.857522 329.949C0.787003 329.915 0.722909 329.865 0.668907 329.802C0.614904 329.739 0.572056 329.664 0.542822 329.581C0.513587 329.499 0.498535 329.411 0.498535 329.321C0.498535 329.232 0.513587 329.144 0.542822 329.061C0.572056 328.979 0.614904 328.904 0.668907 328.841C0.722909 328.778 0.787003 328.728 0.857522 328.694C0.928041 328.66 1.00359 328.642 1.07985 328.643H360.489C360.565 328.642 360.64 328.66 360.711 328.694C360.781 328.728 360.845 328.778 360.899 328.841C360.953 328.904 360.996 328.979 361.026 329.061C361.055 329.144 361.07 329.232 361.07 329.321C361.07 329.411 361.055 329.499 361.026 329.581C360.996 329.664 360.953 329.739 360.899 329.802C360.845 329.865 360.781 329.915 360.711 329.949C360.64 329.983 360.565 330 360.489 330Z" fill="#3F3D56"/>
</svg>
