<svg width="18" height="18" viewBox="0 0 18 18" fill="none" xmlns="http://www.w3.org/2000/svg">
<path d="M16.7626 9.18111C16.7626 8.64561 16.7187 8.10786 16.6265 7.58136H9.15649V10.6132H13.4337C13.3455 11.0984 13.1597 11.5607 12.8876 11.972C12.6156 12.3833 12.2629 12.7351 11.8509 13.0061V14.9749H14.4035C15.902 13.6024 16.7626 11.5774 16.7626 9.18111Z" fill="#4285F4"/>
<path d="M9.15755 16.875C11.2928 16.875 13.0939 16.1775 14.4057 14.9738L11.8542 13.0061C11.1443 13.4865 10.2274 13.7588 9.1598 13.7588C7.0943 13.7588 5.34267 12.3728 4.7138 10.5098H2.0813V12.5381C2.7446 13.8445 3.75708 14.9414 5.00626 15.707C6.25545 16.4726 7.69242 16.8769 9.15755 16.875Z" fill="#34A853"/>
<path d="M4.71028 10.5097C4.37853 9.53212 4.37853 8.47237 4.71028 7.49474V5.46637H2.08003C1.52613 6.56274 1.23755 7.7739 1.23755 9.00224C1.23755 10.2306 1.52613 11.4418 2.08003 12.5381L4.71028 10.5097Z" fill="#FBBC04"/>
<path d="M9.15755 4.24124C10.2855 4.22295 11.3758 4.64696 12.195 5.42249L14.4563 3.17361C13.0192 1.83493 11.1214 1.10161 9.15755 1.12611C7.69202 1.12426 6.25469 1.52895 5.00543 2.29519C3.75617 3.06144 2.74393 4.15919 2.0813 5.46636L4.7093 7.49249C5.3348 5.62724 7.0898 4.24124 9.1553 4.24124H9.15755Z" fill="#EA4335"/>
</svg>
