<svg width="870" height="520" viewBox="0 0 870 520" fill="none" xmlns="http://www.w3.org/2000/svg">
<g clip-path="url(#clip0_33_305)">
<path d="M666.093 514.12C654.954 504.71 648.189 489.846 649.963 475.376C651.737 460.906 662.727 447.604 676.981 444.531C691.236 441.458 707.485 449.964 711.815 463.885C714.198 437.046 716.944 409.082 731.217 386.226C744.141 365.53 766.526 350.722 790.786 348.073C815.046 345.423 840.588 355.429 855.718 374.572C870.848 393.715 874.553 421.545 863.956 443.523C856.15 459.713 841.768 471.762 826.7 481.565C778.008 512.973 719.608 525.746 662.246 517.532L666.093 514.12Z" fill="#F2F2F2"/>
<path d="M831.728 355.984C811.71 372.284 793.346 390.515 776.902 410.412C751.166 441.444 730.34 476.237 715.15 513.578C714.038 516.302 718.462 517.488 719.562 514.794C744.416 454.107 784.093 400.618 834.963 359.219C837.248 357.359 833.994 354.14 831.728 355.984Z" fill="white"/>
<path d="M280.067 511.563C295.366 498.639 304.658 478.224 302.221 458.349C299.784 438.474 284.69 420.203 265.112 415.983C245.533 411.762 223.214 423.445 217.267 442.566C213.995 405.702 210.223 367.294 190.619 335.901C172.868 307.476 142.122 287.136 108.801 283.497C75.4801 279.859 40.3972 293.602 19.6161 319.895C-1.1651 346.188 -6.25327 384.412 8.30131 414.599C19.0232 436.836 38.7766 453.385 59.4733 466.849C125.503 509.803 207.412 527.717 285.351 516.25" fill="#F2F2F2"/>
<path d="M52.5668 294.364C80.0608 316.752 105.284 341.792 127.871 369.12C150.461 396.421 170.35 425.848 187.257 456.987C196.707 474.455 205.196 492.426 212.687 510.819C214.214 514.561 208.137 516.19 206.627 512.49C193.359 480.063 176.944 449.013 157.618 419.787C138.385 390.667 116.373 363.481 91.889 338.611C78.041 324.551 63.4302 311.263 48.1228 298.806C44.9852 296.252 49.4551 291.83 52.5668 294.364Z" fill="white"/>
<path d="M624.5 518.862H259.5V144.462C259.5 64.805 324.322 0 404 0H480C559.678 0 624.5 64.805 624.5 144.462V518.862Z" fill="#F2F2F2"/>
<path d="M548.5 518.862H259.5V144.462C259.42 113.939 269.088 84.1879 287.096 59.5398C287.76 58.6353 288.422 57.7424 289.104 56.8594C297.815 45.4385 308.18 35.3803 319.859 27.0167C320.518 26.5369 321.181 26.0653 321.853 25.5938C331.625 18.833 342.196 13.3062 353.325 9.13917C353.986 8.88875 354.659 8.63783 355.332 8.39716C365.397 4.8062 375.83 2.3464 386.44 1.0632C387.098 0.973369 387.773 0.903079 388.448 0.832788C398.787 -0.272388 409.215 -0.272388 419.554 0.832788C420.227 0.903079 420.902 0.973361 421.568 1.06416C432.175 2.34745 442.606 4.80694 452.668 8.39721C453.341 8.63787 454.014 8.88877 454.677 9.13969C465.669 13.2542 476.115 18.6985 485.783 25.3512C486.455 25.8125 487.127 26.2841 487.79 26.7556C494.336 31.4271 500.485 36.6314 506.173 42.3154C510.735 46.8746 514.986 51.7345 518.898 56.8624C519.578 57.7425 520.241 58.6353 520.903 59.5384C538.911 84.1867 548.58 113.938 548.5 144.462V518.862Z" fill="#CCCCCC"/>
<path d="M525 351.406C533.837 351.406 541 344.245 541 335.411C541 326.576 533.837 319.415 525 319.415C516.163 319.415 509 326.576 509 335.411C509 344.245 516.163 351.406 525 351.406Z" fill="#0582CA"/>
<path d="M594.599 507.648H582.339L576.506 460.372L594.601 460.373L594.599 507.648Z" fill="#FFB8B8"/>
<path d="M573.582 504.146H597.226V519.028H558.695C558.695 517.074 559.08 515.139 559.828 513.333C560.576 511.527 561.673 509.887 563.055 508.505C564.437 507.123 566.079 506.026 567.885 505.278C569.691 504.53 571.627 504.146 573.582 504.146Z" fill="#2F2E41"/>
<path d="M655.599 507.648H643.339L637.506 460.372L655.601 460.373L655.599 507.648Z" fill="#FFB8B8"/>
<path d="M634.582 504.146H658.226V519.028H619.695C619.695 517.074 620.08 515.139 620.828 513.333C621.576 511.527 622.673 509.887 624.055 508.505C625.437 507.123 627.079 506.026 628.885 505.278C630.691 504.53 632.627 504.146 634.582 504.146Z" fill="#2F2E41"/>
<path d="M533.098 338.579C532.216 337.28 531.629 335.804 531.38 334.254C531.131 332.703 531.224 331.117 531.654 329.607C532.084 328.097 532.84 326.7 533.869 325.513C534.898 324.327 536.174 323.38 537.608 322.741L579.284 207.905L599.791 219.093L552.206 328.834C553.122 331.314 553.096 334.044 552.133 336.506C551.17 338.968 549.337 340.991 546.982 342.192C544.626 343.393 541.912 343.689 539.353 343.023C536.794 342.357 534.568 340.776 533.098 338.579Z" fill="#FFB8B8"/>
<path d="M649.336 360.158C647.974 359.377 646.799 358.307 645.895 357.023C644.991 355.739 644.38 354.272 644.104 352.727C643.828 351.181 643.895 349.594 644.299 348.076C644.703 346.559 645.435 345.149 646.443 343.945L633.533 222.468L656.87 223.534L662.236 343.023C664.147 344.85 665.32 347.315 665.535 349.95C665.749 352.584 664.989 355.206 663.399 357.318C661.809 359.43 659.499 360.886 656.907 361.409C654.316 361.933 651.622 361.487 649.336 360.158Z" fill="#FFB8B8"/>
<path d="M612.106 186.634C625.671 186.634 636.667 175.64 636.667 162.079C636.667 148.518 625.671 137.525 612.106 137.525C598.541 137.525 587.545 148.518 587.545 162.079C587.545 175.64 598.541 186.634 612.106 186.634Z" fill="#FFB8B8"/>
<path d="M649.18 332.53H575.133L575.222 331.954C575.355 331.093 588.419 245.538 578.784 217.549C577.817 214.798 577.902 211.787 579.022 209.095C580.143 206.404 582.22 204.222 584.853 202.969C598.625 196.485 625.061 188.502 647.373 207.877C650.657 210.775 653.221 214.397 654.862 218.456C656.504 222.516 657.179 226.901 656.833 231.267L649.18 332.53Z" fill="#0582CA"/>
<path d="M589.354 258.182L556.018 251.42L571.644 214.4C572.579 210.815 574.899 207.746 578.094 205.868C581.289 203.99 585.098 203.455 588.687 204.382C592.276 205.308 595.351 207.619 597.237 210.809C599.124 213.999 599.668 217.806 598.75 221.396L589.354 258.182Z" fill="#0582CA"/>
<path d="M632.05 270.736L630.046 224.807C628.526 216.173 633.47 208.011 641.074 206.677C648.679 205.348 656.105 211.336 657.632 220.033L665.165 262.949L632.05 270.736Z" fill="#0582CA"/>
<path d="M646.716 327.031C658.631 372.396 659.93 430.073 656.716 492.987L640.716 490.988L611.716 371.02L595.716 492.987L577.716 491.988C572.339 425.975 567.103 369.305 575.716 332.03L646.716 327.031Z" fill="#2F2E41"/>
<path d="M628.289 181.056C623.707 185.935 615.198 183.316 614.601 176.65C614.554 176.132 614.557 175.611 614.611 175.094C614.919 172.142 616.626 169.461 616.217 166.343C616.124 165.567 615.835 164.828 615.377 164.195C611.726 159.307 603.154 166.381 599.709 161.956C597.596 159.243 600.079 154.971 598.458 151.938C596.318 147.936 589.979 149.91 586.004 147.718C581.581 145.279 581.846 138.496 584.757 134.369C588.308 129.337 594.533 126.652 600.681 126.265C606.828 125.878 612.933 127.539 618.673 129.775C625.194 132.316 631.661 135.827 635.674 141.56C640.554 148.531 641.023 157.903 638.583 166.055C637.098 171.014 632.031 177.071 628.289 181.056Z" fill="#2F2E41"/>
<path d="M839.982 519.506H101.688C101.372 519.505 101.07 519.379 100.848 519.156C100.625 518.933 100.5 518.63 100.5 518.315C100.5 518 100.625 517.698 100.848 517.474C101.07 517.251 101.372 517.125 101.688 517.124H839.982C840.297 517.125 840.599 517.251 840.821 517.474C841.044 517.698 841.169 518 841.169 518.315C841.169 518.63 841.044 518.933 840.821 519.156C840.599 519.379 840.297 519.505 839.982 519.506Z" fill="#3F3D56"/>
<path d="M469 410.391H339C337.288 410.4 335.642 409.73 334.424 408.527C333.205 407.325 332.513 405.689 332.5 403.977V113.885C332.513 112.173 333.205 110.537 334.424 109.335C335.642 108.132 337.288 107.462 339 107.471H469C470.712 107.462 472.358 108.132 473.576 109.335C474.795 110.537 475.487 112.173 475.5 113.885V403.977C475.487 405.689 474.795 407.325 473.576 408.527C472.358 409.73 470.712 410.4 469 410.391Z" fill="white"/>
<path d="M475.5 201.336H332.5V203.336H475.5V201.336Z" fill="#CCCCCC"/>
<path d="M476 315.416H333V317.416H476V315.416Z" fill="#CCCCCC"/>
<path d="M379.5 107.471H377.5V411.39H379.5V107.471Z" fill="#CCCCCC"/>
<path d="M429.5 107.471H427.5V411.39H429.5V107.471Z" fill="#CCCCCC"/>
</g>
<defs>
<clipPath id="clip0_33_305">
<rect width="870" height="520" fill="white"/>
</clipPath>
</defs>
</svg>
