<svg width="401" height="330" viewBox="0 0 401 330" fill="none" xmlns="http://www.w3.org/2000/svg">
<g clip-path="url(#clip0_227_76)">
<path d="M155.032 93.476C155.032 93.476 161.712 143.809 151.436 149.461C141.159 155.113 212.578 155.625 212.578 155.625C212.578 155.625 196.65 111.967 203.843 98.6111L155.032 93.476Z" fill="#FFB9B9"/>
<path d="M181.493 120.227C201.073 120.227 216.946 104.36 216.946 84.7866C216.946 65.2136 201.073 49.3465 181.493 49.3465C161.914 49.3465 146.041 65.2136 146.041 84.7866C146.041 104.36 161.914 120.227 181.493 120.227Z" fill="#FFB9B9"/>
<path d="M264.728 155.879L258.789 182.916L246.23 240.118L245.854 243.251L241.52 279.517L238.637 303.609L236.703 319.793C224.95 325.831 216.431 330 216.431 330C216.431 330 215.698 326.328 214.517 321.629C206.268 324.101 191.004 328.202 178.069 329.022C182.78 334.27 110.035 200.767 107.243 182.916C104.997 168.55 103.309 156.409 102.952 153.826C102.904 153.489 102.88 153.315 102.88 153.315L157.083 129.372C160.935 138.303 178.923 140.987 178.923 140.987C193.825 139.961 205.506 132.105 205.506 132.105L264.728 155.879Z" fill="#0582CA"/>
<path d="M152 51.2637L145.372 48.613C145.372 48.613 159.232 33.359 178.515 34.6849L173.091 28.716C173.091 28.716 186.349 23.4103 198.402 37.338C204.737 44.6591 212.068 53.2652 216.638 62.9594H223.737L220.774 69.4811L231.143 76.0027L220.5 74.8311C221.134 78.4024 221.232 82.0483 220.789 85.6483C220.333 89.2497 218.494 92.533 215.662 94.8052C215.662 94.8052 207.441 77.7926 207.441 75.142V81.774C207.441 81.774 200.813 75.8051 200.813 71.8257L197.197 76.4683L195.389 69.1731L173.093 76.4683L176.709 70.4994L162.848 72.4889L168.272 65.1937C168.272 65.1937 152.604 73.8157 152.002 81.1108C151.399 88.406 146.813 95.3189 146.813 95.3189C146.813 95.3189 134.524 61.2119 152 51.2637Z" fill="#090814"/>
<path d="M303.263 280.177C299.652 284.09 290.704 289.984 279.857 296.365C275.821 298.736 271.526 301.18 267.144 303.609C256.687 309.407 245.738 315.151 236.703 319.792C224.95 325.831 216.431 330 216.431 330C216.431 330 215.698 326.328 214.517 321.629C212.935 315.339 210.554 307.209 208.071 303.609C207.984 303.484 207.897 303.368 207.811 303.252C207.087 302.303 206.36 301.749 205.641 301.749L241.52 279.517L257.024 269.907L245.854 243.251L231.844 209.813L240.3 182.916L248.799 155.879H264.728C264.728 155.879 270.002 167.388 276.747 183.437C277.755 185.837 278.796 188.338 279.857 190.921C293.732 224.657 311.031 271.765 303.263 280.177Z" fill="#0582CA"/>
<path d="M142.958 303.291C141.649 303.286 140.343 303.392 139.053 303.609C127.969 305.513 124.7 315.542 123.77 322.26C123.472 324.312 123.359 326.386 123.432 328.458L113.641 320.93L110.073 318.188C101.487 315.195 93.8358 309.879 87.202 303.609C81.4471 298.073 76.2848 291.953 71.7987 285.348C67.3305 278.838 63.3472 272.008 59.8811 264.914C58.914 262.934 58.3941 260.766 58.3582 258.563C58.3224 256.36 58.7715 254.176 59.6738 252.166L71.7987 225.154L89.521 185.673C89.6495 184.733 89.7926 183.814 89.95 182.916C93.4646 162.771 102.88 153.826 102.88 153.826H110.073L114.885 182.916L120.863 219.057L116.673 232.715L106.993 264.258L116.244 274.302L142.958 303.291Z" fill="#0582CA"/>
<path d="M291.283 319.708V322.633C291.284 323.436 291.135 324.232 290.844 324.981C290.714 325.314 290.558 325.636 290.376 325.944C289.802 326.909 288.986 327.707 288.01 328.261C287.034 328.815 285.931 329.106 284.808 329.106H69.5232C68.4006 329.107 67.2971 328.815 66.3209 328.261C65.3448 327.707 64.5295 326.909 63.9549 325.944C63.7731 325.636 63.6167 325.314 63.4873 324.981C63.1957 324.232 63.0469 323.436 63.0485 322.633V319.708C63.0483 318.858 63.2156 318.016 63.5409 317.231C63.8662 316.446 64.3431 315.732 64.9444 315.131C65.5456 314.53 66.2595 314.053 67.0452 313.728C67.8308 313.403 68.6729 313.235 69.5232 313.236H81.9341V311.872C81.934 311.836 81.941 311.801 81.9545 311.768C81.9681 311.736 81.988 311.706 82.013 311.681C82.0381 311.656 82.0679 311.636 82.1007 311.622C82.1335 311.609 82.1686 311.602 82.2041 311.602H88.6788C88.7142 311.602 88.7494 311.609 88.7822 311.622C88.8149 311.636 88.8447 311.656 88.8698 311.681C88.8949 311.706 88.9148 311.736 88.9283 311.768C88.9419 311.801 88.9488 311.836 88.9487 311.872V313.236H92.9936V311.872C92.9936 311.836 93.0005 311.801 93.014 311.768C93.0276 311.736 93.0475 311.706 93.0726 311.681C93.0976 311.656 93.1274 311.636 93.1602 311.622C93.193 311.609 93.2281 311.602 93.2636 311.602H99.7383C99.7738 311.602 99.8089 311.609 99.8417 311.622C99.8745 311.636 99.9043 311.656 99.9293 311.681C99.9544 311.706 99.9743 311.736 99.9879 311.768C100.001 311.801 100.008 311.836 100.008 311.872V313.236H104.058V311.872C104.058 311.836 104.065 311.801 104.078 311.768C104.092 311.736 104.112 311.706 104.137 311.681C104.162 311.656 104.192 311.636 104.225 311.622C104.257 311.609 104.292 311.602 104.328 311.602H110.803C110.838 311.602 110.873 311.609 110.906 311.622C110.939 311.636 110.969 311.656 110.994 311.681C111.019 311.706 111.039 311.736 111.052 311.768C111.066 311.801 111.073 311.836 111.073 311.872V313.236H115.117V311.872C115.117 311.836 115.124 311.801 115.138 311.768C115.151 311.736 115.171 311.706 115.196 311.681C115.222 311.656 115.251 311.636 115.284 311.622C115.317 311.609 115.352 311.602 115.387 311.602H121.862C121.898 311.602 121.933 311.609 121.966 311.622C121.998 311.636 122.028 311.656 122.053 311.681C122.078 311.706 122.098 311.736 122.112 311.768C122.125 311.801 122.132 311.836 122.132 311.872V313.236H126.177V311.872C126.177 311.836 126.184 311.801 126.197 311.768C126.211 311.736 126.231 311.706 126.256 311.681C126.281 311.656 126.311 311.636 126.344 311.622C126.376 311.609 126.412 311.602 126.447 311.602H132.922C132.957 311.602 132.992 311.609 133.025 311.622C133.058 311.636 133.088 311.656 133.113 311.681C133.138 311.706 133.158 311.736 133.171 311.768C133.185 311.801 133.192 311.836 133.192 311.872V313.236H137.241V311.872C137.241 311.836 137.248 311.801 137.262 311.768C137.275 311.736 137.295 311.706 137.32 311.681C137.345 311.656 137.375 311.636 137.408 311.622C137.441 311.609 137.476 311.602 137.511 311.602H143.986C144.022 311.602 144.057 311.609 144.089 311.622C144.122 311.636 144.152 311.656 144.177 311.681C144.202 311.706 144.222 311.736 144.236 311.768C144.249 311.801 144.256 311.836 144.256 311.872V313.236H148.301V311.872C148.301 311.836 148.308 311.801 148.321 311.768C148.335 311.736 148.355 311.706 148.38 311.681C148.405 311.656 148.435 311.636 148.467 311.622C148.5 311.609 148.535 311.602 148.571 311.602H199.288C199.324 311.602 199.359 311.609 199.392 311.622C199.425 311.636 199.454 311.656 199.48 311.681C199.505 311.706 199.525 311.736 199.538 311.768C199.552 311.801 199.559 311.836 199.558 311.872V313.236H203.608V311.872C203.608 311.836 203.615 311.801 203.629 311.768C203.642 311.736 203.662 311.706 203.687 311.681C203.712 311.656 203.742 311.636 203.775 311.622C203.808 311.609 203.843 311.602 203.878 311.602H210.353C210.424 311.603 210.492 311.631 210.543 311.682C210.593 311.732 210.622 311.8 210.623 311.872V313.236H214.668V311.872C214.668 311.836 214.675 311.801 214.688 311.768C214.702 311.736 214.722 311.706 214.747 311.681C214.772 311.656 214.802 311.636 214.834 311.622C214.867 311.609 214.902 311.602 214.938 311.602H221.412C221.448 311.602 221.483 311.609 221.516 311.622C221.549 311.636 221.578 311.656 221.603 311.681C221.628 311.706 221.648 311.736 221.662 311.768C221.675 311.801 221.682 311.836 221.682 311.872V313.236H225.727V311.872C225.727 311.836 225.734 311.801 225.748 311.768C225.761 311.736 225.781 311.706 225.806 311.681C225.831 311.656 225.861 311.636 225.894 311.622C225.927 311.609 225.962 311.602 225.997 311.602H232.472C232.507 311.602 232.542 311.609 232.575 311.622C232.608 311.636 232.638 311.656 232.663 311.681C232.688 311.706 232.708 311.736 232.721 311.768C232.735 311.801 232.742 311.836 232.742 311.872V313.236H236.792V311.872C236.792 311.836 236.798 311.801 236.812 311.768C236.826 311.736 236.845 311.706 236.871 311.681C236.896 311.656 236.925 311.636 236.958 311.622C236.991 311.609 237.026 311.602 237.062 311.602H243.536C243.607 311.603 243.675 311.632 243.724 311.682C243.774 311.733 243.802 311.801 243.801 311.872V313.236H247.851V311.872C247.851 311.836 247.858 311.801 247.872 311.768C247.885 311.736 247.905 311.706 247.93 311.681C247.955 311.656 247.985 311.636 248.018 311.622C248.05 311.609 248.086 311.602 248.121 311.602H254.596C254.631 311.602 254.666 311.609 254.699 311.622C254.732 311.636 254.762 311.656 254.787 311.681C254.812 311.706 254.832 311.736 254.845 311.768C254.859 311.801 254.866 311.836 254.866 311.872V313.236H258.911V311.872C258.911 311.836 258.917 311.801 258.931 311.768C258.945 311.736 258.964 311.706 258.99 311.681C259.015 311.656 259.044 311.636 259.077 311.622C259.11 311.609 259.145 311.602 259.181 311.602H265.655C265.691 311.602 265.726 311.609 265.759 311.622C265.791 311.636 265.821 311.656 265.846 311.681C265.871 311.706 265.891 311.736 265.905 311.768C265.918 311.801 265.925 311.836 265.925 311.872V313.236H284.809C285.66 313.235 286.502 313.403 287.287 313.728C288.073 314.053 288.787 314.53 289.388 315.131C289.99 315.732 290.466 316.446 290.792 317.231C291.117 318.016 291.284 318.858 291.284 319.708H291.283Z" fill="#090814"/>
<path d="M353.884 329.036H0.5V330H353.884V329.036Z" fill="#CCCCCC"/>
<path d="M273.948 196.509H193.705V194.856H157.319V196.509H76.7452C75.306 196.509 73.9258 197.081 72.908 198.098C71.8902 199.115 71.3181 200.495 71.3176 201.934V311.775C71.3176 312.488 71.458 313.194 71.7308 313.852C72.0036 314.51 72.4034 315.108 72.9075 315.612C73.4115 316.116 74.0099 316.516 74.6684 316.789C75.327 317.061 76.0328 317.202 76.7457 317.202H273.948C274.661 317.202 275.367 317.061 276.025 316.789C276.684 316.516 277.282 316.116 277.786 315.612C278.29 315.108 278.69 314.51 278.963 313.852C279.236 313.194 279.376 312.488 279.376 311.775V201.934C279.376 201.221 279.236 200.515 278.963 199.857C278.69 199.199 278.29 198.601 277.786 198.097C277.282 197.593 276.684 197.193 276.025 196.92C275.367 196.648 274.661 196.507 273.948 196.507V196.509Z" fill="#090814"/>
<path d="M175.505 246.906C182.161 246.906 187.557 241.512 187.557 234.858C187.557 228.203 182.161 222.809 175.505 222.809C168.848 222.809 163.452 228.203 163.452 234.858C163.452 241.512 168.848 246.906 175.505 246.906Z" stroke="#D0CDE1" stroke-width="2" stroke-miterlimit="10"/>
<path d="M171.648 251.244C178.304 251.244 183.701 245.849 183.701 239.195C183.701 232.541 178.304 227.146 171.648 227.146C164.991 227.146 159.595 232.541 159.595 239.195C159.595 245.849 164.991 251.244 171.648 251.244Z" fill="#F2F2F2"/>
<path d="M44.0275 94.7363C55.8699 94.7363 65.4701 85.1394 65.4701 73.301C65.4701 61.4626 55.8699 51.8656 44.0275 51.8656C32.185 51.8656 22.5848 61.4626 22.5848 73.301C22.5848 85.1394 32.185 94.7363 44.0275 94.7363Z" fill="#F2F2F2"/>
<path d="M51.5001 47.8289C49.5586 47.582 47.5937 47.582 45.6522 47.8289C41.3269 48.3968 37.2554 50.1931 33.9207 53.0045C30.5859 55.8159 28.1278 59.5246 26.838 63.6905C26.2514 65.5891 25.9193 67.5569 25.8501 69.5427C25.8405 69.8189 25.8337 70.0979 25.8337 70.3775C25.8397 76.4051 28.2377 82.1841 32.5013 86.4463C36.765 90.7085 42.546 93.1056 48.5757 93.1116C49.0578 93.1116 49.5437 93.0952 50.022 93.0663C51.143 92.996 52.2573 92.8418 53.3553 92.6051C58.5987 91.4778 63.275 88.5344 66.5581 84.2949C69.8413 80.0553 71.5202 74.7924 71.2982 69.4355C71.0763 64.0785 68.9678 58.9724 65.3452 55.0187C61.7226 51.0651 56.8189 48.5184 51.5001 47.8284V47.8289ZM55.6945 91.287H55.6911C53.8596 91.9117 51.9532 92.2906 50.022 92.4138C49.5442 92.4461 49.0602 92.462 48.5757 92.462C42.7192 92.4542 37.1048 90.1249 32.9639 85.985C28.8229 81.8451 26.4933 76.2324 26.486 70.378C26.486 70.0984 26.4923 69.8194 26.5024 69.5432C26.655 65.5218 27.9039 61.6185 30.1141 58.2551C32.3244 54.8916 35.412 52.1957 39.0434 50.4588C42.6748 48.7218 46.7119 48.0098 50.7186 48.3997C54.7254 48.7895 58.5494 50.2663 61.7776 52.6707C65.0058 55.075 67.5154 58.3154 69.0354 62.0418C70.5554 65.7683 71.0279 69.839 70.4019 73.8144C69.776 77.7897 68.0753 81.5185 65.4836 84.5979C62.892 87.6773 59.5078 89.9903 55.6969 91.287H55.6945Z" fill="#090814"/>
<path d="M48.9011 49.5923H48.2512V54.1389H48.9011V49.5923Z" fill="#090814"/>
<path d="M34.1029 55.4507L33.6434 55.9101L36.8594 59.125L37.319 58.6656L34.1029 55.4507Z" fill="#090814"/>
<path d="M27.7829 70.0531V70.7028H32.3311V70.0531H27.7829Z" fill="#090814"/>
<path d="M33.6428 84.8453L34.1024 85.3047L37.3184 82.0897L36.8589 81.6303L33.6428 84.8453Z" fill="#090814"/>
<path d="M59.8318 58.6653L60.2913 59.1246L63.5074 55.9097L63.0478 55.4503L59.8318 58.6653Z" fill="#090814"/>
<path d="M64.8198 70.0531V70.7028H69.368V70.0531H64.8198Z" fill="#090814"/>
<path d="M60.2924 81.6303L59.8329 82.0896L63.0489 85.3046L63.5085 84.8452L60.2924 81.6303Z" fill="#090814"/>
<path d="M48.9011 86.6165H48.2512V91.1632H48.9011V86.6165Z" fill="#090814"/>
<path d="M49.5505 69.0791C49.2694 68.8683 48.9274 68.7544 48.576 68.7544C48.2245 68.7544 47.8825 68.8683 47.6014 69.0791C47.4088 69.2253 47.2503 69.4114 47.1366 69.6247C46.9926 69.8994 46.9304 70.2095 46.9571 70.5185C46.9838 70.8274 47.0985 71.1223 47.2875 71.3682C47.4766 71.614 47.7321 71.8007 48.0238 71.906C48.3156 72.0114 48.6314 72.031 48.934 71.9626C49.2366 71.8942 49.5133 71.7407 49.7313 71.5201C49.9494 71.2996 50.0997 71.0212 50.1646 70.7179C50.2294 70.4147 50.206 70.0992 50.0972 69.8088C49.9884 69.5184 49.7987 69.2652 49.5505 69.0791ZM48.5757 71.3525C48.3174 71.3517 48.0699 71.2488 47.8873 71.0662C47.7046 70.8836 47.6017 70.6362 47.6009 70.378C47.6021 70.1809 47.662 69.9886 47.773 69.8257C47.8682 69.6877 47.9973 69.5767 48.148 69.5033C48.2987 69.4299 48.4658 69.3966 48.6331 69.4067C48.8004 69.4167 48.9623 69.4698 49.1031 69.5607C49.2438 69.6516 49.3588 69.7773 49.4367 69.9256C49.5147 70.074 49.553 70.2399 49.5481 70.4074C49.5431 70.5748 49.4949 70.7382 49.4083 70.8816C49.3217 71.0251 49.1995 71.1437 49.0535 71.2261C48.9076 71.3085 48.7428 71.3519 48.5752 71.352L48.5757 71.3525Z" fill="#090814"/>
<path d="M51.4991 42.1222H45.6512V47.9681H51.4991V42.1222Z" fill="#090814"/>
<path d="M48.5757 43.0972C52.8819 43.0972 56.3728 41.8612 56.3728 40.3366C56.3728 38.812 52.8819 37.576 48.5757 37.576C44.2694 37.576 40.7786 38.812 40.7786 40.3366C40.7786 41.8612 44.2694 43.0972 48.5757 43.0972Z" fill="#090814"/>
<path d="M49.55 58.0359H47.6008V69.0782H49.55V58.0359Z" fill="#090814"/>
<path d="M295.076 80.9701C293.495 74.3323 293.759 67.7943 296.466 61.3893C296.494 60.9929 296.679 60.6241 296.979 60.3637C297.279 60.1033 297.671 59.9726 298.067 60.0003L312.86 61.0495C313.257 61.0782 313.625 61.2628 313.886 61.5629C314.146 61.8631 314.277 62.2542 314.249 62.6505L312.859 82.2318C312.83 82.6282 312.646 82.997 312.345 83.2574C312.045 83.5178 311.654 83.6485 311.257 83.6208L296.467 82.5711C296.07 82.5431 295.701 82.3587 295.44 82.0585C295.179 81.7583 295.048 81.3668 295.076 80.9701Z" fill="#F2F2F2"/>
<path d="M296.63 75.1367C295.365 71.8657 296.174 67.3673 297.523 62.5483C297.55 62.1771 297.722 61.8315 298.004 61.5875C298.285 61.3436 298.651 61.2211 299.023 61.2471L311.736 62.1488C312.107 62.1754 312.453 62.3482 312.697 62.6293C312.941 62.9104 313.064 63.2768 313.038 63.6481L311.801 81.0723C311.774 81.4435 311.601 81.789 311.32 82.0329C311.039 82.2769 310.673 82.3994 310.301 82.3735L302.426 81.8149C300.772 81.6958 299.233 80.9258 298.146 79.6738C297.06 78.4218 296.514 76.7901 296.63 75.1367Z" fill="white"/>
<path d="M305.432 75.9902L304.267 75.7902C304.446 75.3681 304.549 74.9179 304.572 74.46C304.756 72.0093 304.774 69.5355 304.872 67.0796C304.87 66.9898 304.841 66.9026 304.79 66.8286C304.739 66.7546 304.668 66.697 304.585 66.6626C304.502 66.6282 304.411 66.6185 304.322 66.6348C304.234 66.6511 304.152 66.6925 304.087 66.7542L301.161 69.177C300.704 69.5548 301.359 70.2025 301.812 69.8276L303.912 68.0887C303.848 69.6978 303.783 71.3068 303.719 72.9159C303.688 73.687 303.782 74.6258 303.466 75.3521C303.423 75.4501 303.366 75.5417 303.298 75.6244L302.009 75.4027C301.7 75.3497 301.307 75.6075 301.443 75.9685C301.516 76.1458 301.625 76.3062 301.763 76.4399C301.901 76.5736 302.064 76.6778 302.243 76.7462C302.423 76.8145 302.614 76.8455 302.806 76.8374C302.998 76.8292 303.186 76.782 303.359 76.6986C303.426 76.6691 303.49 76.635 303.552 76.5965L305.191 76.8779C305.766 76.9767 306.015 76.0904 305.432 75.9902Z" fill="#0582CA"/>
<path d="M368.458 105.875C366.969 99.6231 367.217 93.4659 369.767 87.4334C369.794 87.0601 369.968 86.7128 370.251 86.4676C370.534 86.2223 370.902 86.0993 371.276 86.1254L385.209 87.1139C385.582 87.1408 385.929 87.3147 386.175 87.5974C386.42 87.8801 386.543 88.2486 386.517 88.6219L385.208 107.063C385.181 107.437 385.007 107.784 384.724 108.029C384.442 108.274 384.073 108.397 383.7 108.371L369.767 107.383C369.393 107.356 369.046 107.182 368.801 106.899C368.555 106.617 368.432 106.248 368.458 105.875Z" fill="#F2F2F2"/>
<path d="M369.92 100.381C368.729 97.3002 369.491 93.0634 370.762 88.525C370.787 88.1754 370.95 87.8501 371.215 87.6205C371.48 87.3908 371.825 87.2755 372.175 87.2999L384.148 88.1491C384.498 88.1742 384.824 88.3369 385.053 88.6017C385.283 88.8664 385.398 89.2115 385.374 89.5612L384.209 105.972C384.184 106.321 384.021 106.647 383.756 106.876C383.491 107.106 383.146 107.221 382.796 107.197L375.379 106.671C373.822 106.558 372.372 105.833 371.349 104.654C370.325 103.475 369.812 101.938 369.92 100.381Z" fill="white"/>
<path d="M377.737 97.2515C377.896 97.1772 378.047 97.0859 378.186 96.9792C378.557 96.6732 378.832 96.266 378.976 95.8072C379.121 95.3483 379.129 94.8575 379 94.3941C378.438 92.3309 375.969 92.3183 374.264 92.5665C373.714 92.6465 373.948 93.4822 374.495 93.4022C375.644 93.235 377.447 93.0996 378.062 94.3541C378.203 94.6487 378.253 94.9785 378.206 95.3016C378.159 95.6248 378.018 95.9267 377.799 96.1691C377.537 96.4317 377.192 96.5955 376.823 96.6327C376.466 96.4773 376.078 96.405 375.688 96.4211C375.287 96.4399 375.062 97.024 375.47 97.2284C375.829 97.4075 376.225 97.501 376.627 97.5017C376.96 97.6625 377.239 97.9181 377.427 98.2365C377.616 98.555 377.706 98.922 377.687 99.2916C377.61 99.8007 377.334 100.258 376.919 100.564C376.504 100.869 375.985 100.997 375.476 100.92H375.465C374.92 100.811 374.688 101.645 375.235 101.756C375.969 101.894 376.728 101.735 377.345 101.314C377.962 100.893 378.386 100.244 378.524 99.5099C378.532 99.4701 378.538 99.4302 378.544 99.3904C378.579 98.9961 378.525 98.5991 378.385 98.2288C378.245 97.8585 378.024 97.5244 377.737 97.2515Z" fill="#0582CA"/>
<path d="M368.629 30.958C366.836 23.4325 367.134 16.0207 370.204 8.75882C370.237 8.30952 370.446 7.89141 370.786 7.59622C371.127 7.30104 371.57 7.15291 372.02 7.18432L388.791 8.37375C389.24 8.4061 389.658 8.61537 389.954 8.95563C390.249 9.2959 390.397 9.73938 390.366 10.1887L388.789 32.3865C388.756 32.8358 388.547 33.2539 388.207 33.5491C387.866 33.8443 387.423 33.9924 386.973 33.961L370.204 32.7721C369.755 32.7397 369.337 32.5306 369.041 32.1905C368.746 31.8505 368.598 31.4072 368.629 30.958Z" fill="#F2F2F2"/>
<path d="M370.391 24.3438C368.957 20.6353 369.874 15.5354 371.404 10.0721C371.434 9.65128 371.63 9.25965 371.949 8.98317C372.268 8.70668 372.683 8.56793 373.104 8.59736L387.519 9.61956C387.94 9.64993 388.332 9.84593 388.608 10.1646C388.885 10.4832 389.024 10.8985 388.995 11.3194L387.592 31.0737C387.562 31.4945 387.366 31.8861 387.047 32.1626C386.728 32.4391 386.313 32.5778 385.892 32.5484L376.963 31.9151C375.088 31.7803 373.343 30.9074 372.111 29.488C370.879 28.0686 370.261 26.2185 370.391 24.3438Z" fill="white"/>
<path d="M379.256 14.4033C378.896 14.3007 378.519 14.277 378.149 14.3338C377.779 14.3907 377.426 14.5267 377.114 14.7327C376.801 14.9387 376.537 15.2097 376.34 15.5271C376.142 15.8446 376.015 16.201 375.968 16.572C375.778 18.2887 377.625 19.6435 379.224 19.1769C379.353 19.1366 379.462 19.0476 379.527 18.9288C379.592 18.81 379.608 18.6706 379.572 18.5401C379.536 18.4096 379.451 18.2981 379.334 18.2293C379.217 18.1605 379.079 18.1396 378.947 18.1711C377.775 18.5133 376.525 17.2477 377.198 16.1171C377.351 15.8441 377.584 15.6241 377.865 15.4863C378.146 15.3486 378.463 15.2996 378.772 15.346C379.035 15.4188 379.277 15.5521 379.479 15.7353C379.681 15.9185 379.837 16.1465 379.935 16.4009C380.51 17.6964 379.827 19.0116 378.923 19.9533C378.406 20.4902 377.8 20.9076 377.243 21.3992C376.972 21.6036 376.748 21.8626 376.583 22.1592C376.419 22.4559 376.318 22.7838 376.288 23.1216C376.303 23.5015 376.421 23.8701 376.63 24.1877C376.839 24.5052 377.131 24.7595 377.475 24.9231C378.364 25.3805 379.376 25.2349 380.322 25.0826C380.983 24.9761 380.702 23.9713 380.045 24.0768C379.217 24.2098 377.978 24.4118 377.453 23.5467C377.004 22.8079 377.93 22.1592 378.433 21.7664C379.7 20.7789 380.982 19.5013 381.172 17.8241C381.327 16.4511 380.628 14.879 379.256 14.4033Z" fill="#0582CA"/>
<path d="M244.767 67.6907C250.617 65.8732 256.879 67.8386 262.762 66.1615C264.114 65.7915 265.393 65.191 266.542 64.3865C267.522 63.6438 268.442 62.8253 269.293 61.9387C271.063 60.1892 272.984 58.3521 275.643 58.3723C279.143 58.3988 281.831 60.9984 284.164 63.2939C284.494 63.6182 285.002 63.1108 284.672 62.7859C282.529 60.677 280.212 58.4518 277.16 57.8219C275.791 57.5185 274.362 57.6371 273.062 58.1622C271.934 58.6745 270.903 59.3788 270.016 60.2437C269.077 61.1054 268.21 62.0433 267.257 62.8915C266.263 63.7958 265.117 64.5186 263.873 65.027C261.177 66.1003 258.219 66.2318 255.351 66.1986C251.75 66.1595 248.065 65.9142 244.577 66.9976C244.136 67.1345 244.324 67.8275 244.769 67.6902L244.767 67.6907Z" fill="#3F3D56"/>
<path d="M285.45 58.4542L287.248 61.623L288.116 63.1566C288.27 63.4288 288.429 63.6997 288.58 63.9758C288.672 64.1445 288.874 64.4491 288.682 64.6091C288.512 64.6919 288.322 64.7217 288.135 64.6944C287.818 64.6944 287.501 64.6882 287.184 64.6848L285.4 64.667L281.714 64.6298C281.619 64.6298 281.528 64.6677 281.46 64.735C281.393 64.8023 281.355 64.8937 281.355 64.9889C281.355 65.0841 281.393 65.1754 281.46 65.2428C281.528 65.3101 281.619 65.3479 281.714 65.3479C283.854 65.3696 285.995 65.4149 288.134 65.413C288.508 65.4481 288.882 65.3453 289.184 65.1238C289.333 64.9764 289.432 64.786 289.467 64.5795C289.501 64.3729 289.47 64.1608 289.377 63.973C289.166 63.5128 288.924 63.0679 288.651 62.6414L287.868 61.2611L286.07 58.0923C286.019 58.0156 285.941 57.9613 285.852 57.9405C285.762 57.9196 285.668 57.9339 285.589 57.9803C285.509 58.0267 285.451 58.1017 285.425 58.1899C285.399 58.2782 285.408 58.3729 285.45 58.4547L285.45 58.4542Z" fill="#3F3D56"/>
<path d="M332.58 58.7265C335.397 54.9086 340.208 53.2623 343.11 49.5166C343.784 48.6645 344.306 47.7026 344.653 46.6732C344.924 45.76 345.122 44.827 345.247 43.8827C345.548 41.9791 345.904 39.9506 347.573 38.7438C349.77 37.1534 352.641 37.5437 355.152 37.9062C355.225 37.9173 355.299 37.899 355.358 37.8553C355.418 37.8116 355.458 37.7461 355.469 37.6731C355.48 37.6002 355.461 37.5259 355.418 37.4664C355.374 37.407 355.309 37.3674 355.236 37.3563C352.929 37.0232 350.463 36.697 348.268 37.7042C347.274 38.1429 346.436 38.8725 345.866 39.7968C345.397 40.6349 345.077 41.5481 344.92 42.4957C344.728 43.4649 344.619 44.448 344.414 45.4143C344.208 46.4351 343.825 47.4119 343.281 48.3002C342.091 50.2073 340.304 51.6449 338.499 52.9413C336.233 54.5683 333.823 56.1067 332.141 58.3829C331.929 58.6721 332.364 59.0167 332.578 58.7275L332.58 58.7265Z" fill="#3F3D56"/>
<path d="M353.229 33.5046L356.556 34.9928L358.165 35.7129C358.451 35.8411 358.739 35.9649 359.024 36.0984C359.198 36.1799 359.542 36.3052 359.481 36.5485C359.439 36.7143 359.218 36.8473 359.091 36.9408C358.836 37.1293 358.576 37.311 358.32 37.4965L356.873 38.538L353.882 40.6903C353.806 40.7473 353.757 40.8316 353.743 40.925C353.73 41.0184 353.753 41.1134 353.809 41.1894C353.865 41.2654 353.949 41.3164 354.042 41.3312C354.135 41.346 354.231 41.3236 354.307 41.2687C356.043 40.019 357.796 38.7876 359.519 37.5192C359.84 37.3267 360.08 37.0233 360.193 36.6661C360.225 36.4591 360.191 36.2472 360.096 36.0606C360.001 35.8739 359.85 35.7219 359.663 35.6261C359.221 35.3803 358.761 35.1654 358.289 34.9832L356.843 34.335L353.516 32.8467C353.43 32.8143 353.334 32.8164 353.249 32.8525C353.164 32.8887 353.097 32.9561 353.06 33.0408C353.023 33.1255 353.021 33.2211 353.053 33.3077C353.084 33.3943 353.149 33.4653 353.231 33.506L353.229 33.5046Z" fill="#3F3D56"/>
<path d="M390.9 44.8423H366.891C366.626 44.8431 366.371 44.7386 366.183 44.5516C365.994 44.3646 365.888 44.1106 365.887 43.8454C365.887 43.5802 365.991 43.3255 366.178 43.1374C366.365 42.9492 366.619 42.8431 366.885 42.8422H390.897C391.029 42.8418 391.159 42.8673 391.28 42.9172C391.402 42.967 391.512 43.0403 391.606 43.1329C391.699 43.2255 391.773 43.3355 391.824 43.4567C391.874 43.5778 391.9 43.7078 391.901 43.8391C391.901 43.9705 391.876 44.1006 391.826 44.2221C391.776 44.3435 391.703 44.454 391.61 44.5472C391.517 44.6403 391.407 44.7143 391.286 44.765C391.165 44.8156 391.035 44.8419 390.904 44.8423H390.9Z" fill="#0582CA"/>
<path d="M331.808 88.0821C334.975 92.3743 340.383 94.2245 343.645 98.4352C344.403 99.3925 344.99 100.473 345.381 101.63C345.685 102.656 345.908 103.705 346.049 104.766C346.386 106.907 346.788 109.186 348.663 110.543C351.134 112.33 354.361 111.892 357.183 111.484C357.265 111.471 357.349 111.492 357.416 111.541C357.483 111.59 357.527 111.663 357.54 111.745C357.553 111.827 357.533 111.911 357.484 111.978C357.435 112.045 357.361 112.09 357.279 112.103C354.686 112.477 351.912 112.843 349.446 111.711C348.329 111.218 347.388 110.398 346.747 109.359C346.22 108.418 345.861 107.392 345.686 106.328C345.471 105.239 345.348 104.134 345.116 103.047C344.885 101.9 344.454 100.802 343.843 99.8034C342.505 97.6597 340.497 96.0443 338.468 94.5864C335.921 92.755 333.209 91.0282 331.32 88.4696C331.082 88.1467 331.571 87.7568 331.811 88.084L331.808 88.0821Z" fill="#3F3D56"/>
<path d="M355.298 115.998L358.625 114.509L360.234 113.789C360.52 113.661 360.809 113.537 361.093 113.404C361.268 113.322 361.611 113.197 361.55 112.954C361.509 112.788 361.287 112.655 361.16 112.561C360.905 112.373 360.645 112.191 360.389 112.006L358.942 110.964L355.951 108.812C355.876 108.755 355.826 108.671 355.812 108.577C355.799 108.484 355.823 108.389 355.878 108.313C355.934 108.237 356.018 108.186 356.111 108.171C356.205 108.156 356.3 108.179 356.377 108.234C358.112 109.483 359.865 110.715 361.588 111.983C361.909 112.175 362.149 112.479 362.263 112.836C362.295 113.043 362.261 113.255 362.165 113.442C362.07 113.628 361.919 113.78 361.732 113.876C361.29 114.122 360.831 114.337 360.358 114.519L358.912 115.167L355.586 116.655C355.499 116.688 355.403 116.686 355.318 116.65C355.234 116.614 355.166 116.546 355.129 116.461C355.092 116.377 355.09 116.281 355.122 116.194C355.154 116.108 355.218 116.037 355.301 115.996L355.298 115.998Z" fill="#3F3D56"/>
<path d="M386.668 114.231H366.724C366.507 114.227 366.3 114.138 366.148 113.984C365.996 113.829 365.91 113.621 365.909 113.404C365.908 113.187 365.992 112.978 366.143 112.823C366.294 112.667 366.5 112.576 366.717 112.57H386.668C386.885 112.574 387.092 112.663 387.244 112.818C387.396 112.972 387.482 113.18 387.483 113.397C387.484 113.614 387.4 113.823 387.249 113.979C387.098 114.135 386.892 114.225 386.675 114.231H386.668Z" fill="#0582CA"/>
<path d="M390.504 15.7895C394.479 16.5619 398.328 13.9667 399.101 9.99287C399.874 6.01908 397.278 2.17152 393.302 1.39909C389.327 0.626664 385.478 3.22188 384.706 7.19567C383.933 11.1695 386.529 15.017 390.504 15.7895Z" fill="#0582CA"/>
<path d="M390.656 11.2001C390.494 11.1689 390.347 11.086 390.236 10.9638L390.231 10.9564L388.79 9.33161C388.666 9.17826 388.606 8.9831 388.623 8.78675C388.639 8.5904 388.731 8.40801 388.879 8.27753C389.027 8.14705 389.219 8.07856 389.416 8.0863C389.613 8.09403 389.799 8.17742 389.936 8.31908L390.869 9.37169L394.114 6.49838C394.266 6.36388 394.465 6.29524 394.668 6.30754C394.871 6.31985 395.06 6.41209 395.195 6.56399C395.329 6.71605 395.398 6.91523 395.386 7.11771C395.373 7.32018 395.281 7.50952 395.13 7.64421L391.312 11.0226C391.224 11.1003 391.119 11.1567 391.005 11.1873C390.892 11.2179 390.773 11.222 390.658 11.1993L390.656 11.2001Z" fill="white"/>
<path d="M389.783 95.6293C394.045 96.4574 398.171 93.6752 399 89.415C399.828 85.1549 397.045 81.03 392.783 80.2019C388.522 79.3738 384.395 82.1561 383.567 86.4162C382.739 90.6764 385.522 94.8012 389.783 95.6293Z" fill="#0582CA"/>
<path d="M389.947 90.7092C389.773 90.6758 389.615 90.5868 389.497 90.4558L389.49 90.4481L387.946 88.709C387.801 88.5461 387.728 88.3326 387.741 88.1155C387.754 87.8984 387.854 87.6954 388.016 87.5513C388.179 87.4072 388.393 87.3337 388.61 87.347C388.827 87.3603 389.03 87.4593 389.175 87.6222L390.174 88.7493L393.654 85.669C393.734 85.5974 393.828 85.5424 393.93 85.5072C394.032 85.4719 394.14 85.4571 394.248 85.4636C394.355 85.4701 394.461 85.4978 394.558 85.5451C394.654 85.5923 394.741 85.6583 394.813 85.7391L394.791 85.7589L394.813 85.7382C394.885 85.8188 394.94 85.9127 394.975 86.0146C395.01 86.1165 395.025 86.2243 395.018 86.3319C395.012 86.4395 394.984 86.5448 394.937 86.6416C394.889 86.7385 394.823 86.8251 394.743 86.8964L390.649 90.5197C390.555 90.6031 390.442 90.6637 390.321 90.6966C390.199 90.7294 390.071 90.7337 389.947 90.7092Z" fill="white"/>
<path d="M313.957 69.8378C318.482 70.717 322.863 67.763 323.743 63.2397C324.622 58.7164 321.667 54.3369 317.142 53.4576C312.617 52.5784 308.236 55.5325 307.357 60.0557C306.477 64.579 309.432 68.9586 313.957 69.8378Z" fill="#0582CA"/>
<path d="M314.13 64.6146C313.946 64.5789 313.778 64.4845 313.652 64.3454L313.645 64.3366L312.005 62.4902C311.852 62.3171 311.774 62.0903 311.788 61.8597C311.802 61.629 311.907 61.4133 312.08 61.2601C312.253 61.1069 312.48 61.0286 312.711 61.0426C312.942 61.0566 313.157 61.1617 313.311 61.3347L314.372 62.5332L318.066 59.2625C318.239 59.1099 318.465 59.0321 318.696 59.046C318.926 59.0599 319.141 59.1644 319.294 59.3366C319.447 59.5097 319.525 59.7364 319.511 59.9669C319.497 60.1974 319.392 60.413 319.219 60.5662L314.877 64.4125C314.777 64.5011 314.657 64.5653 314.528 64.6002C314.399 64.6351 314.263 64.6398 314.132 64.6138L314.13 64.6146Z" fill="white"/>
</g>
<defs>
<clipPath id="clip0_227_76">
<rect width="400" height="330" fill="white" transform="translate(0.5)"/>
</clipPath>
</defs>
</svg>
