<svg width="240" height="280" viewBox="0 0 240 280" fill="none" xmlns="http://www.w3.org/2000/svg">
<g clip-path="url(#clip0_297_2236)">
<path d="M232.243 103.201H7.55143C5.54938 103.198 3.62998 102.402 2.21431 100.986C0.798645 99.5697 0.00231173 97.6498 0 95.6473V7.55324C0.00231173 5.55069 0.798645 3.63083 2.21431 2.21482C3.62998 0.798809 5.54938 0.00228178 7.55143 -3.05176e-05H232.243C234.245 0.00228178 236.164 0.798809 237.58 2.21482C238.996 3.63083 239.792 5.55069 239.794 7.55324V95.6473C239.792 97.6498 238.996 99.5697 237.58 100.986C236.164 102.402 234.245 103.198 232.243 103.201Z" fill="#F2F2F2"/>
<path d="M179.839 98.3832H43.2168C33.0359 98.3717 23.2753 94.3213 16.0763 87.1206C8.87732 79.9198 4.82789 70.1568 4.81641 59.9734V43.2313C4.82788 33.0479 8.8773 23.2848 16.0763 16.0841C23.2753 8.88327 33.0359 4.83279 43.2168 4.82124H196.577C206.758 4.83279 216.519 8.88327 223.717 16.0841C230.916 23.2848 234.966 33.0479 234.977 43.2313C234.961 57.8534 229.146 71.8719 218.809 82.2113C208.473 92.5507 194.457 98.3667 179.839 98.3832Z" fill="white"/>
<path d="M144.596 30.0397H54.2874C53.7708 30.0397 53.2755 29.8344 52.9103 29.4691C52.545 29.1038 52.3398 28.6083 52.3398 28.0917C52.3398 27.575 52.545 27.0796 52.9103 26.7142C53.2755 26.3489 53.7708 26.1437 54.2874 26.1437H144.596C145.113 26.1437 145.608 26.3489 145.973 26.7142C146.339 27.0796 146.544 27.575 146.544 28.0917C146.544 28.6083 146.339 29.1038 145.973 29.4691C145.608 29.8344 145.113 30.0397 144.596 30.0397Z" fill="#E6E6E6"/>
<path d="M190.312 50.8234H54.2874C53.7708 50.8234 53.2755 50.6182 52.9103 50.2529C52.545 49.8876 52.3398 49.3921 52.3398 48.8754C52.3398 48.3588 52.545 47.8633 52.9103 47.498C53.2755 47.1327 53.7708 46.9275 54.2874 46.9275H190.312C190.829 46.9275 191.324 47.1327 191.689 47.498C192.055 47.8633 192.26 48.3588 192.26 48.8754C192.26 49.3921 192.055 49.8876 191.689 50.2529C191.324 50.6182 190.829 50.8234 190.312 50.8234Z" fill="#E6E6E6"/>
<path d="M190.312 71.6072H54.2874C53.7708 71.6072 53.2755 71.402 52.9103 71.0367C52.545 70.6713 52.3398 70.1759 52.3398 69.6592C52.3398 69.1426 52.545 68.6471 52.9103 68.2818C53.2755 67.9165 53.7708 67.7112 54.2874 67.7112H190.312C190.829 67.7112 191.324 67.9165 191.689 68.2818C192.055 68.6471 192.26 69.1426 192.26 69.6592C192.26 70.1759 192.055 70.6713 191.689 71.0367C191.324 71.402 190.829 71.6072 190.312 71.6072Z" fill="#E6E6E6"/>
<path d="M190.312 71.6072H54.2874C53.7708 71.6072 53.2755 71.402 52.9103 71.0367C52.545 70.6713 52.3398 70.1759 52.3398 69.6592C52.3398 69.1426 52.545 68.6471 52.9103 68.2818C53.2755 67.9165 53.7708 67.7112 54.2874 67.7112H190.312C190.829 67.7112 191.324 67.9165 191.689 68.2818C192.055 68.6471 192.26 69.1426 192.26 69.6592C192.26 70.1759 192.055 70.6713 191.689 71.0367C191.324 71.402 190.829 71.6072 190.312 71.6072Z" fill="#E6E6E6"/>
<path d="M135.066 53.2089C135.088 53.7956 135.238 54.3705 135.506 54.893C135.774 55.4155 136.153 55.873 136.616 56.2331C137.08 56.5932 137.617 56.8472 138.189 56.9773C138.762 57.1074 139.356 57.1104 139.929 56.986L147.356 69.1731L150.517 62.4639L142.98 51.9193C142.707 50.9692 142.095 50.1521 141.261 49.6229C140.426 49.0938 139.426 48.8893 138.451 49.0482C137.475 49.2072 136.592 49.7185 135.968 50.4854C135.344 51.2522 135.023 52.2212 135.066 53.2089Z" fill="#FFB6B6"/>
<path d="M190.803 88.1364L165.208 74.2497L157.135 66.6735C157.135 66.6735 153.625 65.7336 154.917 64.5922C156.209 63.4507 152.527 62.3499 152.527 62.3499L148.194 58.2828L142.035 62.6413L143.817 65.4048C143.817 65.4048 143.695 69.9796 146.2 69.0995C148.706 68.2193 148.08 72.0135 148.08 72.0135L163.035 95.2017L190.803 88.1364Z" fill="#3F3D56"/>
<path d="M115.248 75.053C129.056 75.053 140.249 63.8573 140.249 50.0467C140.249 36.236 129.056 25.0403 115.248 25.0403C101.441 25.0403 90.248 36.236 90.248 50.0467C90.248 63.8573 101.441 75.053 115.248 75.053Z" fill="#6C63FF"/>
<path d="M190.881 270.278H185.683L183.209 250.223H190.881V270.278Z" fill="#FFB6B6"/>
<path d="M193.625 279.286H189.897L189.232 275.766L187.528 279.286H177.641C177.167 279.286 176.705 279.135 176.323 278.854C175.942 278.573 175.66 278.178 175.519 277.725C175.378 277.272 175.385 276.787 175.539 276.338C175.694 275.89 175.988 275.503 176.378 275.234L184.273 269.78V266.221L192.578 266.717L193.625 279.286Z" fill="#2F2E41"/>
<path d="M149.307 270.278H144.108L141.635 250.223H149.307V270.278Z" fill="#FFB6B6"/>
<path d="M152.049 279.286H148.321L147.656 275.766L145.952 279.286H136.064C135.591 279.286 135.129 279.135 134.747 278.854C134.365 278.573 134.084 278.178 133.942 277.725C133.801 277.272 133.809 276.787 133.963 276.338C134.118 275.89 134.412 275.503 134.802 275.234L142.697 269.78V266.221L151.002 266.717L152.049 279.286Z" fill="#2F2E41"/>
<path d="M185.366 118.603H159.129V148.479H185.366V118.603Z" fill="#FFB6B6"/>
<path d="M159.735 133.339L155.295 138.588L147.626 154.738L128.302 200.728L124.215 210.454L127.515 227.648C127.515 227.648 128.049 239.761 128.049 241.744C128.049 245.781 131.425 248.019 131.425 248.019L133.902 260.922L157.919 259.912C157.919 259.912 157.081 245.689 152.051 242.102C147.021 238.514 144.708 219.816 144.708 219.816L141.975 211.521L168.616 179.933L168.788 190.975L168.871 196.319C168.871 196.319 164.97 231.079 169.517 237.824C174.065 244.57 169.61 243.777 169.61 243.777L169.827 257.692L198.283 257.894L192.005 217.831C192.005 217.831 188.818 215.314 190.523 212.783C192.229 210.252 188.87 207.153 188.87 207.153L190.377 175.877C190.377 175.877 188.709 170.475 190.671 169.773C192.632 169.07 190.928 164.425 190.928 164.425L191.22 158.371L185.367 139.597L159.735 133.339Z" fill="#2F2E41"/>
<path d="M185.77 118.603L188.596 110.124L190.614 107.298L191.421 99.2229C191.421 77.4208 186.559 81.0513 186.559 81.0513L183.752 73.3834L170.835 72.9797L162.561 80.8527L155.699 83.2751L153.012 97.2407L157.919 112.143L159.13 120.218C156.82 124.483 157.015 122.465 158.928 125.668L181.734 131.926C189.807 134.752 189.807 127.485 188.188 125.668C186.569 123.851 185.77 118.603 185.77 118.603Z" fill="#3F3D56"/>
<path d="M175.625 70.2694C182.238 70.2694 187.599 64.9071 187.599 58.2923C187.599 51.6776 182.238 46.3153 175.625 46.3153C169.011 46.3153 163.65 51.6776 163.65 58.2923C163.65 64.9071 169.011 70.2694 175.625 70.2694Z" fill="#FFB6B6"/>
<path d="M191.61 74.2797C191.722 74.4701 191.791 74.6835 191.81 74.904C191.829 75.1246 191.798 75.3465 191.719 75.5533C191.64 75.7602 191.516 75.9466 191.355 76.0986C191.194 76.2507 191.001 76.3645 190.79 76.4316C189.184 76.9646 188.195 78.519 187.04 79.7625C185.89 81.002 184.037 82.0316 182.568 81.1877C181.103 80.348 181.002 78.2041 179.775 77.0413C178.58 75.9108 176.594 76.0481 175.189 76.9081L175.147 76.9339C174.905 77.092 174.621 77.1756 174.332 77.1743C174.043 77.173 173.76 77.0868 173.519 76.9265C173.278 76.7662 173.089 76.5387 172.976 76.2722C172.863 76.0058 172.83 75.712 172.882 75.4271C173.374 72.809 173.866 70.1911 174.358 67.5735C173.066 70.6865 171.19 73.5234 168.832 75.931C168.182 76.6808 167.359 77.2602 166.434 77.6187C165.595 77.8851 164.779 77.0171 163.964 77.1745C165.99 75.4021 172.804 64.0408 171.585 56.4464C170.152 56.6079 168.719 56.7694 167.286 56.9309C167.131 56.2526 166.8 55.6272 166.325 55.1181C166.383 55.7782 166.299 56.4431 166.079 57.0681C165.482 57.1368 164.88 57.2014 164.283 57.27C163.452 57.3629 162.547 57.4436 161.833 57.0076C160.642 56.2809 160.606 54.5609 160.945 53.2043C161.938 49.2598 164.949 45.9612 168.634 44.2332C172.32 42.5092 173.409 46.3488 177.292 45.1214C184.962 42.699 190.839 46.8414 192.909 54.5286C194.649 60.9764 193.386 67.8198 191.61 74.2797Z" fill="#2F2E41"/>
<path d="M224.761 279.547H210.099L210.036 279.433C209.848 279.093 209.667 278.732 209.498 278.362C207.988 275.128 207.349 271.429 206.786 268.165L206.362 265.706C206.311 265.408 206.349 265.101 206.473 264.825C206.597 264.55 206.8 264.317 207.057 264.157C207.313 263.998 207.612 263.919 207.914 263.93C208.216 263.941 208.508 264.042 208.752 264.22C210.98 265.841 213.21 267.462 215.44 269.08C216.284 269.695 217.248 270.406 218.172 271.175C218.261 270.742 218.354 270.308 218.447 269.88C218.511 269.584 218.662 269.314 218.881 269.105C219.099 268.896 219.375 268.756 219.673 268.705C219.971 268.653 220.278 268.692 220.554 268.816C220.83 268.94 221.062 269.143 221.222 269.4L222.938 272.157C224.189 274.17 225.293 276.154 225.068 278.293C225.069 278.319 225.067 278.345 225.062 278.371C225.017 278.722 224.934 279.068 224.813 279.401L224.761 279.547Z" fill="#F0F0F0"/>
<path d="M239.477 279.864L100.148 280C100.009 279.999 99.8762 279.944 99.7781 279.845C99.6801 279.746 99.625 279.613 99.625 279.474C99.625 279.335 99.6801 279.201 99.7781 279.103C99.8762 279.004 100.009 278.948 100.148 278.948L239.477 278.812C239.616 278.813 239.749 278.868 239.847 278.967C239.945 279.065 240 279.199 240 279.338C240 279.477 239.945 279.611 239.847 279.709C239.749 279.808 239.616 279.863 239.477 279.864Z" fill="#CACACA"/>
<path d="M112.975 83.7034L97.6497 70.758C97.1258 70.3145 96.7992 69.6813 96.7416 68.9972C96.6839 68.3132 96.8999 67.6342 97.3421 67.1092L100.163 63.7683C100.606 63.2443 101.239 62.9177 101.923 62.86C102.607 62.8023 103.286 63.0184 103.811 63.4607L119.136 76.4062C119.66 76.8496 119.987 77.4829 120.044 78.1669C120.102 78.8509 119.886 79.5299 119.444 80.0549L116.623 83.3958C116.18 83.9198 115.547 84.2465 114.863 84.3041C114.179 84.3618 113.5 84.1458 112.975 83.7034Z" fill="#3F3D56"/>
<path d="M98.4535 67.3786C98.2152 67.6615 98.0989 68.0274 98.1299 68.396C98.161 68.7646 98.337 69.1059 98.6193 69.3449L113.945 82.2903C114.228 82.5287 114.593 82.6451 114.962 82.614C115.33 82.5829 115.672 82.4069 115.911 82.1246L118.731 78.7837C118.97 78.5008 119.086 78.1349 119.055 77.7663C119.024 77.3976 118.848 77.0564 118.566 76.8174L103.24 63.8719C102.957 63.6336 102.591 63.5172 102.223 63.5483C101.854 63.5794 101.513 63.7554 101.274 64.0377L98.4535 67.3786Z" fill="white"/>
<path d="M107.451 72.4111C107.398 72.4855 107.328 72.5465 107.247 72.5893C107.166 72.6321 107.077 72.6554 106.985 72.6575L104.577 72.7128C104.5 72.7146 104.423 72.7011 104.351 72.6731C104.279 72.6452 104.213 72.6033 104.157 72.5498C104.101 72.4963 104.056 72.4324 104.025 72.3616C103.994 72.2908 103.977 72.2145 103.975 72.1371C103.973 72.0598 103.986 71.9828 104.014 71.9106C104.042 71.8385 104.084 71.7725 104.138 71.7165C104.191 71.6606 104.255 71.6157 104.326 71.5844C104.397 71.5532 104.473 71.5362 104.55 71.5344L106.126 71.4982L104.574 67.4036C104.519 67.2575 104.525 67.0956 104.589 66.9534C104.653 66.8112 104.771 66.7003 104.917 66.6449C105.063 66.5896 105.225 66.5945 105.367 66.6584C105.509 66.7223 105.621 66.8401 105.676 66.9859L107.523 71.8594C107.556 71.9476 107.568 72.0425 107.557 72.1361C107.546 72.2297 107.513 72.3194 107.461 72.3976L107.451 72.4111Z" fill="#6C63FF"/>
<path d="M107.761 73.4401C108.342 73.5254 108.897 73.737 109.387 74.0601C109.877 74.3832 110.291 74.8099 110.598 75.3101C110.905 75.8102 111.1 76.3718 111.167 76.9551C111.234 77.5384 111.172 78.1294 110.986 78.6863L122.29 87.3962L115.279 89.8097L105.619 81.1686C104.704 80.794 103.959 80.0969 103.524 79.2093C103.089 78.3217 102.994 77.3053 103.258 76.3527C103.522 75.4 104.126 74.5774 104.956 74.0406C105.786 73.5037 106.784 73.2901 107.761 73.4401Z" fill="#FFB6B6"/>
<path d="M166.612 77.7467L137.67 95.5462C137.67 95.5462 126 91.2274 128.281 89.2281C130.561 87.2288 123.301 85.8772 123.301 85.8772L115.281 80.4801L110.627 85.8902C110.627 85.8902 111.475 94.6778 112.918 93.1562C114.361 91.6346 116.517 95.7912 116.517 95.7912C116.517 95.7912 117.155 100.432 121.262 99.2645C125.369 98.0965 136.391 110.339 136.391 110.339L172.01 97.0511L166.612 77.7467Z" fill="#3F3D56"/>
<path d="M114.37 60.0777C114.035 60.0777 113.704 59.9996 113.404 59.8495C113.103 59.6993 112.842 59.4814 112.641 59.2128L107.34 52.1432C107.17 51.9161 107.046 51.6577 106.976 51.3827C106.905 51.1077 106.89 50.8215 106.93 50.5404C106.97 50.2594 107.065 49.989 107.21 49.7447C107.354 49.5005 107.546 49.2871 107.773 49.1167C108.231 48.7727 108.808 48.625 109.375 48.7061C109.656 48.7463 109.926 48.8414 110.171 48.9861C110.415 49.1307 110.628 49.3221 110.799 49.5492L114.267 54.1739L123.174 40.8103C123.492 40.3332 123.986 40.002 124.548 39.8896C125.11 39.7772 125.694 39.8927 126.171 40.2107C126.648 40.5288 126.979 41.0233 127.091 41.5855C127.204 42.1478 127.088 42.7316 126.77 43.2087L116.169 59.115C115.977 59.4027 115.719 59.6402 115.416 59.8076C115.114 59.975 114.776 60.0674 114.43 60.0771C114.41 60.0774 114.39 60.0777 114.37 60.0777Z" fill="white"/>
</g>
<defs>
<clipPath id="clip0_297_2236">
<rect width="240" height="280" fill="white"/>
</clipPath>
</defs>
</svg>
