<svg width="240" height="257" viewBox="0 0 240 257" fill="none" xmlns="http://www.w3.org/2000/svg">
<g clip-path="url(#clip0_94_1271)">
<path d="M123.577 50.7996L113.988 59.4519L108.928 53.8622L118.517 45.2098C118.585 43.2934 119.512 41.2655 121.221 39.7241C124.21 37.0271 128.445 36.8428 130.681 39.3125C132.917 41.7822 132.306 45.9706 129.317 48.6677C127.609 50.2091 125.494 50.926 123.577 50.7996Z" fill="#E8989B"/>
<path d="M82.2051 72.6199L115.219 44.2683L123.792 54.1617L86.0803 91.0319" fill="#0582CA"/>
<path d="M73.2584 89.1732L68.4707 108.061L101.53 107.654L97.7468 90.3956L73.2584 89.1732Z" fill="#E8989B"/>
<path d="M67.143 153.705L59.9654 185.055L46.7549 247.821L52.877 249.044L94.9564 155.496L67.143 153.705Z" fill="#E8989B"/>
<path d="M80.9619 160.846L94.2197 190.154L113.69 249.044L121.853 247.007L104.207 145.493L80.9619 160.846Z" fill="#E8989B"/>
<path d="M70.3269 100.285C70.3269 100.285 55.567 126.232 58.2586 154.895C58.2586 154.895 80.0186 171.345 114.975 156.118L100.586 98.7917L70.3269 100.285Z" fill="#090814"/>
<path d="M45.7326 255.305C45.0298 254.73 44.6505 254.088 44.6051 253.396C44.5533 252.606 44.9448 251.757 45.7686 250.874C45.7883 250.62 46.044 247.473 46.6138 246.91C46.566 246.741 46.2758 245.625 46.7515 244.899C46.9757 244.558 47.3369 244.359 47.8253 244.308L47.8465 244.306L47.8571 244.324C47.8708 244.349 49.2573 246.783 51.3428 246.997C52.5384 247.12 53.7355 246.498 54.9008 245.148C54.9427 245.049 55.272 243.405 55.4845 242.317L55.493 242.273L66.8563 248.311L73.4986 250.169C74.3335 250.403 74.9165 251.177 74.9165 252.053C74.9165 252.8 74.4864 253.491 73.8207 253.814L70.601 255.379C69.2557 256.033 67.7556 256.378 66.2629 256.378H48.7984C47.6669 256.378 46.5781 255.997 45.7326 255.305Z" fill="#090814"/>
<path d="M110.627 255.305C109.924 254.73 109.545 254.088 109.5 253.396C109.448 252.606 109.839 251.757 110.663 250.874C110.683 250.62 110.939 247.473 111.508 246.91C111.461 246.741 111.17 245.625 111.646 244.899C111.87 244.558 112.231 244.359 112.72 244.308L112.741 244.306L112.752 244.324C112.765 244.349 114.152 246.783 116.237 246.997C117.433 247.12 118.63 246.498 119.795 245.148C119.837 245.049 120.166 243.405 120.379 242.317L120.388 242.273L131.751 248.311L138.393 250.169C139.228 250.403 139.811 251.177 139.811 252.053C139.811 252.8 139.381 253.491 138.715 253.814L135.496 255.379C134.15 256.033 132.65 256.378 131.157 256.378H113.693C112.561 256.378 111.473 255.997 110.627 255.305Z" fill="#090814"/>
<path d="M78.0088 30.5594C78.0088 23.2072 83.9788 17.2471 91.3433 17.2471C98.7077 17.2471 104.678 23.2072 104.678 30.5594C104.678 36.5221 100.751 41.5685 95.3383 43.2633L92.7605 60.2711L79.6193 49.3383C79.6193 49.3383 82.4582 45.7282 83.9806 41.6576C80.3823 39.2736 78.0088 35.194 78.0088 30.5594Z" fill="#E8989B"/>
<path d="M78.3681 43.7009L94.0738 53.7239L101.323 66.5049C103.422 70.2056 104.131 74.5321 103.323 78.7076L99.9918 95.9101H65.2646L70.7517 60.0203C71.4521 55.4395 73.1997 51.0813 75.8592 47.2836L78.3681 43.7009Z" fill="#0582CA"/>
<path d="M73.7277 48.0505C73.7277 48.0505 74.3504 52.7669 80.1194 52.9209C87.9211 53.1292 91.822 53.2333 91.822 53.2333C91.822 53.2333 81.9293 29.1981 85.997 31.9058C90.0648 34.6136 100.912 23.2619 100.912 23.2619L104.113 29.2548C104.113 29.2548 111.759 26.4903 103.285 19.721C103.285 19.721 93.1737 11.9167 82.4394 16.6032C71.7051 21.2897 73.7277 48.0505 73.7277 48.0505Z" fill="#090814"/>
<path d="M81.0553 133.455L80.775 120.554L88.32 120.391L88.6004 133.292C90.0081 134.597 90.9373 136.624 90.9873 138.922C91.0747 142.944 88.4431 146.262 85.1095 146.334C81.7758 146.406 79.0026 143.205 78.9152 139.184C78.8652 136.885 79.7056 134.82 81.0553 133.455Z" fill="#E8989B"/>
<path d="M91.4712 68.8848V131.418H78.3677L74.4951 69.4126" fill="#0582CA"/>
<path d="M168.807 256.515C168.807 256.784 168.591 257 168.321 257H0.485688C0.216315 257 0 256.784 0 256.515C0 256.246 0.216315 256.03 0.485688 256.03H168.321C168.591 256.03 168.807 256.246 168.807 256.515Z" fill="#CCCCCC"/>
<path d="M210.04 98.1125C231.95 77.3546 236.23 46.3457 219.601 28.8524C202.971 11.359 171.73 14.0055 149.82 34.7634C127.911 55.5214 123.631 86.5302 140.26 104.024C156.89 121.517 188.131 118.87 210.04 98.1125Z" fill="#D6D6E3"/>
<path d="M130.057 120.322C107.106 96.179 113.013 53.3829 143.251 24.7343C173.488 -3.91431 216.606 -7.56676 239.556 16.5763" stroke="#D6D6E3" stroke-width="3" stroke-miterlimit="10"/>
<path d="M201.104 47.9729H154.541C150.042 47.9729 146.396 51.6134 146.396 56.1045V76.5131C146.396 81.0041 150.042 84.6446 154.541 84.6446H162.463L163.491 91.4782C163.678 92.7177 165.083 93.3528 166.139 92.6746L178.644 84.6446H201.104C205.603 84.6446 209.249 81.0041 209.249 76.5131V56.1045C209.249 51.6134 205.603 47.9729 201.104 47.9729Z" fill="#090814"/>
<path d="M208.025 57.3446C213.885 57.3446 218.636 52.6015 218.636 46.7506C218.636 40.8996 213.885 36.1565 208.025 36.1565C202.164 36.1565 197.413 40.8996 197.413 46.7506C197.413 52.6015 202.164 57.3446 208.025 57.3446Z" fill="#0582CA"/>
</g>
<defs>
<clipPath id="clip0_94_1271">
<rect width="240" height="257" fill="white"/>
</clipPath>
</defs>
</svg>
