<svg width="240" height="168" viewBox="0 0 240 168" fill="none" xmlns="http://www.w3.org/2000/svg">
<g clip-path="url(#clip0_183_2423)">
<path d="M240 159.084H0V159.817H240V159.084Z" fill="#3F3D56"/>
<path d="M172.672 77.2135C170.45 63.8751 158.869 53.7106 144.917 53.7106H87.8593C73.9126 53.7106 62.3341 63.867 60.1041 77.1972C59.8467 78.7217 59.7139 80.2897 59.7139 81.8875V131.658C59.7139 133.255 59.8467 134.821 60.1041 136.345C61.8789 146.965 69.5906 155.573 79.7086 158.63C82.2882 159.411 85.0249 159.832 87.8593 159.832H144.917C147.751 159.832 150.488 159.411 153.068 158.63C163.188 155.57 170.903 146.957 172.672 136.329C172.927 134.81 173.06 133.25 173.06 131.658V81.8875C173.06 80.2951 172.927 78.7326 172.672 77.2135ZM149.745 158.63C148.177 158.909 146.564 159.056 144.917 159.056H87.8593C86.2118 159.056 84.5995 158.909 83.0306 158.63C70.2193 156.349 60.4916 145.14 60.4916 131.658V115.137C60.4916 68.4569 98.2888 54.4891 144.917 54.4891C160.031 54.4891 172.285 66.756 172.285 81.8875V131.658C135.593 136.573 162.557 156.349 149.745 158.63Z" fill="#3F3D56"/>
<path d="M127.742 91.2678L129.937 105.552L162.132 101.157L159.023 84.4674L127.742 91.2678Z" fill="#6C63FF"/>
<path d="M153.01 11.1133H139.698V24.9072H153.01V11.1133Z" fill="#2F2E41"/>
<path d="M140.913 25.7067L144.206 15.8176H150.624L150.961 25.7067H140.913Z" fill="#FFB6B6"/>
<path opacity="0.1" d="M140.913 25.7067L144.206 15.8176H150.624L150.961 25.7067H140.913Z" fill="black"/>
<path d="M144.388 113.793L144.022 151.884L143.656 154.815V159.021L149.144 159.576L149.51 151.152C149.51 151.152 155.364 134.67 153.9 121.851C152.437 109.032 153.168 112.694 153.168 112.694L144.388 113.793Z" fill="#FFB6B6"/>
<path d="M147.872 116.784L134.372 152.399L133.648 155.262L132.119 159.18L126.806 157.698L129.526 149.718C129.526 149.718 130.062 132.234 136.084 120.826C142.105 109.418 140.092 112.563 140.092 112.563L147.872 116.784Z" fill="#FFB6B6"/>
<path d="M140.913 24.608L131.034 29.0031L137.342 61.605L136.345 108.397L129.76 122.315C129.76 122.315 128.656 130.275 139.998 125.147C151.339 120.02 164.144 118.555 164.144 118.555L161.034 97.1281L158.291 40.9067L158.656 28.4537L150.608 23.326C150.608 23.326 140.913 24.608 140.913 24.608Z" fill="#2F2E41"/>
<path d="M135.411 122.824L124.449 104.453L136.976 61.605L131.035 29.0031L141.458 24.5359C141.458 24.5359 146.854 29.7963 146.854 34.1353C146.854 38.4742 135.411 122.824 135.411 122.824Z" fill="#E6E6E6"/>
<path d="M159.192 119.161L149.242 33.5919C149.116 32.5115 149.3 31.4175 149.773 30.438L152.62 24.5359L163.779 27.7212L159.293 62.7038L171.279 97.1281L159.192 119.161Z" fill="#E6E6E6"/>
<path d="M150.242 158.843C150.242 158.843 143.291 154.815 142.559 157.012C141.827 159.21 141.462 161.041 141.462 161.041C141.462 161.041 139.632 168 145.12 168C150.608 168 150.242 164.835 150.242 164.835V158.843Z" fill="#2F2E41"/>
<path d="M126.049 156.616C126.049 156.616 133.988 155.395 133.871 157.708C133.754 160.022 133.43 161.861 133.43 161.861C133.43 161.861 132.605 169.009 127.493 167.011C122.381 165.012 123.872 162.197 123.872 162.197L126.049 156.616Z" fill="#2F2E41"/>
<path d="M147.842 21.1998C152.865 21.1998 156.937 17.1232 156.937 12.0945C156.937 7.06583 152.865 2.98926 147.842 2.98926C142.819 2.98926 138.747 7.06583 138.747 12.0945C138.747 17.1232 142.819 21.1998 147.842 21.1998Z" fill="#FFB6B6"/>
<path d="M155.109 3.98043C154.686 1.73547 152.384 0.217019 150.11 0.0266097C147.835 -0.1638 145.608 0.695868 143.56 1.70381C142.172 2.38706 140.805 3.15718 139.68 4.2207C138.556 5.28422 137.683 6.67354 137.481 8.20899C137.409 8.75225 137.419 9.31983 137.197 9.82061C136.919 10.4462 136.323 10.871 135.964 11.4533C135.319 12.4975 135.615 14.0166 136.605 14.7414C135.361 15.2722 134.083 15.8258 133.135 16.7909C132.186 17.756 131.639 19.246 132.159 20.4955C132.343 20.9376 132.647 21.3245 132.805 21.7768C133.104 22.6357 132.819 23.6115 132.289 24.3501C131.759 25.0888 131.011 25.6366 130.276 26.1713C132.165 26.5419 134.093 26.8306 136.009 26.6577C137.926 26.4848 139.85 25.8124 141.238 24.4778C142.626 23.1433 143.389 21.0846 142.891 19.2236C142.51 17.798 141.443 16.5488 141.443 15.0729C141.444 13.9385 142.081 12.9151 142.696 11.9624C144.04 9.88175 145.384 7.80114 146.728 5.72052C146.969 5.34627 147.224 4.95897 147.606 4.73006C148.256 4.34062 149.099 4.51188 149.784 4.83511C150.469 5.15835 151.095 5.62209 151.825 5.8225C153.316 6.23153 155.045 5.29219 155.515 3.81809" fill="#2F2E41"/>
<path d="M149.737 22.4978C148.979 23.2326 147.886 23.4692 146.874 23.767C145.862 24.0647 144.785 24.533 144.33 25.4856C143.883 26.4198 144.207 27.6055 144.947 28.3297C145.686 29.0538 146.761 29.3589 147.795 29.3445C148.83 29.3301 149.838 29.0266 150.811 28.6742C153.471 27.7106 155.99 26.3589 158.264 24.675C156.791 24.2669 155.827 22.5447 156.249 21.0739C156.592 19.8774 157.641 19.0428 158.355 18.0236C159.584 16.2686 159.789 13.9553 159.382 11.851C158.975 9.74676 158.016 7.79615 157.068 5.8745C156.768 5.26704 156.462 4.6493 155.994 4.15949C155.526 3.66968 154.864 3.31877 154.191 3.38895C153.074 3.5054 152.361 4.73309 152.353 5.85745C152.346 6.98181 152.838 8.03852 153.212 9.09884C153.597 10.1913 153.865 11.3492 153.761 12.503C153.675 13.4699 153.323 14.4117 152.756 15.1988C152.318 15.8066 151.759 16.3167 151.282 16.8949C150.914 17.342 150.587 17.8484 150.49 18.4198C150.314 19.4596 150.923 20.5118 150.756 21.5532C150.58 22.6541 149.423 23.4969 148.322 23.3262" fill="#2F2E41"/>
<path d="M121.92 149.672C139.095 149.672 153.017 135.733 153.017 118.539C153.017 101.345 139.095 87.4067 121.92 87.4067C104.745 87.4067 90.8223 101.345 90.8223 118.539C90.8223 135.733 104.745 149.672 121.92 149.672Z" fill="#6C63FF"/>
<path d="M140.552 116.041H136.686C136.085 112.493 134.229 109.279 131.458 106.988C125.079 101.713 115.638 102.614 110.369 109C110.351 109.02 110.334 109.041 110.318 109.063C109.897 109.609 109.998 110.393 110.543 110.815C111.089 111.236 111.872 111.135 112.294 110.589C114.582 107.813 118.046 106.047 121.919 106.047C127.849 106.047 132.96 110.224 134.148 116.041H130.739C130.593 116.041 130.452 116.092 130.34 116.185C130.075 116.406 130.04 116.8 130.26 117.065L135.167 122.961C135.191 122.99 135.217 123.017 135.246 123.041C135.511 123.262 135.904 123.226 136.125 122.961L141.031 117.065C141.125 116.953 141.176 116.811 141.176 116.665C141.176 116.32 140.897 116.041 140.552 116.041Z" fill="white"/>
<path d="M133.296 126.263C132.75 125.842 131.967 125.943 131.546 126.489C129.73 128.69 127.217 130.202 124.424 130.774C117.67 132.159 111.074 127.799 109.691 121.038H113.1C113.444 121.037 113.724 120.758 113.724 120.413C113.723 120.267 113.672 120.125 113.579 120.013L108.672 114.117C108.452 113.852 108.058 113.816 107.794 114.037C107.765 114.061 107.738 114.088 107.714 114.117L102.808 120.013C102.587 120.278 102.623 120.672 102.888 120.893C103 120.986 103.141 121.037 103.287 121.038H107.153C107.754 124.586 109.61 127.799 112.382 130.091C118.76 135.365 128.201 134.464 133.47 128.078C133.488 128.058 133.505 128.037 133.521 128.015C133.943 127.469 133.841 126.685 133.296 126.263Z" fill="white"/>
<path d="M130.603 86.8754C130.227 89.5734 128.531 91.5657 126.816 91.3255C125.101 91.0853 124.016 88.7037 124.393 86.0048C124.529 84.9246 124.921 83.8928 125.537 82.9955L127.277 71.5842L132.609 72.5158L130.327 83.6663C130.674 84.6986 130.769 85.799 130.603 86.8754Z" fill="#FFB6B6"/>
<path d="M135.242 28.4537C135.242 28.4537 129.754 26.6224 129.022 33.2151C128.29 39.8078 127.559 47.8656 127.559 47.8656C127.559 47.8656 124.266 55.5572 125.729 59.5861C127.193 63.615 129.754 60.806 127.193 64.2249C124.632 67.6438 124.989 78.8927 124.989 78.8927L133.229 78.4774C133.229 78.4774 137.803 48.2319 137.803 47.4994C137.803 46.7668 135.242 28.4537 135.242 28.4537Z" fill="#E6E6E6"/>
<path d="M170.912 85.6507C171.014 88.3729 169.693 90.6322 167.963 90.697C166.232 90.7617 164.747 88.6075 164.646 85.8842C164.59 84.7969 164.795 83.7121 165.245 82.7206L164.958 71.1808L170.37 71.1615L170.078 82.5398C170.6 83.4952 170.886 84.5619 170.912 85.6507Z" fill="#FFB6B6"/>
<path d="M162.464 28.33C162.464 28.33 167.984 26.5971 168.598 33.2019C169.211 39.8067 169.799 51.9052 169.799 51.9052C169.799 51.9052 172.954 59.6544 171.419 63.6564C169.884 67.6585 167.374 64.8042 169.873 68.2684C172.373 71.7326 171.476 81.5019 171.476 81.5019L163.243 80.9393C163.243 80.9393 159.55 52.0881 159.564 51.3557C159.577 50.6233 162.464 28.33 162.464 28.33Z" fill="#E6E6E6"/>
</g>
<defs>
<clipPath id="clip0_183_2423">
<rect width="240" height="168" fill="white"/>
</clipPath>
</defs>
</svg>
