<svg width="240" height="229" viewBox="0 0 240 229" fill="none" xmlns="http://www.w3.org/2000/svg">
<g clip-path="url(#clip0_113_1519)">
<path d="M130.728 217.291C191.077 217.291 240 211.817 240 205.065C240 198.312 191.077 192.838 130.728 192.838C70.3788 192.838 21.4561 198.312 21.4561 205.065C21.4561 211.817 70.3788 217.291 130.728 217.291Z" fill="#3F3D56"/>
<path d="M184.921 191.536L186.805 197.351C186.805 197.351 195.881 206.741 192.599 209.286C189.316 211.831 181.951 198.414 181.951 198.414L180.594 191.85L184.921 191.536Z" fill="#FFB8B8"/>
<path d="M167.508 146.531L170.255 145.614C170.255 145.614 174.528 146.836 175.139 151.116C175.749 155.395 180.327 177.097 180.327 177.097C180.327 177.097 182.159 178.014 180.938 179.542C179.717 181.07 187.042 194.825 187.042 194.825L181.243 197.576C181.243 197.576 169.644 185.35 169.644 184.127C169.644 182.904 169.95 181.682 169.95 180.459C169.95 179.236 169.644 179.236 169.95 178.319C170.153 177.52 170.256 176.699 170.255 175.874L168.118 170.984L167.508 146.531Z" fill="#0582CA"/>
<path d="M27.5981 167.498C42.8402 167.498 55.1963 142.251 55.1963 111.107C55.1963 79.9631 42.8402 54.7161 27.5981 54.7161C12.3561 54.7161 0 79.9631 0 111.107C0 142.251 12.3561 167.498 27.5981 167.498Z" fill="#0582CA"/>
<path d="M27.3452 111.692C28.7218 87.1452 31.4956 70.5648 31.5235 70.4002L30.9216 70.2981C30.8938 70.4629 28.1151 87.0699 26.7362 111.648C25.4637 134.332 25.1567 168.644 30.9215 203.281L31.5236 203.181C25.7687 168.602 26.0749 134.343 27.3452 111.692Z" fill="#3F3D56"/>
<path d="M52.2646 99.671L27.3115 113.045L27.5996 113.584L52.5527 100.21L52.2646 99.671Z" fill="#3F3D56"/>
<path d="M1.25767 106.374L0.969727 106.913L25.9264 120.281L26.2143 119.742L1.25767 106.374Z" fill="#3F3D56"/>
<path d="M92.9622 154.333C113.82 154.333 130.728 119.784 130.728 77.1665C130.728 34.5486 113.82 0 92.9622 0C72.1046 0 55.1963 34.5486 55.1963 77.1665C55.1963 119.784 72.1046 154.333 92.9622 154.333Z" fill="#E6E6E6"/>
<path d="M92.5031 77.957C94.3872 44.3615 98.1836 21.669 98.2218 21.4436L97.62 21.3416C97.5818 21.5671 93.7805 44.2861 91.8941 77.9132C90.1529 108.949 89.7329 155.893 97.6198 203.281L98.2219 203.18C90.3449 155.851 90.7642 108.96 92.5031 77.957Z" fill="#3F3D56"/>
<path d="M126.769 61.6164L92.623 79.9185L92.9111 80.4575L127.057 62.1554L126.769 61.6164Z" fill="#3F3D56"/>
<path d="M56.8641 70.7893L56.5762 71.3284L90.7274 89.6211L91.0154 89.0821L56.8641 70.7893Z" fill="#3F3D56"/>
<path d="M61.5009 184.403C69.2939 184.403 75.6113 171.495 75.6113 155.571C75.6113 139.648 69.2939 126.74 61.5009 126.74C53.708 126.74 47.3906 139.648 47.3906 155.571C47.3906 171.495 53.708 184.403 61.5009 184.403Z" fill="#E6E6E6"/>
<path d="M61.4882 156.814L61.5717 156.97L74.3296 150.132L74.0417 149.593L61.5148 156.307C62.208 143.53 63.6258 134.953 63.6543 134.784L63.0525 134.682C63.0213 134.866 61.3368 145.052 60.7389 159.79L48.1044 153.018L47.8164 153.557L60.5743 160.396L60.7266 160.11C60.2482 172.275 60.5164 187.485 63.0524 202.723L63.6545 202.622C60.8895 186.009 60.8286 169.427 61.4882 156.814Z" fill="#3F3D56"/>
<path d="M171.243 117.516C166.337 109.142 156.63 108.752 156.63 108.752C156.63 108.752 147.171 107.53 141.104 120.283C135.448 132.17 127.643 143.647 139.847 146.43L142.051 139.5L143.417 146.946C145.154 147.072 146.898 147.102 148.638 147.036C161.708 146.61 174.155 147.161 173.755 142.424C173.222 136.126 175.964 125.573 171.243 117.516Z" fill="#2F2E41"/>
<path d="M137.044 184.588C136.907 185.463 136.709 186.328 136.449 187.175C136.158 188.004 135.707 188.771 135.44 189.608C134.59 192.278 135.769 195.254 137.652 197.315C139.281 199.092 141.389 200.356 143.722 200.956C145.421 201.387 147.188 201.449 148.939 201.509C153.787 201.675 158.761 201.824 163.355 200.25C164.807 199.74 166.209 199.097 167.543 198.328C167.965 198.125 168.336 197.83 168.63 197.464C168.98 196.96 169.025 196.306 169.022 195.691C169.012 193.615 168.595 191.549 168.694 189.475C168.749 188.327 168.961 187.179 168.857 186.034C168.716 184.738 168.179 183.517 167.319 182.538C166.459 181.56 165.319 180.87 164.053 180.565C162.75 180.282 161.398 180.436 160.071 180.565C156.627 180.9 153.168 181.056 149.708 181.033C146.173 181.011 142.66 180.465 139.142 180.409C138.102 180.392 138.123 180.716 137.792 181.733C137.486 182.669 137.237 183.622 137.044 184.588Z" fill="#2F2E41"/>
<path d="M123.221 182.901C122.271 182.659 121.291 182.554 120.311 182.588C119.281 182.653 118.277 182.935 117.363 183.415C116.449 183.895 115.646 184.562 115.007 185.374C114.374 186.198 113.919 187.144 113.672 188.153C113.424 189.163 113.389 190.212 113.569 191.236C113.806 192.344 114.194 193.415 114.722 194.418C115.494 196 116.419 197.578 117.848 198.592C118.708 199.149 119.635 199.594 120.606 199.918L128.13 202.781C129.237 203.202 130.344 203.624 131.462 204.014C137.075 205.974 142.931 207.15 148.864 207.509C150.671 207.617 152.505 207.647 154.267 207.232C154.698 207.175 155.092 206.96 155.374 206.628C155.517 206.375 155.602 206.093 155.621 205.803L156.084 202.529C156.188 202.073 156.174 201.599 156.045 201.149C155.833 200.599 155.301 200.253 154.794 199.959C149.847 197.089 144.072 195.506 139.908 191.567C138.928 190.64 138.108 189.171 136.917 188.541C135.567 187.827 133.976 187.419 132.58 186.761C129.529 185.322 126.528 183.669 123.221 182.901Z" fill="#2F2E41"/>
<path opacity="0.1" d="M130.732 187.314C133.392 188.156 144.62 193.988 146.544 196.024C146.286 196.117 137.534 191.163 137.271 191.083C134.884 190.36 132.484 189.631 130.216 188.572C129.76 188.359 127.253 187.358 127.367 186.776C127.495 186.121 130.26 187.165 130.732 187.314Z" fill="black"/>
<path d="M163.91 209.206C164.061 209.218 164.211 209.173 164.331 209.081C164.385 209.012 164.423 208.933 164.446 208.849C164.469 208.765 164.475 208.678 164.463 208.591L164.451 204.131C163.181 203.52 161.761 203.324 160.367 203.136L153.862 202.258C154.011 202.278 152.845 205.087 153.024 205.463C153.339 206.124 155.748 206.71 156.428 207.022C158.792 208.107 161.248 209.3 163.91 209.206Z" fill="#FFB8B8"/>
<path d="M143.502 204.116C142.274 204.313 140.903 204.488 140.108 205.453C139.099 206.678 139.528 208.504 140.009 210.021C140.081 210.327 140.224 210.612 140.428 210.852C140.756 211.179 141.259 211.227 141.72 211.256C142.84 211.328 144.032 211.384 145.01 210.829C145.454 210.533 145.881 210.213 146.289 209.869C147.01 209.385 147.803 209.018 148.639 208.784C150.174 208.296 151.755 207.967 153.357 207.802C153.988 207.773 154.613 207.662 155.215 207.471C155.517 207.372 155.792 207.205 156.019 206.982C156.246 206.76 156.419 206.488 156.524 206.188C156.751 205.377 156.284 204.551 155.837 203.84C155.28 202.954 154.69 202.022 153.859 201.37C152.647 200.419 152.047 201.149 150.826 201.758C148.518 202.909 146.048 203.704 143.502 204.116Z" fill="#FFB8B8"/>
<path d="M140.292 205.233L132.494 202.905C131.559 202.576 130.581 202.385 129.592 202.337C128.603 202.338 127.568 202.665 126.926 203.426C126.322 204.142 126.149 205.122 125.998 206.052L125.675 208.04C125.46 209.042 125.4 210.072 125.495 211.093C125.642 212.106 126.154 213.118 127.044 213.608C128.123 214.203 129.446 213.912 130.65 213.664C133.083 213.161 135.557 212.893 138.04 212.863C138.974 212.852 139.953 212.864 140.778 212.422C141.758 211.897 142.345 210.787 142.446 209.671C142.599 207.973 142.039 205.755 140.292 205.233Z" fill="#2F2E41"/>
<path d="M166.975 203.204C167.986 203.025 168.878 202.445 169.847 202.102C171.211 201.62 172.688 201.62 174.133 201.625C174.663 201.627 175.228 201.639 175.669 201.936C176.306 202.364 176.469 203.221 176.577 203.985L177.23 208.597C177.353 209.464 177.475 210.355 177.283 211.21C177.092 212.064 176.515 212.888 175.675 213.109C174.656 213.376 173.656 212.719 172.693 212.286C170.286 211.206 167.489 211.482 164.98 210.675C164.514 210.525 164.015 210.296 163.825 209.841C163.74 209.585 163.709 209.313 163.736 209.044C163.779 207.561 163.469 205.537 163.911 204.12C164.308 202.846 165.847 203.204 166.975 203.204Z" fill="#2F2E41"/>
<path d="M183.478 181.045C185.036 180.65 186.652 180.538 188.249 180.715C189.524 180.857 190.838 181.216 191.769 182.107C192.903 183.193 193.267 184.871 193.297 186.448C193.348 189.585 192.318 192.644 190.379 195.109C189.907 195.73 189.344 196.277 188.711 196.731C188.028 197.162 187.3 197.517 186.54 197.788L169.69 204.501C165.257 206.267 160.809 208.038 156.185 209.202C156.059 209.264 155.921 209.299 155.781 209.306C155.64 209.313 155.5 209.292 155.367 209.243C155.235 209.195 155.114 209.121 155.011 209.024C154.909 208.928 154.826 208.812 154.769 208.683C153.292 206.552 152.053 204.263 151.076 201.86C151.032 201.783 151.005 201.698 150.997 201.61C150.989 201.521 150.999 201.432 151.029 201.349C151.09 201.256 151.176 201.182 151.277 201.135L163.195 194.218C164.07 193.757 164.885 193.19 165.621 192.53C166.137 192.025 166.558 191.432 166.866 190.779C167.113 190.258 167.136 189.028 167.452 188.642C167.761 188.265 168.818 188.235 169.306 188.087C169.995 187.874 170.669 187.616 171.324 187.316C173.99 186.111 176.364 184.361 178.92 182.951C180.352 182.123 181.884 181.483 183.478 181.045Z" fill="#2F2E41"/>
<path opacity="0.1" d="M176.722 186.21C174.675 187.763 172.024 189.191 169.994 190.785C169.302 191.329 157.756 197.886 157.593 198.757C159.486 199.079 171.546 190.557 173.272 189.706C174.997 188.856 176.527 187.657 178.042 186.467C178.429 186.163 180.066 185.251 178.957 184.912C178.332 184.721 177.183 185.899 176.722 186.21Z" fill="black"/>
<path d="M156.215 138.583C162.621 138.583 167.814 133.383 167.814 126.968C167.814 120.554 162.621 115.353 156.215 115.353C149.809 115.353 144.616 120.554 144.616 126.968C144.616 133.383 149.809 138.583 156.215 138.583Z" fill="#FFB8B8"/>
<path d="M161.098 136.749C161.098 136.749 159.266 141.334 162.624 143.168C165.981 145.002 152.246 159.674 152.246 159.674L146.142 141.946C146.142 141.946 151.33 140.112 150.415 135.221L161.098 136.749Z" fill="#FFB8B8"/>
<path d="M153.467 149.282L160.859 141.11L170.865 146.225L169.339 182.293L166.897 185.044C166.897 185.044 156.519 194.214 140.648 186.572C140.648 186.572 135.153 181.987 135.459 174.957C135.764 167.927 134.848 167.01 134.848 167.01L134.543 142.252L149.612 139.29L153.467 149.282Z" fill="#0582CA"/>
<path d="M119.572 188.174L117.688 193.988C117.688 193.988 108.612 203.379 111.894 205.924C115.177 208.469 122.542 195.052 122.542 195.052L123.899 188.487L119.572 188.174Z" fill="#FFB8B8"/>
<path d="M136.985 143.168L134.238 142.251C134.238 142.251 129.965 143.474 129.354 147.753C128.744 152.033 124.165 173.735 124.165 173.735C124.165 173.735 122.334 174.651 123.555 176.18C124.776 177.708 117.45 191.463 117.45 191.463L123.25 194.214C123.25 194.214 134.848 181.987 134.848 180.765C134.848 179.542 134.543 178.319 134.543 177.097C134.543 175.874 134.848 175.874 134.543 174.957C134.339 174.158 134.237 173.337 134.238 172.512L136.374 167.621L136.985 143.168Z" fill="#0582CA"/>
<path d="M169.074 116.708L159.484 111.635L146.241 113.71L143.501 125.934L150.322 125.669L152.227 121.178V125.594L155.374 125.472L157.201 118.323L158.342 125.934L169.531 125.703L169.074 116.708Z" fill="#2F2E41"/>
<path d="M101.094 195.342V212.972H47.3184C47.3186 208.296 49.1736 203.812 52.4752 200.506C55.7768 197.199 60.2547 195.342 64.924 195.342C69.9664 193.768 75.7962 193.266 82.1206 193.431C88.0878 193.584 94.4946 194.333 101.094 195.342Z" fill="#FF6584"/>
<path d="M93.4111 209.126H118.699C119.123 209.126 119.53 209.295 119.83 209.595C120.13 209.896 120.299 210.304 120.299 210.729C120.299 211.154 120.13 211.561 119.83 211.862C119.53 212.163 119.123 212.331 118.699 212.331H93.4111V209.126Z" fill="#3F3D56"/>
<path d="M97.791 180.254L104.569 172.026C104.725 171.699 104.977 171.428 105.291 171.249C105.604 171.069 105.965 170.99 106.325 171.021C106.685 171.052 107.028 171.192 107.306 171.422C107.585 171.652 107.787 171.962 107.885 172.31L110.558 181.761L97.791 180.254Z" fill="#3F3D56"/>
<path d="M89.5703 184.444L92.1311 174.091C92.1311 173.729 92.2411 173.375 92.4465 173.078C92.652 172.78 92.943 172.552 93.281 172.424C93.619 172.296 93.988 172.274 94.3387 172.361C94.6894 172.448 95.0053 172.64 95.2444 172.912L101.734 180.277L89.5703 184.444Z" fill="#FF6584"/>
<path d="M47.3174 212.973H52.4389V223.871C52.4389 224.545 52.3064 225.212 52.049 225.834C51.7917 226.456 51.4144 227.022 50.9388 227.498C50.4633 227.974 49.8987 228.352 49.2773 228.61C48.6559 228.867 47.9899 229 47.3174 229V212.973Z" fill="#FF6584"/>
<path d="M92.4512 209.767H117.739C118.163 209.767 118.57 209.936 118.87 210.237C119.17 210.537 119.339 210.945 119.339 211.37C119.339 211.795 119.17 212.203 118.87 212.503C118.57 212.804 118.163 212.973 117.739 212.973H92.4512V209.767Z" fill="#FF6584"/>
<path opacity="0.2" d="M101.093 195.342V212.874C98.4951 213.151 95.8684 212.834 93.4102 211.948C90.9521 211.062 88.7264 209.629 86.9005 207.758C85.0746 205.887 83.6958 203.626 82.8678 201.144C82.0398 198.663 81.7842 196.026 82.12 193.431C88.0873 193.584 94.494 194.333 101.093 195.342Z" fill="black"/>
<path d="M101.094 212.973C110.64 212.973 118.379 205.223 118.379 195.663C118.379 186.103 110.64 178.354 101.094 178.354C91.5474 178.354 83.8086 186.103 83.8086 195.663C83.8086 205.223 91.5474 212.973 101.094 212.973Z" fill="#FF6584"/>
<path d="M117.739 201.433C118.8 201.433 119.659 199.424 119.659 196.945C119.659 194.467 118.8 192.458 117.739 192.458C116.678 192.458 115.818 194.467 115.818 196.945C115.818 199.424 116.678 201.433 117.739 201.433Z" fill="#3F3D56"/>
<path d="M113.097 193.419C113.363 193.419 113.577 192.917 113.577 192.297C113.577 191.678 113.363 191.176 113.097 191.176C112.832 191.176 112.617 191.678 112.617 192.297C112.617 192.917 112.832 193.419 113.097 193.419Z" fill="#3F3D56"/>
<path d="M116.618 191.175C116.883 191.175 117.098 190.673 117.098 190.054C117.098 189.434 116.883 188.932 116.618 188.932C116.353 188.932 116.138 189.434 116.138 190.054C116.138 190.673 116.353 191.175 116.618 191.175Z" fill="#3F3D56"/>
<path d="M99.6433 178.161C99.6433 178.161 98.6826 176.487 98.6826 175.467L99.6433 178.161Z" fill="#3F3D56"/>
<path d="M100.066 177.079C100.066 177.079 100.59 175.221 101.319 174.507L100.066 177.079Z" fill="#3F3D56"/>
</g>
<defs>
<clipPath id="clip0_113_1519">
<rect width="240" height="229" fill="white"/>
</clipPath>
</defs>
</svg>
