<svg width="240" height="159" viewBox="0 0 240 159" fill="none" xmlns="http://www.w3.org/2000/svg">
<g clip-path="url(#clip0_180_2080)">
<path d="M121.582 44.6886C119.442 41.1574 116.906 37.3872 112.935 36.2341C108.336 34.8988 103.612 37.5514 99.6048 40.169C87.6208 47.9972 76.0799 56.4809 65.0352 65.581L65.0472 65.7181C73.646 65.1264 82.2448 64.5348 90.8436 63.9432C97.0562 63.5157 103.482 63.0293 108.973 60.0971C111.056 58.9844 113.087 57.4982 115.447 57.3946C118.381 57.2659 120.938 59.3097 122.948 61.4449C134.836 74.0756 138.277 93.3909 151.615 104.488C143.204 83.794 133.162 63.7982 121.582 44.6886Z" fill="#F2F2F2"/>
<path d="M194.66 151.82C193.346 150.163 192.809 149.775 191.512 148.104C180.952 134.478 171.028 120.393 161.737 105.847C155.427 95.9679 149.429 85.8992 143.745 75.6407C141.039 70.7638 138.406 65.8485 135.848 60.895C133.864 57.0541 131.923 53.1903 130.027 49.3035C129.484 48.1933 128.957 47.0781 128.433 45.9603C127.198 43.3317 125.985 40.6903 124.683 38.0974C123.2 35.1421 121.394 32.0439 118.669 30.0584C117.43 29.1178 115.947 28.5486 114.395 28.4175C112.177 28.2746 110.131 29.1882 108.207 30.186C94.1337 37.5079 80.9579 46.6877 69.0406 57.1332C57.0926 67.6023 46.4131 79.4297 37.2198 92.3746C36.9385 92.7753 36.2734 92.3925 36.5573 91.9892C37.6752 90.4121 38.8152 88.8519 39.9773 87.3088C54.4278 68.1341 72.1462 51.645 92.3227 38.5951C95.7172 36.4003 99.1756 34.3085 102.698 32.3195C104.473 31.3166 106.256 30.3264 108.069 29.3975C109.847 28.4864 111.735 27.6672 113.766 27.6365C120.677 27.5293 124.256 35.3386 126.714 40.5933C127.487 42.2471 128.269 43.8957 129.06 45.5392C132.05 51.779 135.155 57.9618 138.376 64.0876C140.363 67.8697 142.394 71.6298 144.469 75.3677C150.925 87.0076 157.787 98.4119 165.055 109.581C174.683 124.375 184.234 137.444 195.203 151.279C195.505 151.661 194.965 152.208 194.66 151.82Z" fill="#E4E4E4"/>
<path d="M68.357 53.2771C67.9554 52.8305 67.5564 52.3839 67.1522 51.9372C63.965 48.4205 60.5452 44.9446 56.1685 42.9285C54.0816 41.9368 51.8036 41.41 49.4922 41.3845C47.1032 41.3921 44.7678 42.0174 42.5604 42.8927C41.5167 43.3087 40.496 43.7809 39.4908 44.2836C38.3423 44.8604 37.2142 45.4754 36.0914 46.0956C33.9836 47.2593 31.9031 48.4741 29.85 49.7399C25.765 52.2588 21.8078 54.9699 17.9786 57.8733C15.9936 59.379 14.0496 60.9341 12.1465 62.5385C10.3764 64.0289 8.64214 65.5593 6.94369 67.1296C6.58048 67.464 6.03817 66.9229 6.40137 66.5886C6.84901 66.1726 7.30177 65.7592 7.75453 65.3509C9.03349 64.1973 10.3329 63.0659 11.6529 61.9566C14.0598 59.9303 16.5291 57.9822 19.0606 56.1124C22.9973 53.2031 27.0695 50.4911 31.2772 47.9764C33.3799 46.7208 35.5115 45.518 37.6721 44.3678C38.3244 44.0208 38.9844 43.6813 39.652 43.3598C41.1668 42.5974 42.7407 41.9582 44.3585 41.4483C46.6502 40.7086 49.0749 40.471 51.467 40.7516C53.7767 41.0868 56.002 41.8548 58.0256 43.0152C62.3229 45.4116 65.6558 49.1172 68.8993 52.7335C69.2268 53.101 68.687 53.6446 68.357 53.2771Z" fill="#E4E4E4"/>
<path d="M156.406 89.7198L166.704 85.9622L171.816 84.0965C173.482 83.4888 175.143 82.7971 176.864 82.362C178.36 81.9357 179.948 81.9559 181.433 82.4201C182.757 82.909 183.968 83.6585 184.996 84.624C186.046 85.5886 187.023 86.6295 187.919 87.7381C189.032 89.0728 190.129 90.4214 191.23 91.7656C195.777 97.3131 200.294 102.885 204.781 108.48C209.268 114.076 213.725 119.695 218.152 125.338C222.589 130.995 226.997 136.676 231.373 142.38C231.91 143.079 232.445 143.778 232.981 144.477C233.276 144.864 233.943 144.483 233.643 144.091C229.234 138.329 224.794 132.591 220.324 126.877C215.842 121.149 211.33 115.445 206.786 109.766C202.243 104.086 197.669 98.4316 193.064 92.8015C191.917 91.3989 190.768 89.9978 189.617 88.5983C188.646 87.4177 187.686 86.2244 186.621 85.1256C184.667 83.1086 182.225 81.3262 179.301 81.2778C177.583 81.2494 175.919 81.7935 174.322 82.3699C172.601 82.9913 170.883 83.6242 169.164 84.2516L158.795 88.0356L156.202 88.9816C155.742 89.1494 155.941 89.8896 156.406 89.7198Z" fill="#E4E4E4"/>
<path d="M54.8134 47.3536C49.5805 44.6703 42.879 45.1959 38.0703 48.5482C47.2425 50.127 56.3143 52.2395 65.2393 54.8748C61.5331 52.7078 58.634 49.3127 54.8134 47.3536Z" fill="#F2F2F2"/>
<path d="M38.0193 48.539L37.0117 49.3561C37.3525 49.0701 37.7068 48.802 38.0708 48.5482C38.0536 48.5453 38.0365 48.5419 38.0193 48.539Z" fill="#F2F2F2"/>
<path d="M184.608 89.7574C183.594 88.5263 182.498 87.2374 180.982 86.7373L179.566 86.793C190.342 105.79 204.895 122.389 222.332 135.572C209.757 120.301 197.183 105.029 184.608 89.7574Z" fill="#F2F2F2"/>
<path d="M96.5856 79.602C97.2407 81.9765 98.7164 84.0433 100.752 85.4366C101.539 85.9712 102.47 86.484 102.739 87.395C102.881 87.9758 102.793 88.5886 102.495 89.107C102.198 89.6188 101.835 90.0905 101.418 90.5105L101.38 90.653C99.4269 89.4985 97.5691 88.038 96.4904 86.0454C95.4117 84.0528 95.2611 81.4412 96.5856 79.602Z" fill="#F2F2F2"/>
<path d="M161.599 136.115C162.254 138.489 163.73 140.556 165.765 141.949C166.552 142.484 167.483 142.996 167.753 143.907C167.894 144.488 167.807 145.101 167.509 145.62C167.211 146.131 166.849 146.603 166.431 147.023L166.393 147.166C164.441 146.011 162.583 144.551 161.504 142.558C160.425 140.565 160.275 137.954 161.599 136.115Z" fill="#F2F2F2"/>
<path d="M31.8512 132.217C32.5063 134.592 33.9821 136.658 36.0174 138.052C36.8043 138.586 37.7353 139.099 38.0045 140.01C38.1461 140.591 38.0589 141.204 37.7608 141.722C37.4632 142.234 37.1011 142.706 36.6834 143.126L36.6452 143.268C34.6925 142.114 32.8347 140.653 31.756 138.66C30.6774 136.668 30.5268 134.056 31.8512 132.217Z" fill="#F2F2F2"/>
<path d="M181.158 28.3954C189.017 28.3954 195.389 22.0389 195.389 14.1977C195.389 6.35654 189.017 0 181.158 0C173.299 0 166.928 6.35654 166.928 14.1977C166.928 22.0389 173.299 28.3954 181.158 28.3954Z" fill="#00A6FB"/>
<path d="M206.838 3.30455C199.942 2.37448 192.068 6.09362 190.281 12.8041C189.83 11.611 189.011 10.5916 187.942 9.89328C186.873 9.19496 185.609 8.85382 184.333 8.91916C183.056 8.9845 181.834 9.45293 180.842 10.2568C179.85 11.0606 179.14 12.1583 178.814 13.3911L179.604 13.9553C194.383 17.144 209.682 17.075 224.432 13.7531C219.635 8.72296 213.735 4.23461 206.838 3.30455Z" fill="#F0F0F0"/>
<path d="M177.262 22.2348C170.366 21.3048 162.492 25.0239 160.704 31.7344C160.254 30.5413 159.435 29.5219 158.366 28.8236C157.297 28.1253 156.033 27.7841 154.756 27.8495C153.48 27.9148 152.258 28.3832 151.266 29.1871C150.274 29.9909 149.564 31.0886 149.238 32.3214L150.028 32.8856C164.807 36.0743 180.106 36.0053 194.856 32.6834C190.059 27.6533 184.159 23.1649 177.262 22.2348Z" fill="#F0F0F0"/>
<path d="M237.455 25.8143C237.426 25.8144 237.398 25.81 237.371 25.8013C163.594 2.52308 98.5703 5.56711 57.0133 12.2198C51.3578 13.1249 45.6872 14.1702 40.159 15.327C38.7476 15.6219 37.2834 15.9381 35.8071 16.2673C34.0439 16.6591 32.3042 17.0625 30.6361 17.466C29.9156 17.6362 29.2092 17.8077 28.5169 17.9806C27.4683 18.2389 26.4042 18.508 25.2636 18.8038C23.989 19.1317 22.694 19.4756 21.4137 19.826C21.409 19.8276 21.4043 19.829 21.3994 19.8301L21.3996 19.8304C19.9535 20.2243 18.515 20.6296 17.124 21.0344C16.3711 21.2514 15.6441 21.4653 14.9477 21.6766C14.8699 21.698 14.801 21.7187 14.7311 21.7399L14.5815 21.7853C14.4949 21.8117 14.4093 21.8375 14.3237 21.862L14.3183 21.8636L14.3184 21.8639L14.092 21.934C13.822 22.0156 13.5585 22.0953 13.2993 22.1746C6.45063 24.281 2.68567 25.7795 2.64847 25.7942C2.61446 25.8078 2.5781 25.8146 2.54146 25.8142C2.50482 25.8138 2.46862 25.8061 2.43493 25.7918C2.40124 25.7774 2.37071 25.7565 2.3451 25.7304C2.31949 25.7042 2.29929 25.6733 2.28565 25.6394C2.27202 25.6054 2.26522 25.5692 2.26564 25.5326C2.26606 25.4961 2.2737 25.4599 2.28811 25.4263C2.30252 25.3927 2.32342 25.3623 2.34962 25.3367C2.37583 25.3112 2.40682 25.291 2.44084 25.2774C2.4783 25.2627 6.26166 23.7566 13.1353 21.6423C13.3954 21.5627 13.6596 21.483 13.9304 21.4012L14.1408 21.3359C14.148 21.3332 14.1552 21.3311 14.1626 21.3289C14.2477 21.3047 14.3327 21.2789 14.4191 21.2528L14.569 21.2074C14.6436 21.1848 14.7172 21.1625 14.7926 21.1418C15.4841 20.932 16.2136 20.7175 16.9684 20.4997C18.36 20.0946 19.7998 19.6893 21.247 19.2948C21.2515 19.2932 21.2561 19.2921 21.2606 19.2907C22.5454 18.9392 23.8451 18.5937 25.1238 18.2647C26.2662 17.9687 27.3323 17.699 28.3827 17.4402C29.078 17.2675 29.7857 17.0956 30.506 16.9244C32.176 16.5204 33.9193 16.1165 35.6855 15.7239C37.1642 15.3944 38.6309 15.0774 40.0445 14.7822C45.5813 13.6235 51.2608 12.5765 56.9248 11.6702C98.5414 5.0079 163.658 1.95896 237.539 25.2706C237.602 25.2906 237.657 25.3326 237.692 25.3891C237.727 25.4455 237.741 25.5127 237.731 25.5783C237.721 25.644 237.687 25.7039 237.637 25.7472C237.586 25.7905 237.522 25.8143 237.455 25.8143Z" fill="#CCCCCC"/>
<path d="M73.3806 116.878C73.284 116.596 73.1213 116.341 72.9062 116.135C72.8268 116.061 72.7409 115.995 72.6495 115.937C71.9213 115.453 70.8331 115.344 70.1411 115.937C70.0714 115.997 70.007 116.063 69.9486 116.135C69.7421 116.388 69.53 116.636 69.3124 116.878C68.9552 117.284 68.5897 117.677 68.2074 118.058C68.0986 118.164 67.9898 118.273 67.8782 118.378C67.814 118.442 67.7498 118.504 67.6856 118.565C67.4401 118.799 67.189 119.024 66.9351 119.247C66.8011 119.367 66.6672 119.484 66.5305 119.598C66.3268 119.768 66.1231 119.937 65.9166 120.102C65.8971 120.116 65.8776 120.129 65.858 120.146C65.8524 120.149 65.8496 120.154 65.8441 120.157C65.8413 120.157 65.8385 120.157 65.8357 120.163C65.8281 120.166 65.8214 120.171 65.8162 120.177C65.7548 120.219 65.7129 120.246 65.6822 120.271C65.6934 120.266 65.7046 120.257 65.7157 120.252C65.6655 120.291 65.6125 120.33 65.5622 120.369C65.0739 120.728 64.5745 121.073 64.0639 121.396C62.8005 122.203 61.4736 122.906 60.0961 123.498C60.004 123.534 59.9092 123.573 59.8143 123.609C56.2078 125.083 52.2955 125.659 48.416 125.285C48.0198 125.255 47.6236 125.213 47.2274 125.16C46.7698 125.093 46.315 125.012 45.8629 124.92C44.1421 124.578 42.4583 124.071 40.8349 123.406C38.8041 122.478 36.8727 121.348 35.0702 120.032C34.7911 119.834 34.5093 119.637 34.2275 119.445C34.5484 118.66 34.8637 117.874 35.1706 117.084C35.3241 116.702 35.472 116.321 35.6171 115.937C36.7583 112.978 37.8297 109.991 38.8566 106.992C39.8945 103.955 40.8739 100.9 41.7947 97.8279C41.8896 97.5161 41.9817 97.2043 42.071 96.8925C42.5537 95.2695 43.0169 93.6428 43.4605 92.0124C43.5024 91.8537 43.547 91.6978 43.5861 91.5391C43.7144 91.0714 43.84 90.6037 43.9628 90.136C44.2418 89.081 43.6112 87.8199 42.5007 87.5665C41.966 87.4298 41.3989 87.5054 40.919 87.7775C40.4391 88.0496 40.0839 88.497 39.928 89.0253C39.808 89.4763 39.6881 89.9245 39.5653 90.3755C38.9765 92.5552 38.3571 94.7276 37.707 96.8925C37.6121 97.2043 37.5172 97.5161 37.4224 97.8279C35.9882 102.544 34.4135 107.212 32.6984 111.834C32.492 112.393 32.2827 112.951 32.0706 113.507C31.9674 113.779 31.8641 114.052 31.7581 114.325C31.5544 114.862 31.3452 115.4 31.1359 115.937C31.0159 116.251 30.8931 116.566 30.7704 116.878C30.6894 117.076 30.6113 117.273 30.5332 117.468C29.7376 117.183 28.9134 116.985 28.075 116.878L27.941 116.861C27.291 116.783 26.6336 116.789 25.985 116.878C25.0143 116.991 24.0803 117.315 23.2491 117.828C22.4179 118.341 21.7097 119.03 21.1746 119.845C19.8437 121.936 19.8604 124.926 21.7271 126.702C23.6496 128.531 26.5598 128.517 28.8227 127.373C30.0219 126.726 31.0331 125.78 31.7581 124.628C32.0359 124.211 32.2911 123.778 32.5227 123.334C32.5812 123.373 32.6398 123.412 32.6984 123.453C32.9217 123.609 33.1449 123.768 33.3653 123.924C34.6497 124.852 36.0032 125.681 37.414 126.404C40.4476 127.909 43.713 128.894 47.0739 129.319C47.1493 129.327 47.2218 129.338 47.2971 129.347C47.6682 129.394 48.0421 129.43 48.416 129.461C53.7795 129.864 59.1496 128.769 63.9244 126.298C64.3289 126.09 64.7298 125.871 65.127 125.641C65.7436 125.285 66.3463 124.907 66.9351 124.506C67.2559 124.289 67.5685 124.069 67.8782 123.838C69.2316 122.843 70.4932 121.73 71.6478 120.511C72.0859 120.051 72.5054 119.577 72.9062 119.088C73.2853 118.688 73.5038 118.163 73.5201 117.613C73.5179 117.361 73.4707 117.113 73.3806 116.878ZM27.1765 123.509C27.2351 123.467 27.2937 123.423 27.3495 123.378C27.3328 123.42 27.2518 123.467 27.1765 123.509ZM28.0722 122.61C28.008 122.682 27.9494 122.755 27.8852 122.827C27.69 123.045 27.4802 123.25 27.2574 123.439C27.2267 123.467 27.1932 123.495 27.1597 123.52C27.1594 123.52 27.159 123.52 27.1587 123.52C27.1583 123.521 27.158 123.521 27.1578 123.521C27.1575 123.521 27.1573 123.522 27.1572 123.522C27.157 123.522 27.1569 123.523 27.157 123.523C27.1167 123.541 27.0775 123.561 27.0398 123.584C26.9198 123.657 26.797 123.723 26.6715 123.785C26.4256 123.875 26.1727 123.945 25.9153 123.993C25.7175 124.008 25.519 124.01 25.321 123.999H25.3154C25.1787 123.969 25.0437 123.932 24.9108 123.888C24.8438 123.854 24.7796 123.815 24.7155 123.776C24.6904 123.754 24.668 123.732 24.6541 123.718C24.6268 123.693 24.6016 123.666 24.5788 123.637C24.5788 123.637 24.5787 123.636 24.5786 123.636C24.5784 123.636 24.5782 123.635 24.578 123.635C24.5777 123.635 24.5774 123.635 24.577 123.635C24.5767 123.634 24.5763 123.634 24.576 123.634C24.5453 123.579 24.5118 123.523 24.4811 123.467C24.4795 123.466 24.4785 123.464 24.4783 123.462C24.456 123.392 24.4365 123.32 24.4197 123.247C24.4137 123.12 24.4146 122.993 24.4225 122.866C24.4599 122.688 24.5103 122.513 24.5732 122.343C24.6297 122.222 24.694 122.104 24.7657 121.992C24.7713 121.981 24.7992 121.936 24.8299 121.886C24.8327 121.883 24.8327 121.883 24.8327 121.88C24.8745 121.833 24.9164 121.783 24.961 121.739C25.0364 121.655 25.1173 121.583 25.1982 121.507C25.3556 121.405 25.5186 121.311 25.6865 121.226C25.9529 121.132 26.2262 121.058 26.5041 121.006C26.9137 120.974 27.3255 120.978 27.7346 121.017C28.122 121.085 28.5042 121.178 28.8786 121.299C28.6517 121.738 28.3934 122.16 28.1057 122.563C28.0945 122.579 28.0833 122.596 28.0722 122.61ZM24.9694 121.694C24.9448 121.733 24.9158 121.77 24.8829 121.803C24.905 121.761 24.9343 121.725 24.9694 121.694Z" fill="#3F3D56"/>
<path d="M64.9935 88.4462C64.9684 89.3204 64.9433 90.1945 64.9182 91.0686C64.8651 93.009 64.8103 94.9503 64.7535 96.8925C64.6949 99.0778 64.6336 101.262 64.5694 103.446C64.5387 104.573 64.5071 105.701 64.4745 106.828C64.388 109.865 64.3024 112.902 64.2178 115.937C64.2094 116.251 64.1983 116.563 64.1899 116.878C64.1481 118.384 64.1062 119.89 64.0643 121.396C64.0169 123.03 63.9704 124.664 63.9248 126.298C63.8913 127.523 63.8569 128.749 63.8216 129.976C63.5705 138.865 63.3194 147.754 63.0682 156.643C63.0576 157.193 62.8337 157.718 62.4435 158.107C62.0534 158.497 61.5272 158.72 60.9755 158.731C60.4219 158.726 59.8922 158.505 59.5007 158.114C59.1092 157.723 58.8873 157.195 58.8828 156.643C59.0223 151.643 59.1637 146.643 59.3069 141.643C59.4325 137.122 59.5599 132.601 59.6892 128.08C59.7311 126.591 59.7729 125.1 59.8148 123.609C59.8789 121.365 59.9422 119.122 60.0045 116.878C60.0129 116.563 60.024 116.251 60.0324 115.937C60.038 115.661 60.0464 115.389 60.0547 115.113C60.1775 110.756 60.3003 106.398 60.423 102.04C60.4733 100.325 60.5216 98.6092 60.5681 96.8925C60.6239 94.9354 60.6797 92.9793 60.7355 91.0241C60.7607 90.1639 60.783 89.3065 60.8081 88.4462C60.8187 87.8958 61.0426 87.3709 61.4328 86.9816C61.823 86.5923 62.3491 86.3689 62.9008 86.3583C63.4544 86.3628 63.9841 86.5842 64.3756 86.9748C64.7671 87.3654 64.989 87.8939 64.9935 88.4462Z" fill="#3F3D56"/>
<path d="M179.793 89.0256C177.599 97.3159 174.976 105.487 171.935 113.507C171.096 115.719 170.238 117.927 169.321 120.108L169.532 119.61C169.122 120.649 168.599 121.639 167.972 122.564C167.929 122.623 167.886 122.682 167.842 122.741C168.058 122.464 168.1 122.41 167.965 122.577C167.894 122.661 167.824 122.745 167.751 122.826C167.556 123.044 167.346 123.249 167.123 123.44C167.067 123.487 167.01 123.534 166.953 123.58L167.214 123.377C167.184 123.449 166.971 123.543 166.905 123.584C166.69 123.713 166.465 123.827 166.234 123.923L166.733 123.713C166.354 123.865 165.957 123.974 165.553 124.036L166.109 123.961C165.712 124.016 165.309 124.02 164.91 123.974L165.466 124.049C165.14 124.004 164.821 123.918 164.516 123.793L165.016 124.004C164.854 123.933 164.697 123.85 164.548 123.754C164.472 123.705 164.239 123.529 164.543 123.761C164.86 124.002 164.584 123.782 164.519 123.718C164.465 123.664 164.416 123.606 164.363 123.552C164.117 123.3 164.641 123.985 164.474 123.691C164.384 123.543 164.302 123.391 164.229 123.235L164.439 123.734C164.343 123.497 164.275 123.249 164.236 122.996L164.311 123.551C164.271 123.236 164.271 122.918 164.31 122.603L164.235 123.158C164.287 122.807 164.38 122.463 164.513 122.134L164.302 122.632C164.395 122.411 164.505 122.197 164.631 121.992C164.689 121.887 164.757 121.787 164.834 121.694C164.848 121.699 164.48 122.115 164.675 121.905C164.726 121.85 164.774 121.792 164.826 121.737C164.908 121.65 164.997 121.57 165.084 121.487C165.375 121.211 164.676 121.756 165.012 121.537C165.256 121.377 165.513 121.238 165.779 121.12L165.279 121.33C165.726 121.147 166.195 121.022 166.673 120.957L166.117 121.032C166.716 120.963 167.322 120.97 167.92 121.053L167.363 120.979C168.12 121.093 168.86 121.301 169.565 121.597L169.065 121.386C170.569 122.03 171.901 122.987 173.231 123.925C174.515 124.852 175.868 125.681 177.278 126.404C180.312 127.909 183.578 128.895 186.939 129.32C191.759 129.909 196.651 129.281 201.164 127.493C205.678 125.706 209.67 122.816 212.773 119.088C213.151 118.688 213.37 118.162 213.386 117.612C213.382 117.059 213.162 116.53 212.773 116.136C212.005 115.433 210.555 115.234 209.813 116.136C209.111 116.992 208.355 117.803 207.551 118.565C207.176 118.92 206.791 119.265 206.395 119.598C206.17 119.788 205.941 119.975 205.709 120.158C205.599 120.244 205.257 120.475 205.782 120.103C205.662 120.188 205.546 120.281 205.428 120.369C203.67 121.661 201.766 122.742 199.755 123.588L200.254 123.378C198.096 124.281 195.829 124.901 193.51 125.221L194.066 125.147C191.681 125.46 189.265 125.456 186.88 125.136L187.437 125.211C185.053 124.884 182.721 124.251 180.501 123.326L181.001 123.536C178.858 122.59 176.824 121.415 174.936 120.031C173.953 119.305 172.916 118.654 171.835 118.084C170.575 117.442 169.211 117.029 167.806 116.862C165.173 116.553 162.489 117.577 161.041 119.847C159.709 121.936 159.726 124.926 161.592 126.702C163.514 128.532 166.424 128.516 168.689 127.372C170.87 126.27 172.18 123.98 173.102 121.82C175.175 116.961 177.011 111.989 178.721 106.993C180.413 102.049 181.948 97.0554 183.325 92.0117C183.495 91.387 183.663 90.7617 183.829 90.1357C184.108 89.081 183.477 87.8196 182.367 87.5674C181.833 87.43 181.265 87.5053 180.785 87.7774C180.305 88.0494 179.949 88.497 179.793 89.0256Z" fill="#3F3D56"/>
<path d="M200.674 88.4461L199.921 115.114L199.172 141.642L198.748 156.643C198.753 157.195 198.975 157.723 199.366 158.114C199.758 158.504 200.287 158.726 200.841 158.731C201.392 158.72 201.919 158.497 202.309 158.107C202.699 157.718 202.923 157.193 202.933 156.643L203.687 129.975L204.436 103.447L204.86 88.4461C204.855 87.8938 204.633 87.3655 204.242 86.9749C203.85 86.5844 203.321 86.3629 202.767 86.3582C202.215 86.3689 201.689 86.5922 201.299 86.9815C200.909 87.3708 200.685 87.8957 200.674 88.4461Z" fill="#3F3D56"/>
<path opacity="0.2" d="M128.239 149.197H128.889V119.677H144.048V119.03H128.889V106.574H140.596C140.424 106.356 140.248 106.141 140.066 105.929H128.889V97.7016C128.674 97.6101 128.458 97.522 128.239 97.4389V105.929H115.501V95.3875C115.283 95.3975 115.068 95.4125 114.851 95.4307V105.929H104.689V98.0639C104.471 98.1604 104.256 98.2618 104.043 98.3682V105.929H95.5V106.574H104.043V119.03H95.5V119.677H104.043V149.197H104.689V119.677C106.024 119.676 107.345 119.938 108.578 120.448C109.811 120.957 110.932 121.704 111.875 122.646C112.819 123.587 113.568 124.705 114.078 125.935C114.589 127.165 114.852 128.484 114.851 129.815V149.197H115.501V119.677H128.239V149.197ZM104.689 119.03V106.574H114.851V119.03H104.689ZM115.501 119.03V106.574H115.756C117.396 106.574 119.019 106.896 120.533 107.522C122.048 108.148 123.424 109.066 124.583 110.222C125.743 111.379 126.662 112.752 127.289 114.263C127.917 115.775 128.239 117.394 128.239 119.03H115.501Z" fill="black"/>
<path d="M124.269 140.346C123.451 143.987 121.492 147.273 118.675 149.727C118.468 149.906 118.262 150.078 118.047 150.248C117.525 150.295 117.007 150.344 116.493 150.393C116.066 150.432 115.645 150.474 115.226 150.513L115.151 150.521L115.098 150.064L114.886 148.216C114.063 146.876 113.553 145.368 113.394 143.805C113.234 142.242 113.43 140.663 113.965 139.185C114.702 137.203 116.035 135.452 117.347 133.715C119.158 131.315 120.918 128.943 120.982 126.017C121.873 127.155 122.614 128.402 123.187 129.728C122.647 129.982 122.161 130.338 121.758 130.778C121.644 130.903 121.529 131.078 121.607 131.229C121.674 131.357 121.842 131.387 121.987 131.404C122.336 131.44 122.687 131.476 123.036 131.513C123.315 131.543 123.594 131.571 123.873 131.602C124.211 132.707 124.44 133.843 124.557 134.992C124.745 136.781 124.648 138.588 124.269 140.346Z" fill="#3F3D56"/>
<path d="M133.534 133.049C131.887 134.244 130.925 135.961 130.177 137.854C129.411 138.099 128.721 138.538 128.176 139.129C128.062 139.255 127.948 139.43 128.026 139.58C128.093 139.708 128.26 139.739 128.405 139.756C128.754 139.792 129.106 139.828 129.454 139.864C128.707 142.102 128.02 144.419 126.698 146.309C125.818 147.557 124.671 148.594 123.341 149.346C122.978 149.552 122.603 149.737 122.219 149.9C120.802 150.009 119.411 150.125 118.048 150.248C117.526 150.295 117.008 150.344 116.493 150.393C116.067 150.432 115.645 150.474 115.227 150.513C115.224 150.359 115.224 150.206 115.227 150.053C115.315 145.974 116.819 142.053 119.482 138.957C119.607 138.812 119.736 138.67 119.867 138.528C121.216 137.09 122.803 135.894 124.557 134.992C127.322 133.558 130.421 132.887 133.534 133.049Z" fill="#00A6FB"/>
<path d="M116.976 148.965L116.655 149.911L116.493 150.393C116.066 150.432 115.645 150.474 115.226 150.513L115.151 150.521C114.688 150.568 114.227 150.616 113.767 150.663C113.647 150.524 113.527 150.382 113.41 150.237C110.497 146.718 109.099 142.192 109.521 137.648C109.943 133.104 112.151 128.912 115.661 125.987C115.293 127.91 115.723 129.753 116.429 131.582C116.353 131.613 116.281 131.644 116.211 131.677C115.671 131.931 115.186 132.287 114.782 132.726C114.668 132.852 114.554 133.027 114.632 133.177C114.699 133.305 114.866 133.336 115.011 133.353C115.36 133.389 115.712 133.425 116.06 133.461C116.339 133.492 116.618 133.52 116.897 133.55C117.029 133.564 117.16 133.578 117.291 133.592C117.31 133.634 117.327 133.673 117.347 133.715C118.142 135.435 118.999 137.164 119.481 138.957C119.602 139.407 119.697 139.863 119.766 140.324C119.981 141.881 119.842 143.466 119.358 144.962C118.875 146.458 118.061 147.826 116.976 148.965Z" fill="#00A6FB"/>
<path d="M145.062 108.588C142.66 103.913 138.939 99.9797 134.562 97.0893C130.171 94.2029 125.133 92.4451 119.896 91.9726C119.209 91.9103 118.521 91.8739 117.831 91.8632C117.016 91.8511 104.754 95.3797 100.647 98.2611C96.5413 101.107 93.1642 104.877 90.7878 109.265C88.4155 113.677 87.2487 118.634 87.4044 123.639C87.6078 128.674 89.0143 133.587 91.5068 137.969C93.9654 142.337 97.4562 146.04 101.676 148.755C105.955 151.48 110.254 158.704 115.307 158.959C120.399 159.216 126.205 152.401 130.848 150.332C135.491 148.246 139.505 144.982 142.491 140.866C145.391 136.832 147.268 132.156 147.959 127.239C148.677 122.205 148.343 117.014 146.619 112.202C146.177 110.966 145.657 109.759 145.062 108.588C144.566 107.612 143.11 107.253 142.199 107.839C141.73 108.127 141.39 108.585 141.25 109.117C141.11 109.649 141.181 110.214 141.448 110.695C141.74 111.268 142.011 111.851 142.262 112.443L142.051 111.944C143 114.22 143.645 116.61 143.97 119.054L143.895 118.499C144.241 121.149 144.234 123.834 143.876 126.483L143.951 125.928C143.589 128.577 142.881 131.168 141.843 133.632L142.054 133.134C141.521 134.391 140.898 135.61 140.193 136.78C139.835 137.371 139.455 137.949 139.054 138.512C138.878 138.759 138.696 139.002 138.513 139.245C138.274 139.561 138.839 138.832 138.592 139.142C138.55 139.195 138.508 139.248 138.466 139.3C138.339 139.458 138.211 139.615 138.08 139.77C137.21 140.806 136.261 141.772 135.241 142.661C134.987 142.882 134.728 143.098 134.466 143.31C134.335 143.415 134.206 143.525 134.069 143.623C134.074 143.619 134.51 143.289 134.252 143.481C134.171 143.541 134.091 143.602 134.009 143.662C133.468 144.062 132.912 144.442 132.342 144.801C131.03 145.626 129.653 146.344 128.225 146.948L128.725 146.738C126.262 147.773 123.673 148.479 121.025 148.84L121.581 148.766C118.935 149.122 116.252 149.127 113.604 148.78L114.16 148.854C111.754 148.532 109.4 147.897 107.158 146.966L107.658 147.176C106.36 146.629 105.108 145.978 103.915 145.23C103.324 144.859 102.749 144.464 102.189 144.047C102.109 143.988 102.03 143.928 101.951 143.868C101.695 143.675 102.134 144.01 102.138 144.012C101.989 143.906 101.846 143.792 101.709 143.671C101.439 143.451 101.173 143.227 100.911 142.997C99.863 142.076 98.8844 141.079 97.9831 140.015C97.7574 139.749 97.5366 139.479 97.3206 139.205C97.2271 139.086 97.0565 138.846 97.4334 139.352C97.3838 139.286 97.3324 139.22 97.2823 139.154C97.162 138.995 97.0434 138.835 96.9264 138.673C96.5166 138.107 96.1271 137.528 95.7578 136.934C94.9235 135.591 94.1953 134.185 93.5799 132.728L93.7909 133.227C92.7839 130.837 92.0953 128.325 91.7427 125.756L91.8175 126.311C91.4993 123.943 91.4948 121.544 91.8039 119.174L91.7292 119.729C92.0462 117.435 92.6648 115.192 93.5693 113.06L93.3583 113.558C93.9273 112.223 94.5985 110.933 95.366 109.701C95.7502 109.084 96.1573 108.482 96.5874 107.896C96.6851 107.762 96.784 107.63 96.8839 107.498C96.9743 107.379 97.2229 107.082 96.7987 107.606C96.8403 107.555 96.8803 107.502 96.9213 107.45C97.1573 107.152 97.3991 106.858 97.6466 106.569C98.5836 105.475 99.5984 104.45 100.683 103.501C100.958 103.261 101.236 103.027 101.519 102.797C101.647 102.693 101.777 102.589 101.907 102.487C101.959 102.446 102.012 102.406 102.064 102.365C101.506 102.808 101.909 102.486 102.035 102.391C102.618 101.955 103.217 101.541 103.831 101.149C105.196 100.278 106.632 99.523 108.124 98.8919L107.624 99.1024C109.79 98.1953 119.383 96.0543 121.128 96.288L120.571 96.2134C123.136 96.5706 125.642 97.2615 128.027 98.2686L127.527 98.0581C128.735 98.57 129.91 99.1585 131.043 99.8201C131.609 100.151 132.164 100.5 132.708 100.867C132.965 101.041 133.22 101.219 133.472 101.401C133.598 101.491 133.723 101.583 133.848 101.676C133.917 101.727 133.985 101.78 134.054 101.831C134.344 102.048 133.655 101.517 133.959 101.757C134.976 102.554 135.942 103.415 136.852 104.333C137.298 104.787 137.73 105.255 138.146 105.737C138.359 105.985 138.568 106.236 138.772 106.491C138.874 106.618 139.22 107.076 138.796 106.515C138.9 106.652 139.005 106.788 139.107 106.926C139.989 108.117 140.772 109.378 141.448 110.695C141.949 111.669 143.398 112.032 144.312 111.444C144.781 111.156 145.121 110.698 145.261 110.166C145.401 109.634 145.33 109.069 145.062 108.588Z" fill="#3F3D56"/>
<path d="M120.678 142.661C120.462 142.671 120.248 142.614 120.065 142.499C119.883 142.383 119.74 142.215 119.656 142.016C119.573 141.817 119.553 141.597 119.599 141.386C119.645 141.175 119.755 140.983 119.914 140.837C119.94 140.732 119.959 140.656 119.986 140.55C119.976 140.527 119.967 140.504 119.957 140.482C118.986 138.172 112.79 144.611 112.522 146.782C112.404 147.742 112.454 148.714 112.669 149.657C110.663 145.289 109.62 140.542 109.614 135.737C109.613 134.531 109.68 133.326 109.815 132.128C109.926 131.146 110.08 130.17 110.277 129.202C111.353 123.948 113.662 119.023 117.016 114.833C118.934 114.94 120.615 114.648 120.777 110.939C120.806 110.28 121.297 109.709 121.405 109.059C121.221 109.083 121.035 109.098 120.852 109.11C120.795 109.113 120.735 109.116 120.678 109.119L120.657 109.119C120.455 109.128 120.256 109.079 120.082 108.978C119.908 108.876 119.767 108.727 119.677 108.547C119.586 108.368 119.549 108.166 119.571 107.966C119.593 107.766 119.672 107.577 119.798 107.421C119.878 107.324 119.957 107.227 120.036 107.13C120.156 106.98 120.279 106.833 120.399 106.684C120.413 106.669 120.426 106.654 120.438 106.639C120.576 106.468 120.714 106.3 120.852 106.13C120.6 105.739 120.261 105.412 119.862 105.174C118.478 104.366 116.569 104.926 115.569 106.175C114.567 107.423 114.378 109.175 114.726 110.736C115.068 112.063 115.635 113.323 116.401 114.461C116.326 114.557 116.248 114.65 116.173 114.746C114.801 116.506 113.605 118.396 112.603 120.388C112.886 118.178 109.419 110.197 108.078 108.507C106.467 106.476 103.164 107.362 102.88 109.936C102.877 109.961 102.874 109.986 102.872 110.011C103.071 110.123 103.266 110.242 103.457 110.368C103.696 110.528 103.882 110.756 103.99 111.023C104.097 111.29 104.121 111.583 104.059 111.864C103.996 112.144 103.85 112.4 103.64 112.596C103.43 112.793 103.165 112.922 102.88 112.965L102.851 112.97C100.184 116.768 108.732 126.654 110.871 124.434C109.864 127.282 109.233 130.247 108.992 133.257C108.856 135.033 108.864 136.817 109.016 138.591L109.007 138.528C108.532 134.663 100.377 128.917 97.9952 129.396C96.6233 129.672 95.272 129.609 95.4803 130.99C95.4837 131.012 95.487 131.034 95.4905 131.056C95.8601 131.206 96.22 131.379 96.5681 131.574C96.7673 131.686 96.9622 131.805 97.153 131.931C97.3927 132.091 97.5784 132.319 97.6858 132.586C97.7932 132.853 97.8173 133.146 97.755 133.427C97.6926 133.707 97.5468 133.963 97.3364 134.159C97.1261 134.356 96.8611 134.485 96.5762 134.528L96.547 134.533C96.526 134.536 96.508 134.539 96.487 134.542C95.2734 138.708 104.274 145.432 109.746 143.293H109.749C110.291 145.644 111.077 147.932 112.093 150.121H120.468C120.498 150.028 120.525 149.933 120.552 149.84C119.777 149.888 118.999 149.842 118.235 149.702C118.856 148.941 119.477 148.175 120.099 147.414C120.113 147.4 120.126 147.385 120.138 147.369C120.453 146.98 120.771 146.593 121.086 146.204L121.087 146.203C121.103 145.01 120.966 143.819 120.678 142.661L120.678 142.661ZM111.088 123.838L111.092 123.832L111.088 123.844V123.838ZM109.232 140.523L109.16 140.361C109.163 140.244 109.163 140.127 109.16 140.008C109.16 139.975 109.154 139.942 109.154 139.909C109.181 140.115 109.205 140.322 109.235 140.529L109.232 140.523Z" fill="#3F3D56"/>
<path d="M26.5771 125.274C28.2722 125.274 29.6464 123.903 29.6464 122.212C29.6464 120.521 28.2722 119.15 26.5771 119.15C24.882 119.15 23.5078 120.521 23.5078 122.212C23.5078 123.903 24.882 125.274 26.5771 125.274Z" fill="#3F3D56"/>
<path d="M63.4091 158.68C65.1043 158.68 66.4784 157.309 66.4784 155.618C66.4784 153.927 65.1043 152.556 63.4091 152.556C61.714 152.556 60.3398 153.927 60.3398 155.618C60.3398 157.309 61.714 158.68 63.4091 158.68Z" fill="#3F3D56"/>
<path d="M203.202 158.68C204.897 158.68 206.271 157.309 206.271 155.618C206.271 153.927 204.897 152.556 203.202 152.556C201.507 152.556 200.133 153.927 200.133 155.618C200.133 157.309 201.507 158.68 203.202 158.68Z" fill="#3F3D56"/>
<path d="M210.735 119.706C212.43 119.706 213.805 118.335 213.805 116.644C213.805 114.953 212.43 113.582 210.735 113.582C209.04 113.582 207.666 114.953 207.666 116.644C207.666 118.335 209.04 119.706 210.735 119.706Z" fill="#3F3D56"/>
<path d="M201.806 91.3108C203.501 91.3108 204.875 89.9398 204.875 88.2486C204.875 86.5574 203.501 85.1863 201.806 85.1863C200.11 85.1863 198.736 86.5574 198.736 88.2486C198.736 89.9398 200.11 91.3108 201.806 91.3108Z" fill="#3F3D56"/>
<path d="M73.7332 116.644C73.7313 117.426 73.4282 118.178 72.8864 118.743C72.3446 119.309 71.6057 119.645 70.8225 119.682C70.0394 119.718 69.272 119.454 68.6791 118.942C68.0862 118.43 67.7133 117.71 67.6374 116.932C67.5615 116.153 67.7886 115.375 68.2715 114.759C68.7545 114.143 69.4564 113.736 70.232 113.621C71.0076 113.507 71.7975 113.695 72.4383 114.146C73.0791 114.596 73.5218 115.276 73.6746 116.043C73.714 116.241 73.7336 116.442 73.7332 116.644Z" fill="#3F3D56"/>
<path d="M135.118 100.219C136.813 100.219 138.187 98.8482 138.187 97.1569C138.187 95.4657 136.813 94.0947 135.118 94.0947C133.423 94.0947 132.049 95.4657 132.049 97.1569C132.049 98.8482 133.423 100.219 135.118 100.219Z" fill="#3F3D56"/>
<path d="M104.704 97.157C104.702 97.9392 104.399 98.6908 103.857 99.2561C103.315 99.8215 102.576 100.157 101.793 100.194C101.01 100.231 100.243 99.9666 99.6498 99.4548C99.0569 98.943 98.684 98.2233 98.6081 97.4448C98.5322 96.6662 98.7593 95.8884 99.2422 95.2722C99.7252 94.656 100.427 94.2487 101.203 94.1344C101.978 94.0202 102.768 94.2079 103.409 94.6585C104.05 95.1092 104.492 95.7884 104.645 96.5557C104.685 96.7537 104.704 96.9551 104.704 97.157Z" fill="#3F3D56"/>
<path d="M65.0828 88.2486C65.081 89.0308 64.7778 89.7824 64.236 90.3478C63.6942 90.9132 62.9553 91.2491 62.1721 91.2861C61.389 91.323 60.6216 91.0582 60.0287 90.5464C59.4358 90.0346 59.0629 89.3149 58.987 88.5364C58.9111 87.7578 59.1382 86.98 59.6211 86.3638C60.1041 85.7476 60.806 85.3403 61.5816 85.226C62.3572 85.1118 63.1472 85.2995 63.788 85.7502C64.4288 86.2008 64.8714 86.8801 65.0242 87.6473C65.0636 87.8453 65.0832 88.0467 65.0828 88.2486Z" fill="#3F3D56"/>
<path d="M167.206 126.388C168.901 126.388 170.275 125.017 170.275 123.325C170.275 121.634 168.901 120.263 167.206 120.263C165.511 120.263 164.137 121.634 164.137 123.325C164.137 125.017 165.511 126.388 167.206 126.388Z" fill="#3F3D56"/>
<path d="M118.935 98.5489C121.401 98.5489 123.4 96.5547 123.4 94.0947C123.4 91.6347 121.401 89.6405 118.935 89.6405C116.469 89.6405 114.471 91.6347 114.471 94.0947C114.471 96.5547 116.469 98.5489 118.935 98.5489Z" fill="#3F3D56"/>
<path d="M239.668 158.914L0.33223 159C0.288601 159 0.245398 158.991 0.205089 158.975C0.164781 158.958 0.128158 158.934 0.0973078 158.903C0.0664572 158.872 0.0419822 158.836 0.025286 158.795C0.00858975 158.755 0 158.712 0 158.669C0 158.625 0.00858975 158.582 0.025286 158.542C0.0419822 158.501 0.0664572 158.465 0.0973078 158.434C0.128158 158.403 0.164781 158.379 0.205089 158.362C0.245398 158.346 0.288601 158.337 0.33223 158.337L239.668 158.251C239.756 158.252 239.84 158.287 239.902 158.349C239.964 158.411 239.999 158.495 239.999 158.583C239.999 158.671 239.964 158.755 239.902 158.817C239.84 158.879 239.756 158.914 239.668 158.914Z" fill="#CACACA"/>
</g>
<defs>
<clipPath id="clip0_180_2080">
<rect width="240" height="159" fill="white"/>
</clipPath>
</defs>
</svg>
