<svg width="24" height="24" viewBox="0 0 24 24" fill="none" xmlns="http://www.w3.org/2000/svg">
<path d="M4 6.00291H7M20 6.00291H17M17 6.00291V18C17 19.1046 16.1046 20 15 20H9C7.89543 20 7 19.1046 7 18V6.00291M17 6.00291H15M7 6.00291H9M9 6.00291C9 6.00291 9 6.7136 9 5.72951C9 3.42345 15 3.42345 15 5.72951C15 6.71364 15 6.00291 15 6.00291M9 6.00291H15" stroke="#111111" stroke-linecap="round"/>
<path d="M10 10V16" stroke="#111111" stroke-linecap="round"/>
<path d="M14 10V16" stroke="#111111" stroke-linecap="round"/>
</svg>
