<svg width="1440" height="443" viewBox="0 0 1440 443" fill="none" xmlns="http://www.w3.org/2000/svg">
<path fill-rule="evenodd" clip-rule="evenodd" d="M213.5 94.4962C128.49 97.1482 8.08239e-05 51.4962 8.08239e-05 51.4962V174H-2.33545e-05L0 430.5C0 430.5 49.0026 379.081 92 368.5C143.28 355.881 196.821 375.597 250.558 395.385C292.073 410.673 333.704 426.003 374.5 426.5C430.052 427.177 483.188 409.449 536.427 391.687C584.58 375.622 632.816 359.53 683 357C757.745 353.232 787.07 376.313 816.208 399.246C845.57 422.354 874.741 445.313 950 440.5C1004.07 437.043 1061.68 418.1 1119.41 399.116C1180.66 378.977 1242.05 358.792 1299.5 357C1384.51 354.348 1440 433.5 1440 433.5L1440 176L1440 174L1440 51.4962C1440 51.4962 1382.5 93.4153 1339.5 103.996C1290.1 116.153 1254.1 95.4933 1216.51 73.9142C1184.93 55.7895 1152.23 37.0166 1109.5 36.4962C1054.89 35.8311 1015.8 55.6191 976.222 75.6534C939.135 94.4283 901.62 113.419 850.5 115.996C775.858 119.759 721.769 88.8297 667.801 57.9699C613.27 26.7881 558.862 -4.32317 483.5 0.49622C428.702 4.00055 389.49 25.9524 350.512 47.773C310.236 70.3202 270.211 92.7271 213.5 94.4962Z" fill="#00A6FB"/>
<path fill-rule="evenodd" clip-rule="evenodd" d="M187 124.496C110.045 117.059 8.39233e-05 59.4963 8.39233e-05 59.4963V176L-2.33427e-05 176L0 431C0 431 40.6805 360.67 100.5 352C154.408 344.186 199.63 365.221 246.189 386.878C280.554 402.863 315.647 419.187 355.5 424.5C411.497 431.965 475.854 408.5 539.217 385.397C587.801 367.683 635.801 350.182 679 347C747.4 341.962 779.617 368.212 811.914 394.527C844.083 420.739 876.333 447.016 944.5 442.5C1004.22 438.544 1054.69 415.049 1104.35 391.933C1163.19 364.539 1220.9 337.676 1291.5 344.5C1368.46 351.938 1440 430.5 1440 430.5L1440 176V59.4963C1440 59.4963 1410.32 115.826 1350.5 124.496C1299.01 131.959 1266.92 109.48 1232.88 85.6372C1204.98 66.0926 1175.77 45.6317 1133.5 39.9962C1080.29 32.9025 1038.04 60.1046 994.868 87.9022C957.775 111.785 920 136.108 874 139.496C805.564 144.537 747.974 107.83 690.347 71.1001C633.007 34.5527 575.631 -2.01734 507.5 2.4962C446.189 6.55792 400.478 36.5097 355.742 65.8227C305.259 98.9013 256.018 131.167 187 124.496Z" fill="#0582CA"/>
</svg>
