<svg width="1440" height="60" viewBox="0 0 1440 60" fill="none" xmlns="http://www.w3.org/2000/svg">
<path d="M0 4.59459C0 4.59459 126.99 41.3777 212 40.6059C323.595 39.5926 372.079 6.66878 483.5 4.59484C633.446 1.80381 700.438 25.57 850.5 23.3683C956.169 21.8179 1003.7 -0.146375 1109.5 0.228624C1203.1 0.560401 1248.6 26.3861 1339.5 19.8755C1382.5 16.7958 1440 4.59459 1440 4.59459V59.6058H0V4.59459Z" fill="#00A6FB"/>
<path d="M0 4.60587C0 4.60587 141.545 44.3476 218.5 46.5C348.678 50.141 391.502 7.10772 522 4.60585C658.603 1.98695 737.468 33.2873 874 30.3771C973.539 28.2554 1034.57 -2.23431 1133.5 1.58236C1227.35 5.2028 1256.8 29.9664 1350.5 26.0362C1410.32 23.527 1440 7.22556 1440 7.22556V59.6059H0V4.60587Z" fill="#0582CA"/>
</svg>
