<svg width="241" height="202" viewBox="0 0 241 202" fill="none" xmlns="http://www.w3.org/2000/svg">
<g clip-path="url(#clip0_180_2181)">
<path d="M195.961 97.4926C195.961 100.331 195.841 103.141 195.602 105.922C195.414 108.092 195.157 110.244 194.831 112.375C194.485 114.633 194.061 116.863 193.559 119.065V119.068C193.23 120.518 192.87 121.955 192.477 123.381C191.337 127.527 189.92 131.592 188.234 135.548C187.868 136.408 187.489 137.263 187.099 138.112C185.622 141.327 183.969 144.458 182.146 147.491C177.035 156.008 170.654 163.7 163.224 170.302C162.42 171.016 161.604 171.717 160.778 172.407C143.234 187.027 121.091 195.02 98.2305 194.985C44.2548 194.985 0.5 151.337 0.5 97.4926C0.5 43.6483 44.2548 1.39404e-05 98.2305 1.39404e-05C120.304 -0.0347054 141.733 7.41857 158.999 21.1361C159.808 21.7759 160.608 22.4301 161.397 23.0987C165.247 26.356 168.84 29.9039 172.144 33.7111H172.147C187.538 51.4097 195.996 74.0625 195.961 97.4926Z" fill="#F2F2F2"/>
<path d="M29.35 114.333C20.04 108.806 13.0132 98.4753 13.9254 87.706C22.437 95.8326 33.5558 100.694 45.3145 101.43C49.8504 101.697 54.9233 101.524 58.2622 104.598C60.3398 106.511 61.3069 109.391 61.4655 112.207C61.6241 115.023 61.0586 117.824 60.4961 120.588L60.6897 121.265C49.8556 121.305 38.6599 119.861 29.35 114.333Z" fill="#E6E6E6"/>
<path d="M14.1524 87.6945C17.8827 95.8296 24.0876 102.585 31.886 107.002C33.5624 107.938 35.3447 108.742 37.2388 109.115C39.0877 109.465 40.9968 109.314 42.7675 108.678C44.4305 108.119 46.0666 107.355 47.8369 107.208C49.703 107.054 51.4305 107.772 52.7878 109.03C54.4485 110.569 55.4558 112.611 56.3713 114.643C57.3877 116.899 58.4077 119.258 60.3565 120.88C60.5926 121.076 60.2731 121.43 60.0374 121.234C56.6467 118.412 56.0933 113.685 53.383 110.362C52.1183 108.811 50.3774 107.631 48.3093 107.662C46.5008 107.689 44.813 108.476 43.1341 109.057C41.3712 109.667 39.6052 109.953 37.7441 109.685C35.8403 109.41 34.0227 108.674 32.3296 107.785C28.5054 105.74 25.0272 103.108 22.0226 99.9847C18.5736 96.4396 15.758 92.332 13.6975 87.8397C13.5701 87.5616 14.0258 87.4182 14.1524 87.6945Z" fill="white"/>
<path d="M29.2908 105.727C28.3703 106.932 27.0506 107.771 25.5672 108.095C24.0839 108.418 22.5336 108.205 21.1932 107.494C20.9224 107.349 21.1354 106.922 21.4065 107.067C22.6535 107.732 24.0976 107.93 25.4783 107.626C26.8589 107.322 28.0852 106.536 28.9356 105.409C29.1207 105.164 29.4749 105.484 29.2908 105.727Z" fill="white"/>
<path d="M41.9618 109.073C41.5744 106.001 40.0405 103.187 37.666 101.193C37.4306 100.996 37.75 100.642 37.9852 100.839C40.4523 102.919 42.0426 105.85 42.4387 109.047C42.4762 109.352 41.9992 109.376 41.9618 109.073Z" fill="white"/>
<path d="M19.1657 96.216C19.6192 95.8239 19.968 95.3256 20.1807 94.7659C20.3935 94.2061 20.4636 93.6024 20.3846 93.009C20.3432 92.7048 20.8203 92.6813 20.8614 92.9836C20.9456 93.6396 20.8674 94.3063 20.6337 94.9253C20.4 95.5442 20.0179 96.0967 19.5208 96.5344C19.4774 96.5795 19.4184 96.6065 19.3558 96.6099C19.2932 96.6132 19.2316 96.5926 19.1837 96.5523C19.1368 96.5099 19.1087 96.4508 19.1053 96.3879C19.102 96.3249 19.1236 96.2631 19.1657 96.216Z" fill="white"/>
<path d="M44.0609 66.8422C44.0922 67.0314 44.1235 67.2206 44.1583 67.4116C44.5919 69.9532 45.2317 72.4555 46.0714 74.8938C46.1333 75.0833 46.199 75.2745 46.2662 75.4619C48.3522 81.3147 51.5092 86.7303 55.577 91.4334C57.1974 93.3034 58.958 95.0477 60.8437 96.6513C63.448 98.8657 66.4483 101.06 68.1181 103.919C68.2957 104.215 68.4546 104.522 68.5942 104.838L61.5024 120.976C61.4679 121.005 61.4369 121.035 61.4022 121.064L61.1486 121.722C61.0456 121.646 60.9403 121.565 60.8373 121.489C60.7773 121.445 60.719 121.398 60.659 121.354C60.6196 121.323 60.5801 121.293 60.5428 121.268C60.5296 121.258 60.5165 121.248 60.507 121.239C60.4696 121.214 60.4376 121.187 60.404 121.163C59.8145 120.712 59.2271 120.256 58.6419 119.796C58.6383 119.794 58.6383 119.794 58.6361 119.789C54.1863 116.267 49.9921 112.344 46.5281 107.91C46.424 107.776 46.316 107.641 46.2151 107.501C44.6649 105.493 43.2816 103.363 42.0793 101.131C41.4248 99.907 40.833 98.6504 40.3059 97.3664C38.9504 94.0462 38.1269 90.534 37.8656 86.9585C37.3456 79.8307 39.1166 72.6163 43.7062 67.2488C43.8237 67.1116 43.9397 66.9778 44.0609 66.8422Z" fill="#E6E6E6"/>
<path d="M44.2507 66.9682C42.3192 75.704 43.1962 84.8249 46.757 93.0352C47.5305 94.7895 48.4683 96.502 49.7555 97.9373C51.0209 99.3268 52.6363 100.353 54.4336 100.909C56.0991 101.461 57.8668 101.833 59.3687 102.78C60.9518 103.777 61.8977 105.388 62.2222 107.208C62.6193 109.434 62.1908 111.67 61.6957 113.842C61.1459 116.253 60.5365 118.749 61.1135 121.215C61.1834 121.514 60.7147 121.605 60.6449 121.306C59.6409 117.016 62.0516 112.91 61.8936 108.629C61.8199 106.631 61.1422 104.643 59.4721 103.426C58.0117 102.361 56.1892 101.976 54.498 101.431C52.7223 100.859 51.1393 100.028 49.8153 98.6955C48.4609 97.3329 47.454 95.6534 46.6389 93.9265C44.8197 89.9968 43.6312 85.8061 43.117 81.5081C42.5028 76.6061 42.7337 71.6353 43.7998 66.811C43.8659 66.5124 44.3163 66.6716 44.2507 66.9682Z" fill="white"/>
<path d="M45.4543 90.4589C43.9923 90.8678 42.4322 90.745 41.0526 90.1125C39.673 89.4799 38.5637 88.3787 37.9228 87.0056C37.7941 86.7273 38.2215 86.5147 38.3504 86.7933C38.9448 88.0731 39.9782 89.0988 41.2641 89.6852C42.55 90.2716 44.0037 90.3802 45.3628 89.9913C45.6583 89.9072 45.748 90.3752 45.4543 90.4589Z" fill="white"/>
<path d="M53.5522 100.74C55.097 98.0545 55.5704 94.8868 54.8779 91.8685C54.8091 91.5695 55.2778 91.4787 55.3466 91.7773C56.0613 94.9195 55.562 98.215 53.9483 101.006C53.7943 101.272 53.3991 101.005 53.5522 100.74Z" fill="white"/>
<path d="M43.1103 76.7832C43.709 76.7426 44.2883 76.5542 44.796 76.235C45.3037 75.9159 45.724 75.4759 46.0192 74.9547C46.1697 74.687 46.5648 74.9548 46.4152 75.2208C46.0864 75.7952 45.6216 76.2805 45.0615 76.6344C44.5013 76.9882 43.8628 77.1998 43.2017 77.2507C43.1398 77.2607 43.0764 77.2469 43.0244 77.2119C42.9724 77.177 42.9357 77.1236 42.9217 77.0626C42.9099 77.0006 42.9231 76.9365 42.9584 76.8842C42.9937 76.8319 43.0483 76.7956 43.1103 76.7832Z" fill="white"/>
<path d="M68.1986 22.5959L80.1604 162.283L56.2368 164.077V24.3731C59.0875 22.4914 63.1797 22.197 68.1986 22.5959Z" fill="#CCCCCC"/>
<path d="M127.245 22.5959L115.283 162.283L139.206 164.077V24.3731C136.356 22.4914 132.263 22.197 127.245 22.5959Z" fill="#CCCCCC"/>
<path d="M135.624 169.85H59.5645C58.3449 169.849 57.1756 169.365 56.3132 168.505C55.4508 167.644 54.9657 166.478 54.9644 165.261V26.4232C54.9657 25.2066 55.4508 24.0402 56.3132 23.1799C57.1756 22.3196 58.3449 21.8357 59.5645 21.8343H135.624C136.844 21.8357 138.013 22.3196 138.875 23.1799C139.738 24.0402 140.223 25.2066 140.224 26.4232V165.261C140.223 166.478 139.738 167.644 138.875 168.505C138.013 169.365 136.844 169.849 135.624 169.85ZM59.5645 23.3576C58.7497 23.3585 57.9686 23.6818 57.3925 24.2565C56.8164 24.8312 56.4923 25.6104 56.4914 26.4232V165.261C56.4923 166.074 56.8164 166.853 57.3925 167.428C57.9686 168.003 58.7497 168.326 59.5645 168.327H135.624C136.439 168.326 137.22 168.003 137.796 167.428C138.372 166.853 138.696 166.074 138.697 165.261V26.4232C138.696 25.6104 138.372 24.8312 137.796 24.2565C137.22 23.6818 136.439 23.3585 135.624 23.3576L59.5645 23.3576Z" fill="#CCCCCC"/>
<path d="M139.461 44.938H55.728V46.4613H139.461V44.938Z" fill="#CCCCCC"/>
<path d="M139.461 70.3267H55.728V71.85H139.461V70.3267Z" fill="#CCCCCC"/>
<path d="M82.9001 22.5959H81.373V91.9071H82.9001V22.5959Z" fill="#CCCCCC"/>
<path d="M113.816 22.5959H112.289V91.9071H113.816V22.5959Z" fill="#CCCCCC"/>
<path d="M149.005 174.04H48.7291C46.9066 174.04 45.1588 173.317 43.8701 172.032C42.5814 170.746 41.8574 169.003 41.8574 167.185C41.8574 165.367 42.5814 163.623 43.8701 162.337C45.1588 161.052 46.9066 160.33 48.7291 160.33H149.005C150.827 160.33 152.575 161.052 153.864 162.337C155.152 163.623 155.876 165.367 155.876 167.185C155.876 169.003 155.152 170.746 153.864 172.032C152.575 173.317 150.827 174.04 149.005 174.04Z" fill="#CCCCCC"/>
<path d="M139.46 88.3527H56.2368V93.4304H139.46V88.3527Z" fill="#CCCCCC"/>
<path d="M83.137 104.513L83.0314 104.462C77.358 101.728 69.9286 101.73 58.9415 104.471L58.8242 104.5L58.789 104.385C57.6267 100.583 56.31 96.2769 58.7835 94.1585C58.8182 87.9419 64.2845 82.8941 70.9987 82.8941C77.7116 82.8941 83.1771 87.9393 83.2138 94.1542C86.8933 96.9606 85.1398 101.108 83.1964 104.412L83.137 104.513Z" fill="#2F2E41"/>
<path d="M118.007 91.2014C117.906 91.7051 117.694 92.1805 117.389 92.594C117.083 93.0075 116.69 93.3491 116.237 93.5947C115.785 93.8403 115.284 93.984 114.77 94.0156C114.256 94.0472 113.741 93.9659 113.262 93.7775L93.2121 113.876L91.4233 107.636L111.336 88.9711C111.707 88.1889 112.352 87.5695 113.15 87.2303C113.948 86.891 114.842 86.8555 115.665 87.1304C116.487 87.4053 117.18 87.9715 117.611 88.7218C118.043 89.4722 118.184 90.3544 118.007 91.2014Z" fill="#FFB6B6"/>
<path d="M68.4554 110.551C68.4554 110.551 66.6364 114.663 71.1247 117.199C75.6131 119.735 91.3002 116.231 93.8456 115.742C96.391 115.253 105.898 101.06 105.898 101.06L104.553 94.0999L91.9452 105.018L68.4554 110.551Z" fill="#00A6FB"/>
<path d="M65.1447 133.291L65.3992 138.115C65.3992 138.115 64.648 142.388 65.2658 143.31C65.8789 144.227 82.6105 144.343 82.6105 144.343C82.6105 144.343 83.716 138.398 84.6683 133.194L65.1447 133.291Z" fill="#FFB6B6"/>
<path d="M113.25 197.072L116.748 196.368L115.747 182.273L110.584 183.314L113.25 197.072Z" fill="#FFB6B6"/>
<path d="M118.26 178.731L121.512 177.272L117.294 163.787L112.494 165.94L118.26 178.731Z" fill="#FFB6B6"/>
<path d="M121.093 171.132L114.97 174.591L99.8696 150.385C89.269 157.509 78.903 160.921 68.4532 162.742C64.9201 163.369 61.3179 163.051 60.6397 159.464C60.6079 159.296 60.5827 159.128 60.5638 158.958C60.1466 155.04 65.0325 150.017 65.6536 145.223L79.0255 144.423L80.6744 146.532L96.1386 137.047C99.2485 135.14 103.339 136.172 105.274 139.352C105.377 139.52 105.472 139.692 105.559 139.868L121.093 171.132Z" fill="#2F2E41"/>
<path d="M117.346 187.416L110.339 188.066L97.6362 162.149C85.0393 164.31 73.1552 165.002 62.876 162.388C59.3958 161.515 57.2684 157.93 58.1244 154.381C58.1644 154.215 58.2107 154.051 58.2632 153.888C59.4934 150.144 62.7137 147.495 65.2509 143.376L83.7832 143.657L81.7133 150.782L99.7162 148.458C103.337 147.991 106.643 150.605 107.101 154.297C107.126 154.492 107.141 154.688 107.149 154.884L117.346 187.416Z" fill="#2F2E41"/>
<path d="M72.3807 100.828C76.5367 100.828 79.9059 97.4671 79.9059 93.3212C79.9059 89.1753 76.5367 85.8143 72.3807 85.8143C68.2246 85.8143 64.8555 89.1753 64.8555 93.3212C64.8555 97.4671 68.2246 100.828 72.3807 100.828Z" fill="#FFB6B6"/>
<path d="M67.9695 103.538L74.8694 104.348C75.1603 104.382 75.4334 104.506 75.6505 104.702C75.8675 104.898 76.0178 105.157 76.0804 105.443L77.1777 110.452L84.0179 118.488C84.0179 118.488 86.4742 123.082 85.5531 128.289C84.632 133.496 84.2272 137.365 84.2272 137.365C84.2272 137.365 65.8783 144.228 65.2642 143.309C64.6502 142.39 64.4509 138.216 64.4509 138.216L61.9946 110.957C61.9946 110.957 64.7579 106.362 66.2931 106.362C67.2839 106.329 67.1568 104.104 67.9695 103.538Z" fill="#00A6FB"/>
<path d="M84.4136 139.041C85.3812 139.041 86.1656 138.102 86.1656 136.943C86.1656 135.785 85.3812 134.846 84.4136 134.846C83.446 134.846 82.6616 135.785 82.6616 136.943C82.6616 138.102 83.446 139.041 84.4136 139.041Z" fill="#00A6FB"/>
<path d="M111.514 193.444L116.847 190.777L117.852 193.117L124.596 194.476C124.929 194.544 125.232 194.715 125.46 194.966C125.688 195.217 125.83 195.534 125.865 195.871C125.9 196.209 125.826 196.548 125.654 196.84C125.481 197.133 125.22 197.362 124.908 197.496L118.392 200.282L116.275 198.448L116.831 200.95L114.374 202L111.514 193.444Z" fill="#2F2E41"/>
<path d="M116.734 177.609L122.019 174.85L123.066 177.171L129.832 178.412C130.166 178.473 130.472 178.64 130.705 178.886C130.938 179.133 131.085 179.448 131.126 179.785C131.167 180.121 131.099 180.462 130.932 180.757C130.765 181.052 130.507 181.286 130.197 181.425L123.732 184.325L121.583 182.529L122.182 185.02L119.745 186.114L116.734 177.609Z" fill="#2F2E41"/>
<path d="M68.0813 90.9665C66.0932 90.9697 64.1528 90.359 62.5265 89.2183L62.4722 89.1804V89.1143C62.4744 87.1959 63.2393 85.3567 64.5991 84.0002C65.9589 82.6437 67.8025 81.8807 69.7256 81.8785H72.7797C74.7027 81.8807 76.5464 82.6437 77.9062 84.0002C79.266 85.3567 80.0309 87.1959 80.0331 89.1143C80.0311 89.5534 79.8573 89.9743 79.5488 90.2874C79.2402 90.6006 78.8214 90.7812 78.3813 90.7908L68.2529 90.965C68.1957 90.966 68.1383 90.9665 68.0813 90.9665Z" fill="#2F2E41"/>
<path d="M80.5423 87.7246C81.5162 87.1638 81.6789 85.6262 80.9058 84.2905C80.1327 82.9547 78.7166 82.3266 77.7428 82.8874C76.7689 83.4483 76.6062 84.9858 77.3793 86.3216C78.1524 87.6573 79.5685 88.2855 80.5423 87.7246Z" fill="#2F2E41"/>
<path d="M65.3116 86.2345C66.4049 85.1438 66.6467 83.6167 65.8515 82.8235C65.0564 82.0303 63.5255 82.2714 62.4322 83.3621C61.3389 84.4527 61.0972 85.9799 61.8923 86.7731C62.6875 87.5662 64.2183 87.3251 65.3116 86.2345Z" fill="#2F2E41"/>
<path d="M131.912 154.871H124.4C124.231 154.871 124.063 154.907 123.91 154.978C123.756 155.049 123.619 155.153 123.51 155.282C123.233 155.231 122.948 155.246 122.678 155.327C122.408 155.407 122.161 155.551 121.957 155.745C121.754 155.939 121.599 156.178 121.506 156.444C121.413 156.709 121.385 156.992 121.423 157.271C121.461 157.549 121.565 157.815 121.726 158.045C121.887 158.276 122.101 158.465 122.349 158.597C122.598 158.729 122.874 158.801 123.156 158.806C123.438 158.811 123.716 158.749 123.97 158.626L124.593 160.646C124.666 160.885 124.815 161.094 125.017 161.243C125.219 161.392 125.463 161.472 125.714 161.472H130.598C130.849 161.472 131.093 161.392 131.295 161.243C131.497 161.094 131.646 160.885 131.719 160.646L133.033 156.386C133.087 156.211 133.099 156.026 133.069 155.845C133.038 155.665 132.965 155.494 132.856 155.346C132.747 155.199 132.604 155.079 132.44 154.997C132.276 154.914 132.095 154.871 131.912 154.871ZM123.193 158.299C122.856 158.299 122.532 158.165 122.293 157.927C122.055 157.689 121.921 157.366 121.921 157.029C121.921 156.692 122.055 156.37 122.293 156.132C122.532 155.893 122.856 155.76 123.193 155.76C123.216 155.76 123.238 155.765 123.261 155.767C123.21 155.971 123.217 156.185 123.279 156.386L123.816 158.129C123.627 158.239 123.412 158.297 123.193 158.299Z" fill="#3F3D56"/>
<path d="M98.3713 149.36C97.8583 149.407 97.3412 149.342 96.8564 149.168C96.3716 148.995 95.9308 148.717 95.5651 148.355C95.1995 147.993 94.9178 147.556 94.7399 147.073C94.5621 146.591 94.4924 146.076 94.5357 145.564L69.4824 132.171L74.9622 128.671L98.5989 142.345C99.4564 142.475 100.236 142.914 100.791 143.579C101.346 144.244 101.637 145.089 101.609 145.953C101.58 146.818 101.235 147.642 100.639 148.27C100.042 148.898 99.2353 149.286 98.3713 149.36Z" fill="#FFB6B6"/>
<path d="M65.573 107.558C65.573 107.558 61.1023 107 59.9548 112.017C58.8074 117.034 66.6727 131.019 67.8728 133.311C69.0729 135.603 85.4294 140.616 85.4294 140.616L91.7277 137.335L77.6253 128.419L65.573 107.558Z" fill="#00A6FB"/>
<path d="M97.0852 86.8294H98.6123C99.3547 86.8294 100.067 87.1236 100.592 87.6474C101.117 88.1711 101.412 88.8814 101.412 89.6221H94.2856C94.2856 88.8814 94.5806 88.1711 95.1056 87.6474C95.6306 87.1236 96.3427 86.8294 97.0852 86.8294Z" fill="#CCCCCC"/>
<path d="M48.663 34.723C57.0182 34.723 63.7914 27.9663 63.7914 19.6315C63.7914 11.2967 57.0182 4.53996 48.663 4.53996C40.3079 4.53996 33.5347 11.2967 33.5347 19.6315C33.5347 27.9663 40.3079 34.723 48.663 34.723Z" fill="#FF6584"/>
<path d="M94.9826 18.845C90.9789 14.6552 86.3291 10.8331 80.8245 8.81331C79.2912 8.2483 77.7013 7.84974 76.0824 7.62453C76.0694 7.62275 76.0571 7.62538 76.0441 7.62433C76.0178 7.61756 75.9911 7.61233 75.9641 7.60867C73.6999 7.32093 71.4017 7.45934 69.1886 8.01673C68.1064 8.28765 67.0506 8.65455 66.0338 9.11305C65.0135 9.60961 64.0249 10.1685 63.0736 10.7866C61.06 11.989 58.8431 12.814 56.5321 13.221C55.3721 13.4294 54.1972 13.5444 53.0188 13.565C51.9962 13.5855 51.0319 13.6209 50.0631 13.9894C49.0282 14.3776 48.0986 15.0018 47.3485 15.812C46.5984 16.6223 46.0485 17.5962 45.7427 18.6561C45.7191 18.7505 45.7262 18.8499 45.7629 18.94C45.7997 19.0301 45.8642 19.1062 45.9471 19.1574C46.2092 19.3446 46.4647 19.5571 46.74 19.7239C46.985 19.8357 47.2466 19.9069 47.5145 19.9346C47.9523 20.0267 48.3906 20.1162 48.8295 20.203C50.4463 20.5225 52.0698 20.8054 53.7001 21.0516C56.9989 21.5498 60.3155 21.9007 63.6499 22.1043C70.3296 22.508 77.0323 22.307 83.6757 21.5039C87.4094 21.0528 91.1176 20.413 94.7863 19.5869C94.8606 19.5652 94.928 19.5248 94.982 19.4695C95.036 19.4142 95.0747 19.3459 95.0945 19.2713C95.1142 19.1966 95.1143 19.1182 95.0947 19.0435C95.0751 18.9688 95.0365 18.9004 94.9826 18.845Z" fill="#E6E6E6"/>
<path d="M49.3811 28.9353C47.8478 28.3703 46.2579 27.9718 44.639 27.7466C44.626 27.7448 44.6137 27.7474 44.6007 27.7464C44.5744 27.7396 44.5477 27.7344 44.5208 27.7307C42.2565 27.443 39.9583 27.5814 37.7452 28.1388C36.663 28.4097 35.6072 28.7766 34.5905 29.2351C33.5701 29.7317 32.5815 30.2906 31.6302 30.9086C29.6167 32.111 27.3997 32.936 25.0888 33.3431C23.9288 33.5514 22.7539 33.6664 21.5754 33.687C20.5529 33.7075 19.5886 33.7429 18.6198 34.1115C17.5849 34.4997 16.6553 35.1238 15.9051 35.934C15.155 36.7443 14.6051 37.7182 14.2993 38.7781C14.2757 38.8725 14.2828 38.9719 14.3196 39.062C14.3563 39.1521 14.4208 39.2283 14.5038 39.2794C14.7658 39.4666 15.0213 39.6791 15.2967 39.8459C15.5416 39.9577 15.8032 40.0289 16.0712 40.0566C16.5089 40.1488 16.9472 40.2382 17.3861 40.325C19.0029 40.6445 20.6265 40.9274 22.2567 41.1736C25.5555 41.6718 28.8721 42.0227 32.2065 42.2264C38.8863 42.63 45.5889 42.429 52.2324 41.6259C55.966 41.1748 59.6743 40.535 63.3429 39.7089C63.4172 39.6873 63.4846 39.6468 63.5386 39.5915C63.5926 39.5362 63.6314 39.4679 63.6511 39.3933C63.6709 39.3186 63.671 39.2402 63.6514 39.1655C63.6318 39.0908 63.5932 39.0225 63.5393 38.967C59.5356 34.7773 54.8857 30.9551 49.3811 28.9353Z" fill="#E6E6E6"/>
<path d="M158.478 141.44L146.844 126.194L137.665 131.372L157.117 154.415L158.478 141.44Z" fill="#3F3D56"/>
<path d="M185.277 116.656C185.535 123.045 186.528 129.384 188.234 135.548C187.868 136.408 187.489 137.263 187.099 138.112C185.622 141.327 183.969 144.458 182.146 147.491C177.035 156.008 170.654 163.7 163.224 170.302C162.42 171.016 161.604 171.717 160.778 172.407C156.067 165.928 153.525 158.778 152.519 151.421C152.392 150.486 152.288 149.542 152.209 148.603V148.598C152.016 146.315 151.954 144.022 152.023 141.732C152.026 141.55 152.031 141.364 152.038 141.179C152.127 138.731 152.349 136.279 152.682 133.849V133.847C152.72 133.567 152.759 133.288 152.802 133.009C152.924 132.171 153.061 131.333 153.212 130.5C154.085 125.698 155.305 120.964 156.861 116.336V116.334C156.904 116.199 156.948 116.067 156.996 115.935C157.164 115.432 157.335 114.935 157.51 114.437C157.521 114.398 157.535 114.36 157.551 114.323C157.777 113.673 158.009 113.028 158.246 112.388C158.309 112.21 158.376 112.033 158.444 111.855C158.711 111.142 158.984 110.433 159.261 109.735C159.348 109.512 159.437 109.288 159.526 109.067C159.595 108.897 159.661 108.727 159.732 108.56V108.557C160.137 107.559 160.546 106.581 160.961 105.622C162.124 102.926 163.321 100.389 164.486 98.0512L164.489 98.0486C169.327 88.3679 173.725 82.0817 173.725 82.0817L190.24 87.4133C188.27 90.8992 186.745 96.0404 185.911 102.106C185.267 106.927 185.055 111.795 185.277 116.653L185.277 116.656Z" fill="#3F3D56"/>
<path d="M157.828 115.105C157.732 114.879 157.622 114.658 157.51 114.437C156.93 113.316 156.182 112.289 155.294 111.39C155.161 111.256 155.024 111.121 154.881 110.994C153.348 109.586 151.484 108.585 149.461 108.086C147.438 107.586 145.321 107.603 143.306 108.136L143.296 108.141L143.22 108.161L143.238 108.247C143.314 108.649 143.425 109.044 143.568 109.428C143.607 109.532 143.65 109.631 143.693 109.73C143.711 109.776 143.734 109.816 143.754 109.862C143.754 109.862 143.752 109.865 143.757 109.865C143.757 109.867 143.759 109.87 143.759 109.872C143.808 109.966 143.854 110.063 143.904 110.154C143.8 110.055 143.701 109.953 143.604 109.849C143.51 109.753 143.423 109.651 143.337 109.55C143.04 109.205 142.772 108.836 142.535 108.448L142.494 108.379L142.423 108.407C141.463 108.739 140.547 109.187 139.695 109.74L139.603 109.801C138.953 110.227 138.22 110.512 137.452 110.637C136.685 110.762 135.899 110.725 135.147 110.527C133.961 110.222 132.724 110.166 131.515 110.363C130.306 110.561 129.152 111.006 128.125 111.672C127.445 112.115 126.83 112.65 126.298 113.262C126.252 113.315 126.206 113.371 126.16 113.424C126.064 113.541 125.972 113.66 125.883 113.782C124.926 115.058 124.339 116.571 124.185 118.157L124.18 118.215L124.229 118.248C125.09 118.837 126.064 119.241 127.089 119.436C126.445 119.526 125.793 119.542 125.145 119.484H125.142C124.848 119.46 124.556 119.419 124.267 119.362L124.213 119.352H124.211L124.145 119.34L124.155 119.461C124.231 121.013 124.72 122.516 125.572 123.816L125.598 123.851C125.607 123.864 125.616 123.878 125.623 123.892C125.984 124.443 126.285 125.031 126.519 125.646C127.114 127.175 127.245 128.845 126.896 130.447C126.5 132.161 126.632 133.954 127.273 135.593C127.914 137.231 129.035 138.639 130.489 139.633C131.767 140.51 133.256 141.031 134.803 141.143C135.015 141.161 135.228 141.171 135.442 141.171C136.666 141.175 137.877 140.923 138.998 140.433L139.038 140.417L139.048 140.372C139.264 139.678 139.567 139.014 139.949 138.396C139.824 138.883 139.761 139.384 139.761 139.887V140.054L139.906 139.97C140.031 139.897 140.158 139.818 140.273 139.745C140.96 139.297 141.583 138.757 142.123 138.14C142.334 137.896 142.548 137.66 142.772 137.424L142.774 137.421C143.21 136.959 143.67 136.507 144.149 136.076C145.167 135.164 146.256 134.334 147.406 133.595C148.556 132.859 149.758 132.207 151.003 131.646H151.005C151.145 131.58 151.288 131.516 151.428 131.455C152.047 131.186 152.644 130.867 153.212 130.5C153.232 130.488 153.25 130.478 153.268 130.465C155.728 128.858 157.537 126.432 158.372 123.619C159.207 120.806 159.015 117.789 157.828 115.105Z" fill="#00A6FB"/>
<path opacity="0.15" d="M127.315 134.052C127.246 134.361 127.193 134.673 127.157 134.987C126.684 133.493 126.615 131.901 126.958 130.372C127.011 130.138 127.051 129.902 127.082 129.664C127.552 131.079 127.633 132.595 127.315 134.052Z" fill="black"/>
<path opacity="0.15" d="M127.508 123.039C126.754 123.143 125.989 123.147 125.234 123.05C125.037 122.678 124.866 122.292 124.724 121.896C125.564 122.462 126.511 122.851 127.508 123.039Z" fill="black"/>
<path opacity="0.15" d="M125.174 119.403C124.895 120.113 124.71 120.856 124.623 121.613C124.391 120.892 124.254 120.143 124.216 119.387L124.209 119.265L124.33 119.288C124.609 119.34 124.89 119.379 125.174 119.403Z" fill="black"/>
<path opacity="0.15" d="M128.19 111.597C129.216 110.93 130.37 110.484 131.578 110.286C132.787 110.089 134.023 110.145 135.208 110.45C135.961 110.649 136.747 110.687 137.515 110.562C138.283 110.437 139.017 110.152 139.667 109.725L139.759 109.665C140.61 109.11 141.526 108.662 142.486 108.329L142.559 108.304L142.599 108.37C142.979 108.996 143.439 109.57 143.967 110.077C143.646 109.48 143.421 108.837 143.301 108.17L143.284 108.082L143.371 108.06C145.26 107.561 147.241 107.514 149.152 107.925C151.063 108.335 152.85 109.19 154.366 110.421C155.883 111.651 157.086 113.221 157.879 115.004C158.671 116.786 159.03 118.731 158.925 120.678C158.524 119.09 157.812 117.598 156.829 116.287C155.845 114.977 154.611 113.874 153.198 113.042C151.784 112.211 150.219 111.667 148.593 111.444C146.968 111.22 145.314 111.32 143.727 111.739L143.64 111.762L143.658 111.85C143.778 112.516 144.003 113.16 144.324 113.757C143.796 113.249 143.336 112.675 142.956 112.049L142.916 111.983L142.842 112.008C141.882 112.341 140.967 112.79 140.116 113.344L140.024 113.405C139.373 113.831 138.64 114.117 137.872 114.241C137.104 114.366 136.317 114.328 135.565 114.13C133.595 113.62 131.508 113.807 129.661 114.661C127.814 115.514 126.321 116.979 125.436 118.808C125.042 118.619 124.66 118.406 124.292 118.171L124.242 118.139L124.248 118.081C124.375 116.774 124.795 115.512 125.477 114.39C126.16 113.267 127.087 112.313 128.19 111.597Z" fill="black"/>
<path d="M222.807 46.7254L222.565 46.5654L222.389 46.7939C221.03 48.5009 219.949 50.4107 219.185 52.4531C219.29 50.1002 219.703 47.771 220.412 45.5245L220.488 45.2884L220.269 45.164C217.422 43.5554 214.387 42.3004 211.234 41.4267L210.891 41.3353C208.474 40.6739 206.224 39.5117 204.288 37.9246C202.352 36.3375 200.773 34.3611 199.654 32.1243C197.054 26.9909 192.946 22.7706 187.879 20.0266C182.812 17.2825 177.026 16.1453 171.294 16.7667H171.292C171.231 16.7718 171.167 16.7794 171.106 16.787C171.002 16.7972 170.9 16.8099 170.798 16.8226C170.589 16.8505 170.386 16.8784 170.182 16.9089C170.009 16.9343 169.834 16.9622 169.661 16.9927C169.569 17.0054 169.48 17.0206 169.391 17.0384C169.302 17.0536 169.21 17.0688 169.121 17.0866H169.118C167.41 17.409 165.735 17.8893 164.115 18.5211H164.112V18.5236L163.703 18.6835C163.28 18.8562 162.861 19.039 162.445 19.2319C162.351 19.2751 162.259 19.3208 162.165 19.364C162.14 19.3766 162.112 19.3893 162.086 19.4046C161.819 19.5315 161.554 19.6635 161.292 19.8032C161.254 19.821 161.216 19.8413 161.178 19.8616L160.933 19.9911C160.396 20.2805 159.869 20.5877 159.35 20.9127C159.307 20.9381 159.266 20.9634 159.223 20.9914C159.177 21.0218 159.129 21.0523 159.083 21.0828C159.055 21.098 159.027 21.1183 158.999 21.1361C158.92 21.1843 158.844 21.2351 158.768 21.2884C158.615 21.3874 158.462 21.489 158.312 21.5931C158.157 21.6972 158.004 21.8063 157.851 21.9155L157.699 22.0247L157.727 22.2126C157.752 22.3674 157.775 22.5223 157.803 22.6746C157.829 22.827 157.854 22.9768 157.882 23.1266C157.925 23.3779 157.974 23.6267 158.022 23.8679C158.055 24.0279 158.086 24.1853 158.121 24.3401C158.154 24.5001 158.19 24.66 158.228 24.82C158.302 25.15 158.381 25.4699 158.465 25.7848C158.506 25.9422 158.549 26.0996 158.595 26.2544C158.62 26.3484 158.645 26.4423 158.673 26.5337C158.694 26.5972 158.714 26.6607 158.735 26.7241C158.74 26.7444 158.745 26.7673 158.752 26.7901C158.758 26.8117 158.765 26.8328 158.773 26.8536C158.801 26.9476 158.829 27.039 158.857 27.1278C158.872 27.1761 158.887 27.2243 158.905 27.27C158.941 27.3792 158.979 27.4909 159.017 27.5975C159.058 27.7194 159.101 27.8412 159.144 27.9606C159.154 27.991 159.165 28.019 159.175 28.0494C159.182 28.0723 159.19 28.0951 159.2 28.118C159.21 28.1434 159.221 28.1713 159.231 28.1967C159.274 28.3109 159.317 28.4277 159.363 28.542C159.378 28.5826 159.394 28.6258 159.412 28.6664C159.824 29.7007 160.331 30.695 160.926 31.6369C160.267 31.0732 159.632 30.4757 159.022 29.8444C158.08 28.8682 157.213 27.8236 156.426 26.7191C156.363 26.6327 156.299 26.5439 156.24 26.455C156.121 26.2849 156.004 26.1148 155.889 25.9422C155.767 25.7644 155.65 25.5791 155.535 25.3963C155.459 25.2744 155.383 25.15 155.309 25.0282C155.235 24.9114 155.166 24.7971 155.1 24.6803L154.902 24.3401H154.899V24.3427L154.619 24.6169C154.507 24.7261 154.395 24.8352 154.286 24.9444C150.865 28.3777 148.387 32.6313 147.091 37.296L147.053 37.4356L147.015 37.5803C146.941 37.8393 146.867 38.0906 146.788 38.3471V38.3496C146.712 38.6035 146.63 38.8574 146.544 39.1062C146.465 39.3423 146.383 39.5759 146.297 39.8095C146.269 39.8882 146.238 39.9669 146.205 40.0456C146.152 40.1979 146.093 40.3477 146.035 40.5C146.007 40.5686 145.979 40.6397 145.951 40.7082C145.882 40.8758 145.813 41.0434 145.745 41.2084C145.734 41.2338 145.722 41.2617 145.709 41.2871C145.689 41.3379 145.666 41.3886 145.645 41.4369C145.592 41.5587 145.536 41.6831 145.482 41.805C145.444 41.8837 145.409 41.965 145.373 42.0437C145.358 42.0792 145.34 42.1148 145.325 42.1503C145.23 42.3534 145.134 42.554 145.032 42.752C144.917 42.9856 144.8 43.2192 144.676 43.4477C144.566 43.6609 144.452 43.8691 144.332 44.0773C144.126 44.4455 143.91 44.8111 143.686 45.1665C143.599 45.3036 143.513 45.4407 143.423 45.5778C143.403 45.6108 143.383 45.6438 143.362 45.6743C143.289 45.7936 143.212 45.9079 143.133 46.0246C143.08 46.1033 143.026 46.182 142.973 46.2582C142.884 46.3953 142.79 46.5273 142.693 46.6568C142.668 46.6974 142.64 46.7355 142.612 46.7736C142.469 46.9716 142.327 47.1646 142.181 47.3575C142.176 47.3601 142.176 47.3626 142.174 47.3652C142.169 47.3652 142.169 47.3677 142.166 47.3702C142.103 47.454 142.039 47.5378 141.973 47.619C141.886 47.7384 141.792 47.8552 141.698 47.9694C141.545 48.1624 141.385 48.3579 141.222 48.5483C141.217 48.5533 141.214 48.5584 141.209 48.561C140.366 49.5493 139.452 50.4759 138.476 51.3334C138.458 51.3486 138.445 51.3639 138.427 51.3766C138.29 51.4959 138.153 51.6152 138.01 51.732C137.952 51.7803 137.893 51.8285 137.834 51.8767C137.738 51.958 137.639 52.0392 137.542 52.1128C137.53 52.1245 137.518 52.1347 137.504 52.1433C137.417 52.2144 137.333 52.2804 137.247 52.3464C137.142 52.4302 137.038 52.5089 136.931 52.5876C136.427 52.9684 135.91 53.3281 135.378 53.6666C135.3 53.7199 135.216 53.7733 135.134 53.824C135.086 53.8545 135.037 53.885 134.992 53.9104C134.798 54.0297 134.605 54.1465 134.411 54.2582C134.218 54.3724 134.019 54.4816 133.823 54.5882C133.404 54.8167 132.989 55.0554 132.584 55.3042C132.38 55.4311 132.177 55.5581 131.976 55.6876C131.177 56.2055 130.407 56.7598 129.667 57.3505C128.928 57.9416 128.218 58.5695 127.542 59.2318C127.458 59.3131 127.374 59.3969 127.29 59.4832C127.122 59.6482 126.959 59.8158 126.804 59.9833C126.555 60.2398 126.316 60.5038 126.079 60.7704C124.831 62.1831 123.726 63.7156 122.78 65.3454C122.306 66.1593 121.874 66.9974 121.488 67.8564C121.195 68.4987 120.928 69.1563 120.686 69.8215C120.525 70.2658 120.375 70.7143 120.235 71.1671C120.167 71.393 120.1 71.6215 120.037 71.85C119.821 72.6244 119.64 73.4063 119.492 74.1908C119.373 74.8205 119.276 75.451 119.202 76.0823C119.164 76.3997 119.133 76.717 119.105 77.0318C119.04 77.8056 119.006 78.5802 119.005 79.3555C119 81.6814 119.284 83.9989 119.849 86.2556C119.973 86.7532 120.111 87.2483 120.263 87.7408C120.34 87.9871 120.421 88.2308 120.503 88.4745C120.709 89.0839 120.937 89.6873 121.187 90.2847C121.337 90.6427 121.495 90.9982 121.661 91.3511C122.712 93.5946 124.054 95.6909 125.651 97.5865C125.913 97.8988 126.184 98.206 126.463 98.5081C126.466 98.5081 126.463 98.5107 126.463 98.5107C127.156 99.2642 127.889 99.9795 128.66 100.653H128.662C128.97 100.925 129.283 101.188 129.601 101.443C129.604 101.441 129.604 101.443 129.604 101.443C129.924 101.702 130.248 101.951 130.578 102.192C130.744 102.311 130.912 102.431 131.082 102.55C131.416 102.786 131.756 103.014 132.103 103.233H132.106C132.452 103.456 132.803 103.67 133.159 103.873C133.874 104.282 134.607 104.665 135.361 105.013L135.488 105.071L135.618 105.013C136.826 104.47 138.071 104.015 139.344 103.649C139.624 103.568 139.906 103.494 140.186 103.423C140.894 103.248 141.606 103.101 142.324 102.982C141.625 103.332 140.95 103.728 140.303 104.167C139.802 104.505 139.308 104.873 138.812 105.279C138.646 105.414 138.481 105.554 138.316 105.696L137.903 106.051L138.42 106.221C138.608 106.282 138.797 106.343 138.985 106.399C139.242 106.48 139.496 106.554 139.746 106.622C140.29 106.775 140.839 106.909 141.39 107.026C141.525 107.054 141.657 107.082 141.792 107.11C142.054 107.161 142.319 107.211 142.584 107.257C142.594 107.26 142.606 107.262 142.617 107.262C142.892 107.308 143.169 107.351 143.444 107.389C143.955 107.463 144.467 107.521 144.978 107.564C145.034 107.572 145.09 107.574 145.149 107.577C145.274 107.587 145.396 107.597 145.521 107.605C145.795 107.623 146.073 107.635 146.35 107.646C146.371 107.646 146.388 107.648 146.409 107.648C146.549 107.653 146.689 107.658 146.829 107.661C146.829 107.661 146.829 107.663 146.831 107.661C146.971 107.663 147.111 107.666 147.251 107.666H148.025C148.17 107.666 148.315 107.668 148.463 107.668C148.666 107.668 148.872 107.671 149.076 107.673C149.13 107.673 149.185 107.676 149.241 107.676C149.567 107.681 149.893 107.689 150.219 107.696C150.239 107.696 150.26 107.699 150.28 107.699C150.606 107.709 150.931 107.719 151.257 107.734C151.328 107.737 151.4 107.739 151.474 107.745C151.787 107.757 152.1 107.772 152.413 107.79C152.502 107.795 152.593 107.803 152.685 107.808C152.922 107.821 153.161 107.836 153.398 107.854C153.538 107.861 153.675 107.872 153.815 107.884C154.38 107.927 154.942 107.976 155.507 108.031C155.696 108.047 155.884 108.067 156.072 108.087C156.576 108.141 157.082 108.199 157.589 108.262C157.816 108.288 158.042 108.318 158.269 108.349C158.294 108.351 158.32 108.354 158.345 108.359C158.625 108.397 158.903 108.435 159.183 108.476C159.366 108.501 159.549 108.529 159.732 108.557C159.921 108.585 160.109 108.613 160.297 108.646C160.399 108.661 160.501 108.679 160.605 108.697C160.85 108.735 161.096 108.775 161.343 108.821C161.366 108.823 161.388 108.827 161.409 108.831C161.934 108.923 162.461 109.019 162.985 109.123C163.293 109.182 163.598 109.242 163.904 109.306C164.143 109.354 164.382 109.405 164.621 109.456C164.662 109.463 164.703 109.474 164.743 109.484C164.753 109.486 164.762 109.488 164.771 109.489C165.133 109.567 165.497 109.649 165.858 109.735C167.113 110.024 168.366 110.346 169.617 110.7C169.905 110.779 170.192 110.862 170.48 110.946C170.602 110.982 170.722 111.017 170.841 111.053C171.091 111.126 171.338 111.2 171.587 111.279C171.806 111.345 172.027 111.413 172.246 111.484C172.384 111.527 172.521 111.571 172.659 111.616C172.872 111.682 173.086 111.751 173.297 111.825C173.478 111.88 173.656 111.939 173.834 112.002C174.089 112.086 174.346 112.172 174.601 112.264C174.674 112.289 174.751 112.315 174.824 112.342C175.135 112.449 175.445 112.558 175.756 112.673C176.059 112.782 176.362 112.893 176.662 113.005C176.871 113.084 177.079 113.16 177.286 113.241C177.517 113.33 177.749 113.419 177.978 113.51C178.309 113.64 178.642 113.772 178.973 113.906C179.278 114.028 179.581 114.153 179.887 114.282C179.943 114.305 180.001 114.328 180.057 114.353C180.322 114.462 180.587 114.577 180.849 114.691C181.019 114.762 181.187 114.836 181.355 114.909C182.088 115.229 182.82 115.56 183.552 115.902H183.554C184.012 116.118 184.478 116.323 184.946 116.519C185.056 116.565 185.165 116.61 185.277 116.653C185.463 116.732 185.651 116.806 185.84 116.882C185.962 116.93 186.084 116.978 186.209 117.024C186.389 117.095 186.573 117.164 186.756 117.23C186.949 117.301 187.14 117.372 187.336 117.438C187.405 117.463 187.473 117.486 187.545 117.512C187.771 117.588 187.998 117.664 188.227 117.738C188.25 117.745 188.273 117.753 188.298 117.76C188.537 117.837 188.777 117.913 189.018 117.984C189.037 117.991 189.057 117.997 189.077 118.002C189.336 118.08 189.601 118.156 189.863 118.23C190.25 118.337 190.64 118.438 191.029 118.532C191.1 118.55 191.171 118.568 191.243 118.583C191.451 118.634 191.658 118.682 191.866 118.728C192.088 118.778 192.312 118.824 192.533 118.87C192.757 118.916 192.981 118.961 193.202 119.002C193.322 119.025 193.442 119.048 193.559 119.068L193.872 119.121C194.088 119.159 194.304 119.192 194.523 119.228C194.529 119.228 194.535 119.229 194.541 119.23C194.788 119.269 195.032 119.304 195.279 119.335C195.516 119.368 195.753 119.395 195.989 119.423C196.038 119.428 196.089 119.434 196.139 119.439C196.335 119.461 196.531 119.484 196.727 119.502C196.783 119.507 196.839 119.512 196.895 119.517C197.089 119.535 197.282 119.553 197.476 119.566C197.514 119.571 197.554 119.573 197.593 119.573C197.766 119.588 197.939 119.601 198.112 119.609C198.234 119.619 198.354 119.624 198.476 119.632C198.539 119.634 198.601 119.637 198.664 119.639C198.832 119.649 199 119.654 199.171 119.659C199.377 119.667 199.583 119.672 199.787 119.677C200.033 119.682 200.283 119.685 200.53 119.685H200.535C200.777 119.685 201.021 119.682 201.263 119.677H201.354L201.622 119.67C201.759 119.667 201.896 119.662 202.031 119.657C202.291 119.647 202.548 119.634 202.805 119.619C202.907 119.614 203.011 119.606 203.113 119.601C203.159 119.599 203.207 119.593 203.253 119.591C203.413 119.581 203.571 119.571 203.731 119.558C203.897 119.545 204.065 119.53 204.23 119.512C204.444 119.492 204.658 119.469 204.872 119.446C205.04 119.428 205.208 119.408 205.373 119.388C205.395 119.386 205.417 119.382 205.439 119.378C205.599 119.36 205.76 119.34 205.918 119.317C206.106 119.291 206.292 119.263 206.478 119.236C206.498 119.233 206.516 119.23 206.536 119.228C206.857 119.177 207.18 119.126 207.503 119.068C207.842 119.007 208.18 118.941 208.516 118.872C208.641 118.847 208.763 118.819 208.888 118.794C208.956 118.779 209.028 118.766 209.094 118.751C209.198 118.728 209.3 118.705 209.402 118.679C209.42 118.677 209.44 118.672 209.458 118.669C209.6 118.639 209.74 118.603 209.883 118.568C210.168 118.499 210.448 118.428 210.728 118.352C210.853 118.322 210.977 118.289 211.097 118.256C211.132 118.245 211.168 118.235 211.201 118.225C211.718 118.08 212.23 117.927 212.738 117.766C212.962 117.694 213.184 117.621 213.405 117.542C213.881 117.38 214.353 117.209 214.82 117.029C214.945 116.984 215.07 116.933 215.194 116.885C215.378 116.811 215.561 116.737 215.742 116.664C215.904 116.595 216.067 116.527 216.233 116.455C216.314 116.422 216.396 116.387 216.477 116.351C216.721 116.245 216.966 116.136 217.208 116.026C217.37 115.95 217.531 115.877 217.691 115.8C217.946 115.679 218.198 115.554 218.45 115.43C218.513 115.397 218.574 115.364 218.635 115.333C218.796 115.252 218.956 115.168 219.119 115.087C219.376 114.95 219.633 114.813 219.887 114.671C219.974 114.625 220.058 114.577 220.145 114.528C220.425 114.371 220.702 114.211 220.977 114.049C221.585 113.686 222.185 113.306 222.776 112.911C222.924 112.815 223.071 112.713 223.216 112.614C223.491 112.426 223.761 112.233 224.031 112.04C224.059 112.02 224.084 112 224.112 111.982C224.247 111.883 224.382 111.784 224.517 111.682C224.797 111.472 225.074 111.258 225.352 111.04C225.357 111.038 225.364 111.03 225.372 111.025C225.497 110.926 225.622 110.827 225.744 110.728C226.123 110.421 226.497 110.108 226.864 109.786C227.044 109.631 227.222 109.471 227.398 109.311C227.53 109.192 227.663 109.072 227.792 108.951C228.055 108.704 228.312 108.461 228.566 108.212C228.693 108.09 228.818 107.963 228.945 107.836C229.07 107.709 229.197 107.582 229.322 107.453C229.365 107.409 229.409 107.364 229.452 107.318C229.579 107.183 229.706 107.046 229.834 106.912C229.943 106.795 230.05 106.673 230.159 106.551C230.343 106.348 230.528 106.145 230.709 105.939C230.719 105.928 230.729 105.917 230.74 105.906C230.75 105.894 230.76 105.884 230.768 105.873H230.765C234.464 101.606 237.213 96.6035 238.829 91.1969C240.445 85.7904 240.892 80.1031 240.14 74.5114C239.387 68.9198 237.453 63.5513 234.465 58.7612C231.477 53.9711 227.503 49.8686 222.807 46.7254Z" fill="#00A6FB"/>
<g opacity="0.15">
<path d="M171.292 16.7647C171.799 18.5826 172.563 20.3196 173.559 21.9237C171.891 20.4942 170.4 18.8705 169.12 17.0873C169.839 16.9516 170.563 16.844 171.292 16.7647Z" fill="black"/>
<path d="M146.458 44.8794C144.574 45.9049 142.813 47.1399 141.208 48.5608C143.918 45.3638 145.899 41.6171 147.013 37.5804C147.026 37.5319 147.04 37.483 147.053 37.4345L147.091 37.2971C148.43 32.4792 151.027 28.1025 154.618 24.6145L154.9 24.3401L155.099 24.6792C156.2 26.5463 157.517 28.2775 159.024 29.8373C156.715 36.3353 152.223 41.7434 146.458 44.8794Z" fill="black"/>
<path d="M159.725 27.5859L159.687 27.7233C159.674 27.7718 159.661 27.8207 159.647 27.8692C159.573 28.1363 159.494 28.4015 159.412 28.6655C158.607 26.5852 158.042 24.4204 157.727 22.2126L157.697 22.0253L157.852 21.9152C159.788 20.527 161.892 19.3863 164.113 18.5199C162.119 21.2559 160.633 24.3265 159.725 27.5859Z" fill="black"/>
<path d="M133.824 54.5906C135.491 53.6804 137.051 52.5878 138.476 51.3331C135.63 54.6383 133.59 58.5561 132.516 62.7793C131.442 67.0026 131.363 71.4166 132.284 75.6755C133.206 79.9344 135.104 83.9225 137.83 87.3273C140.555 90.7321 144.034 93.4611 147.993 95.3005L148.122 95.3597L148.25 95.3019C150.389 94.3381 152.644 93.655 154.959 93.2698C153.514 94.004 152.167 94.9161 150.95 95.9847L150.538 96.3399L151.055 96.51C151.5 96.6571 151.946 96.7924 152.38 96.9124C154.927 97.6202 157.56 97.9716 160.204 97.9568C172.217 97.88 184.324 100.651 196.187 106.191C198.221 107.14 200.332 107.918 202.496 108.517C211.926 111.137 221.994 110.194 230.772 105.871C225.823 111.581 219.352 115.772 212.111 117.96C204.869 120.147 197.154 120.24 189.862 118.228C187.698 117.629 185.587 116.851 183.553 115.903C171.69 110.362 159.583 107.591 147.57 107.668C144.926 107.683 142.293 107.331 139.746 106.624C139.312 106.504 138.866 106.368 138.421 106.221L137.904 106.051L138.316 105.696C139.533 104.627 140.88 103.715 142.324 102.981C140.01 103.366 137.755 104.049 135.616 105.013L135.488 105.071L135.359 105.012C130.604 102.804 126.558 99.3216 123.672 94.9533C120.785 90.585 119.173 85.5025 119.014 80.2731C118.854 75.0437 120.155 69.873 122.77 65.338C125.385 60.803 129.212 57.0822 133.824 54.5906Z" fill="black"/>
</g>
</g>
<defs>
<clipPath id="clip0_180_2181">
<rect width="240" height="202" fill="white" transform="translate(0.5)"/>
</clipPath>
</defs>
</svg>
